<svg xmlns="http://www.w3.org/2000/svg" viewBox="0 0 750 500"><g id="freepik--Video--inject-2"><rect x="106.73" y="106.48" width="422.12" height="255.3" style="fill:#fff"></rect><path d="M528.84,361.78l-422.11.37h-.38v-.37l-.12-255.3V106h.5l422.11.21h.29v.29Zm0,0-.29-255.3.29.29L106.73,107l.5-.5-.13,255.3-.37-.37Z" style="fill:#ebebeb"></path><polygon points="106.88 238.55 159.62 238.36 212.37 238.29 317.86 238.16 423.35 238.29 476.1 238.36 528.84 238.55 476.1 238.74 423.35 238.81 317.86 238.94 212.37 238.81 159.62 238.74 106.88 238.55" style="fill:#ebebeb"></polygon><polygon points="106.88 265.56 159.62 265.37 212.37 265.31 317.86 265.18 423.35 265.31 476.1 265.37 528.84 265.56 476.1 265.75 423.35 265.82 317.86 265.95 212.37 265.82 159.62 265.75 106.88 265.56" style="fill:#ebebeb"></polygon><polygon points="106.88 292.58 159.62 292.39 212.37 292.32 317.86 292.19 423.35 292.32 476.1 292.39 528.84 292.58 476.1 292.77 423.35 292.84 317.86 292.97 212.37 292.84 159.62 292.77 106.88 292.58" style="fill:#ebebeb"></polygon><polygon points="106.88 319.59 159.62 319.4 212.37 319.33 317.86 319.2 423.35 319.33 476.1 319.4 528.84 319.59 476.1 319.78 423.35 319.85 317.86 319.98 212.37 319.85 159.62 319.78 106.88 319.59" style="fill:#ebebeb"></polygon><rect x="106.88" y="214.12" width="421.96" height="24.43" style="fill:#ebebeb"></rect><polygon points="277.1 214.86 277.29 230.36 277.36 245.86 277.49 276.87 277.36 307.87 277.29 323.37 277.1 338.87 276.9 323.37 276.84 307.87 276.71 276.87 276.84 245.86 276.91 230.36 277.1 214.86" style="fill:#ebebeb"></polygon><polygon points="250.08 214.86 250.27 230.36 250.34 245.86 250.47 276.87 250.34 307.87 250.27 323.37 250.08 338.87 249.89 323.37 249.82 307.87 249.69 276.87 249.82 245.86 249.89 230.36 250.08 214.86" style="fill:#ebebeb"></polygon><polygon points="223.07 214.86 223.26 230.36 223.33 245.86 223.46 276.87 223.33 307.87 223.26 323.37 223.07 338.87 222.88 323.37 222.81 307.87 222.68 276.87 222.81 245.86 222.88 230.36 223.07 214.86" style="fill:#ebebeb"></polygon><polygon points="196.05 214.86 196.24 230.36 196.31 245.86 196.44 276.87 196.31 307.87 196.24 323.37 196.05 338.87 195.86 323.37 195.79 307.87 195.66 276.87 195.79 245.86 195.86 230.36 196.05 214.86" style="fill:#ebebeb"></polygon><polygon points="358.14 214.86 358.33 230.36 358.4 245.86 358.53 276.87 358.4 307.87 358.33 323.37 358.14 338.87 357.95 323.37 357.88 307.87 357.75 276.87 357.88 245.86 357.95 230.36 358.14 214.86" style="fill:#ebebeb"></polygon><polygon points="331.13 214.86 331.31 230.36 331.38 245.86 331.51 276.87 331.38 307.87 331.32 323.37 331.13 338.87 330.93 323.37 330.87 307.87 330.74 276.87 330.87 245.86 330.94 230.36 331.13 214.86" style="fill:#ebebeb"></polygon><polygon points="304.11 214.86 304.3 230.36 304.37 245.86 304.5 276.87 304.37 307.87 304.3 323.37 304.11 338.87 303.92 323.37 303.85 307.87 303.72 276.87 303.85 245.86 303.92 230.36 304.11 214.86" style="fill:#ebebeb"></polygon><polygon points="385.15 214.86 385.34 230.36 385.41 245.86 385.54 276.87 385.41 307.87 385.35 323.37 385.15 338.87 384.96 323.37 384.89 307.87 384.76 276.87 384.89 245.86 384.96 230.36 385.15 214.86" style="fill:#ebebeb"></polygon><polygon points="358.14 214.86 358.33 230.36 358.4 245.86 358.53 276.87 358.4 307.87 358.33 323.37 358.14 338.87 357.95 323.37 357.88 307.87 357.75 276.87 357.88 245.86 357.95 230.36 358.14 214.86" style="fill:#ebebeb"></polygon><polygon points="412.33 214.86 412.52 230.36 412.59 245.86 412.72 276.87 412.59 307.87 412.52 323.37 412.33 338.87 412.14 323.37 412.07 307.87 411.94 276.87 412.07 245.86 412.14 230.36 412.33 214.86" style="fill:#ebebeb"></polygon><polygon points="439.43 214.86 439.62 230.36 439.69 245.86 439.81 276.87 439.69 307.87 439.62 323.37 439.43 338.87 439.24 323.37 439.17 307.87 439.04 276.87 439.17 245.86 439.24 230.36 439.43 214.86" style="fill:#ebebeb"></polygon><polygon points="466.52 214.86 466.71 230.36 466.78 245.86 466.91 276.87 466.78 307.87 466.71 323.37 466.52 338.87 466.33 323.37 466.26 307.87 466.13 276.87 466.26 245.86 466.33 230.36 466.52 214.86" style="fill:#ebebeb"></polygon><polygon points="493.62 214.86 493.81 230.36 493.88 245.86 494.01 276.87 493.88 307.87 493.81 323.37 493.62 338.87 493.43 323.37 493.36 307.87 493.23 276.87 493.36 245.86 493.43 230.36 493.62 214.86" style="fill:#ebebeb"></polygon><polygon points="520.71 214.86 520.9 230.36 520.97 245.86 521.1 276.87 520.97 307.87 520.9 323.37 520.71 338.87 520.52 323.37 520.45 307.87 520.32 276.87 520.45 245.86 520.52 230.36 520.71 214.86" style="fill:#ebebeb"></polygon><polygon points="169.04 214.86 169.23 230.36 169.3 245.86 169.43 276.87 169.3 307.87 169.23 323.37 169.04 338.87 168.85 323.37 168.78 307.87 168.65 276.87 168.78 245.86 168.85 230.36 169.04 214.86" style="fill:#ebebeb"></polygon><polygon points="142.02 214.86 142.21 230.36 142.28 245.86 142.41 276.87 142.28 307.87 142.22 323.37 142.02 338.87 141.83 323.37 141.76 307.87 141.63 276.87 141.77 245.86 141.84 230.36 142.02 214.86" style="fill:#ebebeb"></polygon><polygon points="115.01 214.86 115.2 230.36 115.27 245.86 115.4 276.87 115.27 307.87 115.2 323.37 115.01 338.87 114.82 323.37 114.75 307.87 114.62 276.87 114.75 245.86 114.82 230.36 115.01 214.86" style="fill:#ebebeb"></polygon><polygon points="236.19 204.7 351.82 204.7 355.54 117.98 232.47 117.98 236.19 204.7" style="fill:#ebebeb"></polygon><path d="M291.55,196.74H244.79l-3-70.37h49.81ZM245.47,196h45.37V127.08H242.48Z" style="fill:#dbdbdb"></path><path d="M287.33,173.45h-4.86V148.06h4.86Zm-4.15-.71h3.44v-24h-3.44Z" style="fill:#dbdbdb"></path><path d="M343.22,196.74H296.46V126.37h49.81ZM297.17,196h45.37l3-68.95H297.17Z" style="fill:#dbdbdb"></path><path d="M305.54,173.45h-4.86V148.06h4.86Zm-4.15-.71h3.44v-24h-3.44Z" style="fill:#dbdbdb"></path><rect x="382.05" y="157.29" width="107.32" height="8.25" transform="translate(871.41 322.84) rotate(180)" style="fill:#CFD8DC"></rect><rect x="434.11" y="180.48" width="3.19" height="40.27" transform="translate(871.41 401.23) rotate(180)" style="fill:#c7c7c7"></rect><path d="M426.2,243.06h19L444.33,219H427.08Zm13.12-20.63h1.79v17.81h-1.79Zm-4.5,0h1.78v17.81h-1.78Zm-4.51,0h1.78v17.81h-1.78Z" style="fill:#c7c7c7"></path><polygon points="432.26 184.44 438.95 184.44 439.62 159.5 431.59 159.5 432.26 184.44" style="fill:#263238"></polygon><circle cx="435.6" cy="162.75" r="1.09" style="fill:#CFD8DC"></circle><rect x="400.4" y="180.48" width="3.19" height="32.41" transform="translate(803.98 393.37) rotate(180)" style="fill:#c7c7c7"></rect><path d="M392.86,222.26c0,6.76,4.41,13,9.13,13s9.13-6.22,9.13-13a9.18,9.18,0,1,0-18.26,0Z" style="fill:#c7c7c7"></path><polygon points="398.55 184.44 405.23 184.44 405.9 159.5 397.87 159.5 398.55 184.44" style="fill:#263238"></polygon><circle cx="401.89" cy="162.75" r="1.09" style="fill:#CFD8DC"></circle><path d="M470.24,194.3V180.38h-5v53.51h24.2V194.3Zm14.32,6.94A1.44,1.44,0,1,1,486,199.8,1.44,1.44,0,0,1,484.56,201.24Z" style="fill:#c7c7c7"></path><polygon points="471.07 184.44 464.38 184.44 463.71 159.5 471.74 159.5 471.07 184.44" style="fill:#263238"></polygon><circle cx="467.73" cy="162.75" r="1.09" style="fill:#CFD8DC"></circle><rect x="412.12" y="114.58" width="33.33" height="52.1" transform="translate(288.15 569.41) rotate(-90)" style="fill:#CFD8DC"></rect><rect x="412.12" y="114.58" width="33.33" height="52.1" transform="translate(288.15 569.41) rotate(-90)" style="opacity:0.2"></rect><path d="M383.57,140.63c0,2.75,2.28,4.46,5.35,4.46,2.59,0,5-2.24,7.43-2.24h6.38V138.4h-6.38c-2.43,0-4.84-2.23-7.43-2.23C385.85,136.17,383.57,137.89,383.57,140.63Zm3,0a1.68,1.68,0,1,1,1.68,1.67A1.67,1.67,0,0,1,386.54,140.63Z" style="fill:#CFD8DC"></path><g style="opacity:0.2"><path d="M383.57,140.63c0,2.75,2.28,4.46,5.35,4.46,2.59,0,5-2.24,7.43-2.24h6.38V138.4h-6.38c-2.43,0-4.84-2.23-7.43-2.23C385.85,136.17,383.57,137.89,383.57,140.63Zm3,0a1.68,1.68,0,1,1,1.68,1.67A1.67,1.67,0,0,1,386.54,140.63Z"></path></g><path d="M440.78,141.11s6.86,12.83,8.2,14.58,4.57,1.6,6.58,1.6H472c2,0,5.25.15,6.58-1.6s8.2-14.58,8.2-14.58Z" style="fill:#455a64"></path><path d="M505.82,307.59l-3.65-2.94c2.79-3.47,6-7.9,6.49-9.29-.55-3.51-3.82-15.1-5.91-16.72H489.11V274H503c6.64,0,10.31,20.9,10.34,21.11C513.45,295.89,513.69,297.81,505.82,307.59Zm2.89-12.39Z" style="fill:#ebebeb"></path><path d="M482.1,338.59c-23.63,0-29.35-15.36-27-26.14s18.83-20,19-23.53,0-19.32-.85-20.4-6.25-3.16-7.72-3.16-1.46-1.8,0-1.8h27.25c1.47,0,1.47,1.8,0,1.8s-2.39,1.8-2.65,3.71c-.18,1.34-.45,16.92-.05,19.85.46,3.49,16.68,12.75,19,23.53S505.72,338.59,482.1,338.59Z" style="fill:#ebebeb"></path><path d="M481.51,334.94c-19.87,0-24.67-12.91-22.71-22s18.67-19.19,18.34-22.13c-.06-.57-.1-12.1-.13-13.31h9.9c0,1.26.07,12.79.14,13.31.4,2.93,15.2,13.06,17.18,22.13S501.38,334.94,481.51,334.94Z" style="fill:#CFD8DC"></path><path d="M470.48,308v27.09c0,1.93-.72,3.52-1.6,3.52l-10.42,0H448c-.88,0-1.59-1.57-1.59-3.5V308c0-1.94.71-3.5,1.59-3.5h1V301.9h9.48v0l9.46,0v2.56h1C469.76,304.46,470.48,306,470.48,308Z" style="fill:#CFD8DC"></path><rect x="448.31" y="297.76" width="20.27" height="4.56" style="fill:#37474f"></rect><rect x="446.43" y="313.7" width="24.06" height="17.11" style="fill:#ebebeb"></rect><path d="M443.75,333.79c0,3.55-1.33,4.78-2,4.78H430.18c-.68,0-2-1.22-2-4.77,0-4.22,3-6.74,3-9,0-1.51-1.45-6.16-.83-6.16l11.19,0c.62,0-.81,4.66-.81,6.16C440.72,327.07,443.75,329.58,443.75,333.79Z" style="fill:#ebebeb"></path><path d="M432,315.48h7.87a2.15,2.15,0,0,1,2.15,2.15v1.93a.15.15,0,0,1-.15.15H430a.15.15,0,0,1-.15-.15v-1.93a2.15,2.15,0,0,1,2.15-2.15Z" transform="translate(-0.46 0.64) rotate(-0.08)" style="fill:#37474f"></path><g style="opacity:0.5"><path d="M410.73,218.58c-.65,5.29-4.49,9.41-8.92,12-2.59,1.54-5.9,2-8.25,3.94A8.32,8.32,0,0,0,390.9,242c.7,6,6.21,10.41,10.33,14.3,6.35,6,14.33,15.37,9.19,24.63-2.41,4.33-7.12,7.19-11.6,9A49,49,0,0,1,383.1,293c-6.19.3-13.11-.58-17.06,5.28-3.54,5.23-3.2,9.05-1.31,14.72,0,0-1.57.39-1.7.23a51,51,0,0,1-5.25-9.9c-2.42-5.67-3-11.64,1.87-16.58,2.88-2.89,6.74-4.49,10-6.83,4.27-3,6.39-7.22,4.77-12.46-1.67-5.41-6-9.38-8.59-14.29a14.83,14.83,0,0,1-.27-14.19,23.21,23.21,0,0,1,9.25-9.73c4.51-2.58,9.38-3,14.47-3.19,5.75-.15,12.68-.49,16.23-5.79s2.14-11.79.69-17.41c-.06-.2.25-.3.33-.11C408.83,207.67,411.42,213,410.73,218.58Z" style="fill:#fff"></path></g><rect x="393.98" y="304.35" width="22.81" height="1.94" style="fill:#dbdbdb"></rect><rect x="400.37" y="302.28" width="20.29" height="6.09" transform="translate(821.04 610.64) rotate(180)" style="fill:#CFD8DC"></rect><path d="M331.05,297.82s2.19,32,12.42,32h54.14c10.23,0,12.42-32,12.42-32Z" style="fill:#263238"></path><rect x="325.71" y="304.41" width="22.81" height="1.82" style="fill:#dbdbdb"></rect><polygon points="342.12 308.37 321.83 308.37 321.83 302.28 342.12 302.28 342.12 302.28 342.12 308.37" style="fill:#CFD8DC"></polygon><polygon points="333.41 337.13 330.04 330.94 272.33 330.94 268.96 337.13 267.2 336.18 271.14 328.94 331.23 328.94 335.17 336.18 333.41 337.13" style="fill:#263238"></polygon><polygon points="322.86 337 320.61 330.94 281.76 330.94 279.5 337 277.63 336.31 280.37 328.94 322 328.94 324.74 336.31 322.86 337" style="fill:#263238"></polygon><polygon points="403.48 337.13 400.1 330.94 342.39 330.94 339.02 337.13 337.26 336.18 341.2 328.94 401.29 328.94 405.23 336.18 403.48 337.13" style="fill:#263238"></polygon><polygon points="392.93 337 390.67 330.94 351.82 330.94 349.57 337 347.69 336.31 350.43 328.94 392.06 328.94 394.8 336.31 392.93 337" style="fill:#263238"></polygon><rect x="264.51" y="335.1" width="143.77" height="3.75" style="fill:#455a64"></rect><polygon points="106.73 338.84 159.49 338.6 212.26 338.51 317.79 338.35 423.31 338.51 476.08 338.6 528.84 338.84 476.08 339.09 423.31 339.18 317.79 339.34 212.26 339.18 159.49 339.09 106.73 338.84" style="fill:#263238"></polygon><path d="M519.68,345H115.89a1.51,1.51,0,0,0,0,3H519.68a1.51,1.51,0,0,0,0-3Z" style="fill:#c7c7c7"></path><path d="M115.89,345a1.51,1.51,0,0,0,0,3H238v-3Z" style="fill:#CFD8DC"></path><path d="M234.94,346.48a3,3,0,1,1,3,3A3,3,0,0,1,234.94,346.48Z" style="fill:#CFD8DC"></path><polygon points="509.29 351.76 509.29 352.49 509.29 354.06 510.02 354.06 510.02 352.49 511.59 352.49 511.59 351.76 510.02 351.76 509.29 351.76" style="fill:#c7c7c7"></polygon><polygon points="514.02 351.76 512.45 351.76 512.45 352.49 514.02 352.49 514.02 354.06 514.74 354.06 514.74 352.49 514.74 351.76 514.02 351.76" style="fill:#c7c7c7"></polygon><polygon points="514.02 356.34 512.45 356.34 512.45 357.07 514.02 357.07 514.74 357.07 514.74 356.34 514.74 354.77 514.02 354.77 514.02 356.34" style="fill:#c7c7c7"></polygon><polygon points="510.02 354.77 509.29 354.77 509.29 356.34 509.29 357.07 510.02 357.07 511.59 357.07 511.59 356.34 510.02 356.34 510.02 354.77" style="fill:#c7c7c7"></polygon><rect x="143.87" y="353.21" width="1.24" height="2.4" style="fill:#c7c7c7"></rect><polygon points="145.11 353.21 147.4 352.25 147.4 356.58 145.11 355.62 145.11 353.21" style="fill:#c7c7c7"></polygon><g id="freepik--u5Zjqx--inject-2"><path d="M148.81,352.57l.45-.45a3.24,3.24,0,0,1,0,4.59l-.45-.45a2.57,2.57,0,0,0,.77-1.85A2.61,2.61,0,0,0,148.81,352.57Z" style="fill:#c7c7c7"></path><path d="M148.3,354.41a1.33,1.33,0,0,0-.39-.94l.45-.45a2,2,0,0,1,0,2.79l-.45-.45a1.34,1.34,0,0,0,.39-.95" style="fill:#c7c7c7"></path></g><polygon points="131.98 352.12 131.98 356.71 135.7 354.42 131.98 352.12" style="fill:#c7c7c7"></polygon><rect x="135.7" y="352.12" width="1.02" height="4.6" style="fill:#c7c7c7"></rect><rect x="120.83" y="352.12" width="1.02" height="4.6" style="fill:#c7c7c7"></rect><rect x="122.94" y="352.12" width="1.02" height="4.6" style="fill:#c7c7c7"></rect><path d="M489.09,356.79h-6.17V352h6.17Zm-5.42-.75h4.67v-3.25h-4.67Z" style="fill:#c7c7c7"></path><path d="M476.8,357H470v-5.24h6.84Zm-6.09-.75h5.34v-3.74h-5.34Z" style="fill:#c7c7c7"></path><rect x="473.29" y="354.13" width="2.32" height="1.71" style="fill:#c7c7c7"></rect><polygon points="502.1 357.03 500.21 357.03 500.21 356.28 501.35 356.28 501.35 352.54 496.01 352.54 496.01 356.28 497.16 356.28 497.16 357.03 495.26 357.03 495.26 351.79 502.1 351.79 502.1 357.03" style="fill:#c7c7c7"></polygon><polygon points="496.89 357.88 500.47 357.88 498.68 356.04 496.89 357.88" style="fill:#c7c7c7"></polygon><path d="M160.82,355.15a.25.25,0,0,1-.26.25h0v.35a.25.25,0,0,1-.5,0v-.35h-1.44a.24.24,0,0,1-.16,0,.26.26,0,0,1,0-.36l1.69-2.09h0v0l0,0a0,0,0,0,0,0,0h.24l0,0h0v0h0s0,0,0,0V353s0,0,0,0v1.86h0A.25.25,0,0,1,160.82,355.15Zm-.8-1.38-.91,1.13H160Z" style="fill:#c7c7c7"></path><path d="M161.84,353.53a.35.35,0,0,1,.35.35.34.34,0,0,1-.35.33.33.33,0,0,1-.33-.33A.34.34,0,0,1,161.84,353.53Zm0,1.82a.34.34,0,1,1,0,.68.34.34,0,0,1,0-.68Z" style="fill:#c7c7c7"></path><path d="M162.5,354.4a1.92,1.92,0,0,1,.31-1.09,1,1,0,0,1,1.69,0,2.07,2.07,0,0,1,0,2.18,1,1,0,0,1-1.69,0A1.92,1.92,0,0,1,162.5,354.4Zm1.8,0a1.49,1.49,0,0,0-.22-.81.54.54,0,0,0-.42-.28.55.55,0,0,0-.43.28,1.6,1.6,0,0,0,0,1.62.55.55,0,0,0,.43.28.54.54,0,0,0,.42-.28A1.49,1.49,0,0,0,164.3,354.4Z" style="fill:#c7c7c7"></path><path d="M167.87,354.91a1.09,1.09,0,1,1-1.69-.91.7.7,0,0,1-.15-.45.76.76,0,0,1,.76-.75.75.75,0,0,1,.74.75.7.7,0,0,1-.15.45A1.08,1.08,0,0,1,167.87,354.91Zm-.5,0a.59.59,0,0,0-.58-.59.6.6,0,0,0-.6.59.59.59,0,0,0,.6.59A.58.58,0,0,0,167.37,354.91Zm-.84-1.36a.26.26,0,0,0,.26.26.26.26,0,0,0,0-.51A.26.26,0,0,0,166.53,353.55Z" style="fill:#c7c7c7"></path><path d="M170.07,355.65l1.11-2.66a.25.25,0,0,1,.47.19l-1.12,2.67a.27.27,0,0,1-.24.15l-.09,0A.24.24,0,0,1,170.07,355.65Z" style="fill:#c7c7c7"></path><path d="M174.22,353.06v2.69a.26.26,0,0,1-.26.25.25.25,0,0,1-.25-.25V353.5l-.18.11a.31.31,0,0,1-.13,0,.25.25,0,0,1-.22-.12.26.26,0,0,1,.09-.35l.56-.33h.23l0,0h0l0,0,0,0v0h0v0a0,0,0,0,1,0,0v0a0,0,0,0,0,0,0Z" style="fill:#c7c7c7"></path><path d="M176.52,354.06a1.1,1.1,0,0,1,.34.8,1.11,1.11,0,0,1-.34.8,1.13,1.13,0,0,1-1.6,0,.25.25,0,0,1,0-.36.25.25,0,0,1,.37,0,.61.61,0,0,0,.43.17.67.67,0,0,0,.44-.17.64.64,0,0,0,.18-.44.62.62,0,0,0-.18-.44.67.67,0,0,0-.44-.18.21.21,0,0,1-.18-.08s0,0,0,0a.26.26,0,0,1,0-.36l.47-.47h-.74a.26.26,0,0,1-.26-.26.26.26,0,0,1,.26-.26h1.35a.26.26,0,0,1,.26.26.28.28,0,0,1,0,.12.21.21,0,0,1,0,.06l-.58.6A.87.87,0,0,1,176.52,354.06Z" style="fill:#c7c7c7"></path><path d="M178,353.53a.35.35,0,0,1,.34.35.34.34,0,0,1-.68,0A.35.35,0,0,1,178,353.53Zm0,1.82a.34.34,0,1,1-.34.34A.34.34,0,0,1,178,355.35Z" style="fill:#c7c7c7"></path><path d="M178.67,354.4a1.92,1.92,0,0,1,.31-1.09,1,1,0,0,1,1.69,0,2.07,2.07,0,0,1,0,2.18,1,1,0,0,1-1.69,0A1.92,1.92,0,0,1,178.67,354.4Zm1.8,0a1.49,1.49,0,0,0-.22-.81.54.54,0,0,0-.42-.28.58.58,0,0,0-.44.28,1.6,1.6,0,0,0,0,1.62.58.58,0,0,0,.44.28.54.54,0,0,0,.42-.28A1.49,1.49,0,0,0,180.47,354.4Z" style="fill:#c7c7c7"></path><path d="M184.35,355.15a.26.26,0,0,1-.26.25H184v.35a.24.24,0,0,1-.25.25.25.25,0,0,1-.25-.25v-.35h-1.43a.24.24,0,0,1-.16,0,.26.26,0,0,1,0-.36l1.69-2.09h0v0l0,0s0,0,0,0h.24l0,0h0l0,0h0l0,0v0s0,0,0,0v1.93h.05A.26.26,0,0,1,184.35,355.15Zm-.81-1.38-.91,1.13h.91Z" style="fill:#c7c7c7"></path><path d="M493.06,127a6.17,6.17,0,0,1-1.88.78,6.53,6.53,0,0,1-7.89-4.79,6.53,6.53,0,1,1,9.77,4Z" style="fill:#a6a6a6"></path><path d="M491.62,120.66a2,2,0,1,1-2-2A2,2,0,0,1,491.62,120.66Z" style="fill:#fff"></path><path d="M493.06,126.15V127a6.17,6.17,0,0,1-1.88.78,6.45,6.45,0,0,1-5-.79v-.81a3.43,3.43,0,1,1,6.86,0Z" style="fill:#fff"></path><rect x="510.76" y="116.39" width="8.71" height="1.71" style="fill:#a6a6a6"></rect><rect x="510.76" y="119.85" width="8.71" height="1.71" style="fill:#a6a6a6"></rect><rect x="510.76" y="123.32" width="8.71" height="1.71" style="fill:#a6a6a6"></rect><rect x="116.11" y="117.51" width="172.73" height="3.76" style="fill:#a6a6a6"></rect><rect x="116.11" y="124.96" width="77.73" height="2.95" style="fill:#c7c7c7"></rect></g><g id="freepik--Character--inject-2"><path d="M179.89,286.81a.32.32,0,0,0,0,.09.13.13,0,0,0,0,.06c0,.06,0,.11,0,.18l0,.12c0,.07,0,.15.05.25l0,.18c0,.13,0,.27.08.43s.09.52.15.83c.08.46.18,1,.29,1.59,0,.16.06.35.09.53l.15.77c.05.3.1.6.16.92v0l.12.68c.12.69.25,1.43.4,2.22a.13.13,0,0,1,0,.06l.51,2.82.15.78.15.81v0a4.76,4.76,0,0,0,.1.52v0c.24,1.38.51,2.83.79,4.38.1.52.19,1,.29,1.57l.58,3.2c0,.25.1.5.14.76.29,1.59.59,3.24.9,5,0,.17.06.35.1.52.14.8.29,1.61.44,2.44a1.42,1.42,0,0,1,0,.2l.21,1.18c.28,1.58.58,3.2.88,4.85.08.41.16.83.23,1.25.15.83.3,1.68.46,2.53.19,1.05.39,2.12.58,3.2s.39,2.16.59,3.26c.1.55.2,1.1.31,1.65s.24,1.32.35,2h56c-6.91-28.71-12.74-51.84-12.74-51.84Z" style="fill:#37474f"></path><path d="M188.35,293.27q4.22,22.69,8.51,45.38h.78c-3-15.16-6-30.3-9.1-45.44C188.51,293.09,188.33,293.15,188.35,293.27Z" style="fill:#263238"></path><path d="M179.89,286.81a.66.66,0,0,1,0,.09.13.13,0,0,0,0,.06q0,.07,0,.18l0,.12c0,.07,0,.15.05.25l0,.18c0,.13,0,.27.08.43s.09.52.15.83c.09.46.18,1,.29,1.59,0,.16.06.35.09.53l.15.77c.05.3.1.6.16.92v0l.12.68c.13.69.26,1.43.4,2.22a.13.13,0,0,1,0,.06c.17.88.33,1.82.52,2.81.05.26.09.52.14.79l.15.81v0c0,.17.06.35.1.52v0c.25,1.37.51,2.83.79,4.38.1.52.19,1,.29,1.57.19,1,.39,2.1.58,3.2,0,.25.1.5.14.76.3,1.6.59,3.25.9,5,0,.17.06.35.1.52.14.8.29,1.61.44,2.44a1.42,1.42,0,0,1,0,.2l.21,1.18c.29,1.58.58,3.2.88,4.85.08.41.16.83.23,1.25.15.83.3,1.68.46,2.53.19,1.05.39,2.12.58,3.2s.4,2.16.59,3.26c.1.55.2,1.1.31,1.65s.24,1.32.36,2h28.05l2.25-23,.07-.82.09-.88h0l.45-4.5h0l.38-3.9,1.83-18.7Z" style="fill:#263238"></path><path d="M148.06,338.65h60.42c.1-5.56.21-10.94.35-16h0c0-.13,0-.25,0-.37a96.6,96.6,0,0,0,10.85-7.45,13.49,13.49,0,0,0,1.78-1.76v0h0c2.43-3.1,4.87-15,9.91-26.22H157.5C145.47,310.17,146.31,328.87,148.06,338.65Z" style="fill:#37474f"></path><path d="M223.22,312.25a54.65,54.65,0,0,0-10,5.92c-3.32,2.26-6.36,4.88-9.55,7.31-.12.09,0,.3.13.21,3.37-2.15,6.89-4,10.21-6.24a65.25,65.25,0,0,0,9.39-6.94C223.49,312.41,223.37,312.19,223.22,312.25Z" style="fill:#263238"></path><path d="M223.67,291.47c-.43,2.3-1,4.57-1.48,6.86s-.81,4.34-1.38,6.46a11,11,0,0,1-3,5.41c-.85.78-1.77,1.47-2.67,2.19-.49.39-1,.76-1.51,1.15.06-.31.12-.61.17-.93.16-.87.3-1.74.45-2.62.32-1.93.63-3.88.93-5.82.59-3.82,1.12-7.67,1.92-11.45a.12.12,0,0,0-.24-.06c-1,3.74-2,7.45-2.83,11.23-.4,1.85-1.85,11-1.92,11.64s-.12,1.34-.14,2a7.89,7.89,0,0,0,0,2.06c0,.16.24.14.32,0h0a7.89,7.89,0,0,0,.59-2c.16-.65.31-1.31.43-2,0-.24.08-.48.11-.73.9-.54,1.74-1.27,2.58-1.88s1.83-1.3,2.69-2A10.31,10.31,0,0,0,222,305.9a37.51,37.51,0,0,0,1.07-6.57c.29-2.6.51-5.22.87-7.81C223.93,291.37,223.7,291.31,223.67,291.47Z" style="fill:#263238"></path><path d="M162.19,307.49c1-.51,4.7.39,11.5-.78a7.7,7.7,0,0,0,3.67-1.49,19.18,19.18,0,0,0,4.19-5.76,30.2,30.2,0,0,0,2.93-7.11c0-.15.25-.08.22.07-.25,1.4-.39,2.81-.76,4.2a26.13,26.13,0,0,1-1.41,3.82c-1,2.31-2.23,4.79-4.3,6.34s-5.2,2-7.83,2.13c-1.52.11-7.49-.06-8.29-.91A.33.33,0,0,1,162.19,307.49Z" style="fill:#263238"></path><path d="M226.74,198c12.54,15.08,22.93,34.29,28.5,38.94,2.91,2.43,45.21,6.18,50,7.12,7.32,1.44-3,38.92-8,37.54-3.22-.9-51.83-7.62-60.77-17.75-6.88-7.79-17.74-41.37-20.64-56.12C212.66,191.34,221.74,192,226.74,198Z" style="fill: rgb(255, 196, 192);"></path><path d="M315.41,283.41a103.37,103.37,0,0,1-24.86-3.33c-4.42-1.27-2.2-36.19,2.34-37.49,14.12-4.05,33.44-1.16,39.9,4S323.81,283.4,315.41,283.41Z" style="fill: rgb(255, 196, 192);"></path><path d="M419.69,223.16c-7.88,4.69-17.7,6.77-26.46,9.25q-7.2,2-14.48,3.79c-2.2.55-4.41,1.06-6.63,1.56-1.35.31-3.45,1.18-4.88.79a.81.81,0,0,1-.62-.69,1.41,1.41,0,0,1,0-.29c-.05-.82,23-7.56,29.63-16,3.37-4.29,6.33-11.35,3.08-16.52-1.94-3.08-5.87-3.57-9.12-2.65s-7,4.84-3.78,6.41c.31-.56,1.35-.32,1.14.38-.66,1.68-4.26,2.68-6.16.47-3-3.53-.86-9.19,1.57-11.94,6.8-7.7,23.32-7.59,28.84,2.61a5.78,5.78,0,0,1,9,2.32c3-2.77,7.43.39,8.19,4.25C430.35,213.71,425.18,219.91,419.69,223.16Z" style="fill:#CFD8DC"></path><path d="M379.05,197.93c-.77-.88-7.46.7-5.86,3.86S380.17,199.2,379.05,197.93Z" style="fill:#CFD8DC"></path><path d="M375.31,206.32c-.9-.32-3.93,3.61-1.88,4.76S376.06,206.58,375.31,206.32Z" style="fill:#CFD8DC"></path><path d="M412.62,197.76c.87-.39.36-5.33-1.92-4.75S411.89,198.08,412.62,197.76Z" style="fill:#CFD8DC"></path><path d="M373.15,204.48c-.35-.46-2.1.12-1.43,1.12S373.56,205,373.15,204.48Z" style="fill:#CFD8DC"></path><path d="M411.78,191.23c.56-.14.71-2-.47-1.76S411.14,191.39,411.78,191.23Z" style="fill:#CFD8DC"></path><polygon points="351.57 245.6 286.94 266.84 284.59 258.59 349.89 239.7 351.57 245.6" style="fill:#a6a6a6"></polygon><path d="M426.66,217.86s1.7,17.35-4.35,19.07L390,246.12l-32.3,9.19c-6,1.72-13.74-13.92-13.74-13.92Z" style="fill:#455a64"></path><path d="M296.75,241.71s34.57-14,33.82.95c-.22,4.44-6.43,22.41-10.07,21.24-4.69-1.53-3.5-9.51-1.95-14.41,0,0-10.1,6.13-16.46.37A19.9,19.9,0,0,1,296.75,241.71Z" style="fill: rgb(255, 196, 192);"></path><path d="M330.56,241.41a18,18,0,0,1-.41,5.22,40.09,40.09,0,0,1-1.38,5.08,61.14,61.14,0,0,1-4.15,9.7,9.89,9.89,0,0,1-1.66,2.25,3.86,3.86,0,0,1-1.35.86,2.69,2.69,0,0,1-.86.16,2.82,2.82,0,0,1-.86-.14,4.4,4.4,0,0,1-2.38-1.94,8.15,8.15,0,0,1-1-2.71,15.87,15.87,0,0,1,.12-5.42,35.75,35.75,0,0,1,1.3-5.16l.9.7a21.11,21.11,0,0,1-3.69,1.62,19.36,19.36,0,0,1-3.9.9,13.68,13.68,0,0,1-4-.13,10.26,10.26,0,0,1-3.68-1.42,11.73,11.73,0,0,0,3.74,1,14.39,14.39,0,0,0,3.82-.21,19.75,19.75,0,0,0,3.67-1.07,20.24,20.24,0,0,0,3.38-1.72l1.31-.85-.4,1.54a38.21,38.21,0,0,0-1.1,5,15.6,15.6,0,0,0,0,5c.28,1.55,1,3.12,2.34,3.52,1.09.45,2.27-1,3.11-2.45s1.63-3,2.38-4.56,1.46-3.14,2.1-4.74C329.12,248.18,330.38,244.9,330.56,241.41Z" style="fill:#263238"></path><path d="M321.26,240.65c-3.67,2.22,1.05,5.27,1.05,5.27s-7.86-2.75-10.76,1,3.06,7.12,3.47,7.37c-.41-.14-7.7-2.48-10.23,1.59-2.61,4.24,3.85,6.74,4.27,6.9-.44,0-6.21-.06-7.42,3.48-2.08,6.07,12.66,6.58,16.05,10.53,0,0-2.75,6.4-2.89,6.62,0,0,10.73.88,15.8-4a4.49,4.49,0,0,0,.81-5.56s4.5.75,6.58-2.4c1.07-1.61-.57-4.76-.57-4.76s3.62.45,5.31-2.47c1.35-2.32-.51-5.12-.51-5.12s3.68-1.18,4.29-4C347.75,249.45,329.13,235.89,321.26,240.65Z" style="fill: rgb(255, 196, 192);"></path><path d="M342,258.65c.05.05.14,0,.08-.09-5-5.95-12.39-10.95-20-12.83-.25-.06-.46.32-.2.44A82,82,0,0,1,342,258.65Z" style="fill:#263238"></path><path d="M337.54,266.75c.07.06.17-.06.1-.13C332.42,260.51,324,255.11,315,254c-.31,0-.63.24-.28.31C320.62,255.5,331.92,261.87,337.54,266.75Z" style="fill:#263238"></path><path d="M308.4,262.92c8.62,1.43,15.92,5.47,22.81,10.7.09.06.18-.07.12-.15-2.68-3.48-7.42-6.35-11.3-8.27a23,23,0,0,0-11.58-2.58C308.29,262.63,308.21,262.89,308.4,262.92Z" style="fill:#263238"></path><path d="M322.31,245.92a26.38,26.38,0,0,0-4.74-.73,8.78,8.78,0,0,0-4.53.74,2.88,2.88,0,0,0-1.37,1.55,4.2,4.2,0,0,0-.19,2.13,5.15,5.15,0,0,0,2.59,3.28l3.05,1.76-3.48-.6A14.36,14.36,0,0,0,309,254,5.15,5.15,0,0,0,305.3,256a3,3,0,0,0,.19,3.7,9,9,0,0,0,3.77,2.38l3.93,1.41-4.15,0a13.69,13.69,0,0,0-3.43.4,5.57,5.57,0,0,0-2.83,1.53,2.65,2.65,0,0,0-.51,2.75,5.84,5.84,0,0,0,2.36,2.28,45.8,45.8,0,0,0,6.6,2.95c1.13.45,2.27.9,3.39,1.41a8.87,8.87,0,0,1,3.07,2,9.55,9.55,0,0,0-3.2-1.69c-1.14-.41-2.3-.77-3.47-1.14a39.27,39.27,0,0,1-6.9-2.66,7,7,0,0,1-2.92-2.64,3.78,3.78,0,0,1,.6-4.09,6.83,6.83,0,0,1,3.46-2,14.81,14.81,0,0,1,3.81-.5l-.22,1.36a10.15,10.15,0,0,1-4.48-2.77,4.21,4.21,0,0,1-1.08-2.68,4.83,4.83,0,0,1,.82-2.73,6.51,6.51,0,0,1,4.66-2.61,15.5,15.5,0,0,1,5.13.16l-.43,1.17a6.12,6.12,0,0,1-3-4.23,5.16,5.16,0,0,1,.37-2.61,3.69,3.69,0,0,1,1.83-1.9,8.92,8.92,0,0,1,4.93-.48A21.52,21.52,0,0,1,322.31,245.92Z" style="fill:#263238"></path><path d="M289.27,239.43l-6,40.84s-43.43-7.41-50.52-15.55-14.32-40.56-17.77-56.88,5.59-21.45,15.61-7.88,21.43,34.25,24.08,35.47S289.27,239.43,289.27,239.43Z" style="fill:#CFD8DC"></path><path d="M239,212.31a6.93,6.93,0,0,0-.87.58,11,11,0,0,0,1.15-.15C239.16,212.59,239.06,212.45,239,212.31ZM258,274.78l-.18.08,1.46.37a10.69,10.69,0,0,0,2.11-1.22A12.39,12.39,0,0,0,258,274.78Zm-3.22-36.26a12.13,12.13,0,0,0-3.08,1.62,12.32,12.32,0,0,0,3.39-.78,11.91,11.91,0,0,0,3.07-1.62A11.9,11.9,0,0,0,254.81,238.52Zm24.95,35.33a11.91,11.91,0,0,0-1.62-3.07,12.62,12.62,0,0,0,.78,3.38,12.23,12.23,0,0,0,1.62,3.07A12,12,0,0,0,279.76,273.85ZM265.88,255a12.19,12.19,0,0,0-1.61-3.07,13.3,13.3,0,0,0,2.39,6.45A11.9,11.9,0,0,0,265.88,255Zm13.65-14a12.34,12.34,0,0,0-3.32-1,12.36,12.36,0,0,0,3,1.85,12.64,12.64,0,0,0,3.31,1A12.51,12.51,0,0,0,279.53,241Zm-52.28,3.87a12,12,0,0,0-3.32-1,13.48,13.48,0,0,0,6.26,2.87A12.15,12.15,0,0,0,227.25,244.87Zm-6.88-33.94a12,12,0,0,0-3.32-1,12,12,0,0,0,2.95,1.84,12.27,12.27,0,0,0,3.31,1A12,12,0,0,0,220.37,210.93Zm21,45.63a12,12,0,0,0-1,3.32,13.6,13.6,0,0,0,2.87-6.26A12.31,12.31,0,0,0,241.33,256.56Zm-7.09-29.79a12.32,12.32,0,0,0-1,3.32,12,12,0,0,0,1.84-2.94,12.34,12.34,0,0,0,1-3.32A12.51,12.51,0,0,0,234.24,226.77Z" style="fill:#fff"></path><path d="M251.6,273.16c-8.59-2.48-16.27-5.41-18.9-8.44-7.1-8.13-14.32-40.56-17.77-56.88-2.17-10.22.57-16.05,5.38-15.65C227.36,208.37,240.06,246.72,251.6,273.16Z" style="opacity:0.1"></path><path d="M294.36,239.06c-.1-.23-12.43-2.37-12.43-2.37s-11.12,19.65-11.1,22-.25,20.26-.07,20.48,15,4.11,15.31,3.7,1.3-19.7,1.35-21.18S294.36,239.06,294.36,239.06Z" style="fill:#CFD8DC"></path><path d="M294.36,239.06c-.1-.23-12.43-2.37-12.43-2.37s-11.12,19.65-11.1,22-.25,20.26-.07,20.48,15,4.11,15.31,3.7,1.3-19.7,1.35-21.18S294.36,239.06,294.36,239.06Z" style="opacity:0.2"></path><path d="M238.09,299.23H150.65s15.87-83.44,48.1-112c4-3.52,17.44-1.84,21.88,3C232.77,203.41,238.32,298.94,238.09,299.23Z" style="fill:#CFD8DC"></path><path d="M209.05,196.38a12,12,0,0,0-1,3.32,12.15,12.15,0,0,0,1.84-2.94,12,12,0,0,0,1-3.32A12.46,12.46,0,0,0,209.05,196.38Zm-13.78,43a11.91,11.91,0,0,0-1,3.31,12.07,12.07,0,0,0,1.84-2.94,12.34,12.34,0,0,0,1-3.32A12.36,12.36,0,0,0,195.27,239.35Zm-9.92,45.86a12.25,12.25,0,0,0-1,3.31,11.78,11.78,0,0,0,1.84-2.94,12.38,12.38,0,0,0,1-3.31A12.11,12.11,0,0,0,185.35,285.21Zm26.56-3.13a12.34,12.34,0,0,0-1,3.32,13.33,13.33,0,0,0,2.87-6.26A12.38,12.38,0,0,0,211.91,282.08ZM179.48,221.2a12.27,12.27,0,0,0-1,3.31,12.11,12.11,0,0,0,1.85-2.94,12.37,12.37,0,0,0,1-3.31A12.07,12.07,0,0,0,179.48,221.2Zm40.89-10.27a12,12,0,0,0-3.32-1,12,12,0,0,0,2.95,1.84,12.27,12.27,0,0,0,3.31,1A12,12,0,0,0,220.37,210.93Zm6.88,33.94a12,12,0,0,0-3.32-1,13.48,13.48,0,0,0,6.26,2.87A12.15,12.15,0,0,0,227.25,244.87Zm-67.39,42.44a12.27,12.27,0,0,0-3.31-1,12.11,12.11,0,0,0,2.94,1.85,12.32,12.32,0,0,0,3.32,1A12.65,12.65,0,0,0,159.86,287.31Zm69,7.51a12.34,12.34,0,0,0-3.32-1,12.8,12.8,0,0,0,2.94,1.84l.71.31c.62,0,1.22.09,1.84.12A13.46,13.46,0,0,0,228.83,294.82Zm-43.06-37.53a11.93,11.93,0,0,0-3.31-1,11.78,11.78,0,0,0,2.94,1.84,12.34,12.34,0,0,0,3.32,1A12,12,0,0,0,185.77,257.29Zm11.77-40.74a12.23,12.23,0,0,0-1.62-3.07,12,12,0,0,0,.78,3.38,12.19,12.19,0,0,0,1.61,3.07A11.89,11.89,0,0,0,197.54,216.55Zm13.76,40a12.19,12.19,0,0,0-1.61-3.07,13.3,13.3,0,0,0,2.39,6.45A12,12,0,0,0,211.3,256.59Zm-34,42.16a12.8,12.8,0,0,0-1.62-3.08,12.39,12.39,0,0,0,.77,3.39c0,.05,0,.11.07.17h.94Zm-5.79-26.93a12.19,12.19,0,0,0-1.61-3.07,13.3,13.3,0,0,0,2.39,6.45A12,12,0,0,0,171.54,271.82Zm57.61-2.29a12.19,12.19,0,0,0-3.07,1.61,13.3,13.3,0,0,0,6.45-2.39A11.9,11.9,0,0,0,229.15,269.53ZM199,297.28a12.46,12.46,0,0,0-3.08,1.62,13.29,13.29,0,0,0,6.46-2.39A12.24,12.24,0,0,0,199,297.28Zm-24.8-55.39a12.13,12.13,0,0,0-3.08,1.62,12.69,12.69,0,0,0,3.39-.78,12.23,12.23,0,0,0,3.07-1.62A11.9,11.9,0,0,0,174.18,241.89Zm24,28.83a12.23,12.23,0,0,0-3.07,1.62,13.3,13.3,0,0,0,6.45-2.39A12.24,12.24,0,0,0,198.16,270.72Zm14.37-43.81a12.23,12.23,0,0,0-3.07,1.62,12,12,0,0,0,3.38-.78,12.19,12.19,0,0,0,3.07-1.61A11.89,11.89,0,0,0,212.53,226.91Zm-24-27.63-.61.25-.78,1.11a16.67,16.67,0,0,0,1.7-.52,11.91,11.91,0,0,0,3.07-1.62A11.9,11.9,0,0,0,188.56,199.28Z" style="fill:#fff"></path><path d="M197.35,189.76a30,30,0,0,0,9,12.81,16.47,16.47,0,0,0,6.94,3.61,7.17,7.17,0,0,0,4.08-.15,8,8,0,0,0,3.09-2.55,15,15,0,0,0,2.16-4,35.48,35.48,0,0,0,1.44-4.92c0-.07.11,0,.09,0-.33,1.58-.54,3.18-1,4.74a16.36,16.36,0,0,1-1.68,3.94,9.6,9.6,0,0,1-2.81,3,6.3,6.3,0,0,1-4.1,1,15,15,0,0,1-7.66-3.16,26.39,26.39,0,0,1-5.7-5.9,27.46,27.46,0,0,1-4-8.38C197.16,189.7,197.31,189.66,197.35,189.76Z" style="fill:#263238"></path><path d="M215.58,203.39c-5.16.54-12.75-8.22-15.34-14.85-.18-.46,1-4.85,2.3-10.26.74-3.28,1.48-6.95,1.92-10.36.09-.7,20.67,8,20.67,8a54.67,54.67,0,0,0-3.75,12.79,8.53,8.53,0,0,0,0,1.42,1.91,1.91,0,0,1,0,.24C221.44,193,220.56,202.87,215.58,203.39Z" style="fill: rgb(255, 196, 192);"></path><path d="M219.14,190.15a12.5,12.5,0,0,0,2.21.16v-.23a7.57,7.57,0,0,1,0-1.42,55.21,55.21,0,0,1,3.75-12.79s-16.7-7-20.08-7.9C205.2,172,206.59,188.24,219.14,190.15Z" style="fill:#263238"></path><path d="M201.56,141.49c-3.11,7.35-1.39,29.69,3.5,35.14,7.08,7.9,19.82,9.92,26.82,1.14,6.79-8.5,4-37.58-1.53-42.65C222.16,127.65,206.16,130.64,201.56,141.49Z" style="fill: rgb(255, 196, 192);"></path><path d="M206.15,179.19h0" style="fill:none;stroke:#f5a79e;stroke-linecap:round;stroke-linejoin:round;stroke-width:0px"></path><path d="M218.37,157.92s-.12.08-.11.14c.16,1.51.08,3.25-1.24,3.85-.05,0,0,.09,0,.08C218.68,161.64,218.75,159.32,218.37,157.92Z" style="fill:#263238"></path><path d="M216.91,156.45c-2.44,0-2.28,4.86,0,4.87S219,156.46,216.91,156.45Z" style="fill:#263238"></path><path d="M227.15,157.42c0-.06.12.06.12.13,0,1.51.26,3.24,1.64,3.69,0,0,0,.09,0,.09C227.23,161.15,226.91,158.85,227.15,157.42Z" style="fill:#263238"></path><path d="M228.45,155.8c2.42-.27,2.77,4.59.53,4.84S226.42,156,228.45,155.8Z" style="fill:#263238"></path><path d="M214.91,154.28a17.6,17.6,0,0,0,1.87-.72,3.26,3.26,0,0,0,1.76-1.1,1.05,1.05,0,0,0-.21-1.25,2.56,2.56,0,0,0-2.58-.17,3.7,3.7,0,0,0-2.11,1.69A1.1,1.1,0,0,0,214.91,154.28Z" style="fill:#263238"></path><path d="M230.25,153.28a18.3,18.3,0,0,1-1.95-.43,3.26,3.26,0,0,1-1.91-.83,1,1,0,0,1,0-1.26,2.55,2.55,0,0,1,2.53-.56,3.78,3.78,0,0,1,2.34,1.36A1.09,1.09,0,0,1,230.25,153.28Z" style="fill:#263238"></path><path d="M217.9,171.47c.38.34.75.82,1.3.84a3.94,3.94,0,0,0,1.61-.43.06.06,0,0,1,.07.08,2,2,0,0,1-1.89.88,1.62,1.62,0,0,1-1.23-1.3C217.73,171.46,217.85,171.42,217.9,171.47Z" style="fill:#263238"></path><path d="M219.34,166.9a5.12,5.12,0,0,0,3.5,2.17,6,6,0,0,0,1.85,0l.36,0,.32-.06a.39.39,0,0,0,.3-.35h0c0-.06,0-.1,0-.16h0v-.13c0-1.16-.18-2.92-.18-2.92.43.19,2.63,1.1,2.57.49-.46-5-1-10.59-2.5-15.48a.14.14,0,0,0-.27.05c.25,4.84,1.36,9.59,1.69,14.45a9.07,9.07,0,0,0-2.45-.66c-.16.05.39,3.4.36,3.92a.28.28,0,0,1,0,.06c-1.94.31-3.44-.23-5.37-1.48C219.36,166.68,219.25,166.79,219.34,166.9Z" style="fill:#263238"></path><path d="M224,168.53a6,6,0,0,1-2.38,2,2.67,2.67,0,0,1-1.66.16c-1.21-.28-1.28-1.38-1.09-2.33a6.36,6.36,0,0,1,.49-1.47A7.87,7.87,0,0,0,224,168.53Z" style="fill:#263238"></path><path d="M221.61,170.5a2.67,2.67,0,0,1-1.66.16c-1.21-.28-1.28-1.38-1.09-2.33A2.83,2.83,0,0,1,221.61,170.5Z" style="fill:#ff98b9"></path><path d="M200,156.58c1.5-.68,4.44-5.43,5.73-7.38s1.52-11.6,1.5-14.47a15.28,15.28,0,0,0-5.58,6.51C200.3,144.36,199.77,150.4,200,156.58Z" style="fill:#263238;opacity:0.2"></path><path d="M225.85,142.46a7.44,7.44,0,0,1-6.75,2.65,7.6,7.6,0,0,1-5.94-4.42c0-.07-.14,0-.11,0a7.54,7.54,0,0,0,6,5,7.69,7.69,0,0,0,7-3.14C226.06,142.48,225.93,142.36,225.85,142.46Z" style="fill:#263238"></path><path d="M217.79,124.22c-4.31.18-8.23,2.64-9.75,5.61a8.42,8.42,0,0,0-.71,5.46c0,.08.17.06.16,0a9.18,9.18,0,0,1,4.17-8.37,11.82,11.82,0,0,1,10.43-1.46,7.51,7.51,0,0,1,4.08,3.15c.09.16.41,0,.34-.11C225.29,125.81,221.7,124.06,217.79,124.22Z" style="fill:#263238"></path><path d="M243,133.1a9.47,9.47,0,0,0-4.15-5c-2.68-1.59-5.67-1.29-8.64-.93-.08,0-.06.13,0,.12,2.52-.3,5.1-.45,7.45.7a9.34,9.34,0,0,1,4.41,4.47,9.11,9.11,0,0,1-3.56,11.39,9.22,9.22,0,0,1-7.29.89c-.1,0-.16.11-.07.14A9.32,9.32,0,0,0,243,133.1Z" style="fill:#263238"></path><path d="M200.46,145.62s-4.22-7.66-.86-12.18c1.91-2.56,8.36-2.32,8.36-2.32a11.58,11.58,0,0,1,7.34-5c5.37-1.32,11.83,1.74,11.83,1.74s5.08-3,9.91-.33c6.75,3.72,6.06,13.92-.63,17.29-4.69,2.37-11.17-1.72-11.17-1.72-.62.09-6.88,4-11.74-1.58,0,0-3.84,3.51-7.36,1.14A5.62,5.62,0,0,1,200.46,145.62Z" style="fill:#263238"></path><path d="M204.24,160.29s-4.36-7.52-7.73-6-.51,12.11,3.15,13.83a3.86,3.86,0,0,0,5.33-1.63Z" style="fill: rgb(255, 196, 192);"></path><path d="M197.4,157.29a.05.05,0,0,0,0,.1c2.57,1.3,3.76,3.87,4.52,6.51a2.13,2.13,0,0,0-3.13-.85c-.07,0,0,.16.06.15a2.37,2.37,0,0,1,2.53,1,11.27,11.27,0,0,1,1.07,2.21c.11.25.55.16.48-.12a.14.14,0,0,0,0-.06C203.24,162.89,201,157.94,197.4,157.29Z" style="fill:#263238"></path><path d="M217.59,173.65a2.56,2.56,0,0,0,2.5.56,3,3,0,0,1-.91,2.1l.15-.78a5.35,5.35,0,0,1-1.5,2.17,3.14,3.14,0,0,1-.28-1.73l-.2.94A3.76,3.76,0,0,1,217.59,173.65Z" style="fill:#263238"></path><path d="M188.33,193.12c-14.31,11.8-57.71,59.33-55,74.91,2,11.58,14.76,15,25.76,10.17,9.56-4.23,31.82-55.33,37.91-69.69C202.82,194.84,202.38,181.53,188.33,193.12Z" style="fill: rgb(255, 196, 192);"></path><path d="M188.33,193.12c-14.31,11.8-57.71,59.33-55,74.91,2,11.58,14.76,15,25.76,10.17,9.56-4.23,31.82-55.33,37.91-69.69C202.82,194.84,202.38,181.53,188.33,193.12Z" style="fill:#CFD8DC"></path><path d="M157.83,258.91a11.91,11.91,0,0,0-1,3.31,12.07,12.07,0,0,0,1.84-2.94,12.27,12.27,0,0,0,1-3.31A12.11,12.11,0,0,0,157.83,258.91Zm21.65-37.71a12.27,12.27,0,0,0-1,3.31,12.11,12.11,0,0,0,1.85-2.94,12.37,12.37,0,0,0,1-3.31A12.07,12.07,0,0,0,179.48,221.2ZM136.9,255l-.06,0c-.14.27-.27.54-.4.8l.09,0a12,12,0,0,0,3.32,1A12.32,12.32,0,0,0,136.9,255Zm25.31-25.89a12.34,12.34,0,0,0-3.32-1,13.33,13.33,0,0,0,6.26,2.87A12.26,12.26,0,0,0,162.21,229.15Zm7.88-18.09-.63.68a10.83,10.83,0,0,0,1.17,2A10.65,10.65,0,0,0,170.09,211.06Zm-20.16,33.71a12.07,12.07,0,0,0-1.62-3.07,12.4,12.4,0,0,0,.78,3.39,12.07,12.07,0,0,0,1.62,3.07A12,12,0,0,0,149.93,244.77Zm24.25-2.88a12.13,12.13,0,0,0-3.08,1.62,12.69,12.69,0,0,0,3.39-.78,12.23,12.23,0,0,0,3.07-1.62A11.9,11.9,0,0,0,174.18,241.89Zm-29.46,30a12.4,12.4,0,0,0-3.07,1.62,12.4,12.4,0,0,0,3.39-.78,12.07,12.07,0,0,0,3.07-1.62A12.32,12.32,0,0,0,144.72,271.92Zm43.84-72.64a12.23,12.23,0,0,0-3.07,1.62,12.25,12.25,0,0,0,3.38-.78,11.91,11.91,0,0,0,3.07-1.62A11.9,11.9,0,0,0,188.56,199.28Z" style="fill:#fff"></path><path d="M195.81,212.53a.08.08,0,0,0-.15-.06c-1.57,3.62-3.17,7.23-4.84,10.81s-3.27,7.2-4.94,10.78q-5,10.71-10.65,21.09c-1,1.94-2.13,3.86-3.2,5.79s-2.24,3.85-3.27,5.83c0,.05.06.11.09.05,1.17-1.6,2.21-3.3,3.26-5s2.07-3.34,3.06-5c2-3.39,3.94-6.8,5.79-10.27s3.67-7.07,5.4-10.66c1.4-2.91,2.77-5.84,4-8.82.28-.41.56-.81.83-1.23.55-.84,1.08-1.69,1.62-2.54,1-1.67,2-3.4,3-5.1.06-.1-.12-.21-.18-.11-1.06,1.66-2.19,3.28-3.21,5l-1.27,2.12v0C192.85,221,194.38,216.78,195.81,212.53Z" style="fill:#263238"></path><path d="M221.75,191.71c.59.08,3.38,2.37,3.38,2.37-.27-3.26,13,69.87,16.7,103.61.47,4.26,5.46,41,5.46,41H154s8.74-57.17,8.74-58.14c0,0-11.14-1-11-1.3s1.85-7.87,1.85-7.87l10.78-1.29s33.43-46.31,34.5-51.26-3.09-33-2.91-33,3.59-.44,3.59-.44,7.11,27.7,7.26,27.7l15.63.4Z" style="fill:#ebebeb"></path><path d="M141.12,277.85c-12.93-5-6.55-20.23,2-24.74,20.15-10.59,52.54-19.54,71.72-21.79,6.58-.77,22.55,32.45,16.1,35.37C219.52,271.88,167.37,288.08,141.12,277.85Z" style="fill: rgb(255, 196, 192);"></path><path d="M205.05,234.55s3.1-1.37,14.31-6.45c12-5.47,30.84-6.56,43.92-3.82,9.25,1.94,8.21,10.29-2,10.1a62.86,62.86,0,0,0-13.11.76s5.61,11.58,2.18,16.56a111.16,111.16,0,0,1-9.88,12.37,23.46,23.46,0,0,1-2.48-1.64,12.72,12.72,0,0,1-12.86,4.23Z" style="fill: rgb(255, 196, 192);"></path><path d="M226.16,226.54c4.33,1.08,13.33,2.64,20.12,7.23,7.53,5.1,20.67,17,16.85,22.48-2.8,4.05-8.22,0-8.22,0s4.4,6,1.07,9.15c-3,2.83-7-.58-7-.58s2,4.12-1.41,6.28c-4.15,2.61-7.74-6.47-14.22-7.47C231.86,263.38,226.16,226.54,226.16,226.54Z" style="fill: rgb(255, 196, 192);"></path><path d="M239.56,240.83c3.9,1.68,11.8,7.78,15.37,15.2.08.17,0,.32-.11.18a88.92,88.92,0,0,0-15.31-15.3S239.51,240.82,239.56,240.83Z" style="fill:#263238"></path><path d="M234.63,248.59c3.22,1.8,11.08,8.44,14.44,16.09.07.17,0,.31-.12.17a96.29,96.29,0,0,0-14.37-16.19S234.59,248.57,234.63,248.59Z" style="fill:#263238"></path><path d="M201.34,229.56l4.52,25L215,275.79s-73.33,15.38-80.51-3.51c-2.42-6.38-.55-17.34,12.86-24.44S201.34,229.56,201.34,229.56Z" style="fill:#CFD8DC"></path><path d="M144.72,271.92a12.4,12.4,0,0,0-3.07,1.62,12.4,12.4,0,0,0,3.39-.78,12.07,12.07,0,0,0,3.07-1.62A12.32,12.32,0,0,0,144.72,271.92Zm53.44-1.2a12.23,12.23,0,0,0-3.07,1.62,13.3,13.3,0,0,0,6.45-2.39A12.24,12.24,0,0,0,198.16,270.72Zm-24-28.83a12.13,12.13,0,0,0-3.08,1.62,12.69,12.69,0,0,0,3.39-.78,12.23,12.23,0,0,0,3.07-1.62A11.9,11.9,0,0,0,174.18,241.89Zm-2.64,29.93a12.19,12.19,0,0,0-1.61-3.07,13.3,13.3,0,0,0,2.39,6.45A12,12,0,0,0,171.54,271.82Zm-21.11-25.45-.65.3a9.44,9.44,0,0,0,.93,1.49A10.44,10.44,0,0,0,150.43,246.37Zm35.34,10.92a11.93,11.93,0,0,0-3.31-1,11.78,11.78,0,0,0,2.94,1.84,12.34,12.34,0,0,0,3.32,1A12,12,0,0,0,185.77,257.29Zm-47.91-1.76a7.76,7.76,0,0,0-.5.67,10.77,10.77,0,0,0,2.49.68A10.42,10.42,0,0,0,137.86,255.53Zm20,3.38a11.91,11.91,0,0,0-1,3.31,12.07,12.07,0,0,0,1.84-2.94,12.27,12.27,0,0,0,1-3.31A12.11,12.11,0,0,0,157.83,258.91Zm37.44-19.56a11.91,11.91,0,0,0-1,3.31,12.07,12.07,0,0,0,1.84-2.94,12.34,12.34,0,0,0,1-3.32A12.36,12.36,0,0,0,195.27,239.35Z" style="fill:#fff"></path><path d="M201.77,230c-1.6.29-3.21.5-4.81.83s-3.13.64-4.68,1c-3.13.73-6.25,1.59-9.33,2.49a190.14,190.14,0,0,0-18,6.31c-2.42.35-4.81.93-7.2,1.38-.07,0,0,.12,0,.11,2-.35,4-.61,6-1-1.36.57-2.72,1.13-4.06,1.73-1.64.71-3.21,1.55-4.82,2.3-.06,0,0,.13,0,.1,1.46-.61,3-1.13,4.45-1.69s3-1.17,4.54-1.74q4.52-1.68,9.08-3.22c6.07-2,12.2-3.93,18.39-5.53,1.74-.45,3.46-.94,5.2-1.39s3.5-1,5.27-1.4C202.06,230.26,202,230,201.77,230Z" style="fill:#263238"></path><path d="M213.12,276c-3.11.53-6.24.94-9.36,1.43s-6.3,1-9.46,1.36c-6.34.8-12.71,1.33-19.08,1.93-3.69.34-16.26.55-20.47.57a.08.08,0,1,0,0,.15c1.69.21,5.19.54,19.25.15,3.25-.09,6.5-.38,9.75-.62a189.94,189.94,0,0,0,19-2.35c3.52-.62,7-1.48,10.42-2.39C213.34,276.23,213.27,276,213.12,276Z" style="fill:#263238"></path><path d="M204.73,228c-.21-.17-12.75,3.88-12.75,3.88s.57,24.94,1.88,27.26,10.91,20.11,11.21,20.23,16.08-3.45,16.13-4-9.64-20.08-10.41-21.56S204.73,228,204.73,228Z" style="fill:#CFD8DC"></path><path d="M204.65,228c-.22-.17-12.74,3.92-12.74,3.92s.64,24.94,2,27.25,11,20.08,11.27,20.2,16.08-3.5,16.13-4.06-9.71-20-10.48-21.53S204.65,228,204.65,228Z" style="opacity:0.2"></path><path d="M190.67,346.11c0,.26.09.53.15.8l-.15-.8Z" style="fill:#ebebeb"></path></g></svg>