<svg width="700" height="700" viewBox="0 0 700 700" fill="none" xmlns="http://www.w3.org/2000/svg">
<g clip-path="url(#clip0_496_6018)">
<path d="M514.73 288.85C503.5 331.24 469.27 449.42 437.13 446.91C397.99 443.86 446.46 266.61 446.46 266.61C446.46 266.61 485.46 110.71 524.68 112.05C563.9 113.39 514.73 288.85 514.73 288.85Z" stroke="#070707" stroke-width="4" stroke-linecap="round" stroke-linejoin="round"/>
<path d="M468.644 367.764C468.757 365.198 462.532 362.843 454.741 362.503C446.95 362.162 440.543 363.966 440.431 366.532C440.319 369.098 446.544 371.453 454.335 371.794C462.126 372.134 468.532 370.33 468.644 367.764Z" stroke="#070707" stroke-width="4" stroke-linecap="round" stroke-linejoin="round"/>
<path d="M510.49 176.44C518.288 176.44 524.61 174.358 524.61 171.79C524.61 169.222 518.288 167.14 510.49 167.14C502.692 167.14 496.37 169.222 496.37 171.79C496.37 174.358 502.692 176.44 510.49 176.44Z" stroke="#070707" stroke-width="4" stroke-linecap="round" stroke-linejoin="round"/>
<path d="M500.509 217.529C510.903 217.529 519.329 214.758 519.329 211.339C519.329 207.921 510.903 205.149 500.509 205.149C490.115 205.149 481.689 207.921 481.689 211.339C481.689 214.758 490.115 217.529 500.509 217.529Z" stroke="#070707" stroke-width="4" stroke-linecap="round" stroke-linejoin="round"/>
<path d="M484.359 258.969C496.029 258.969 505.489 255.858 505.489 252.019C505.489 248.181 496.029 245.069 484.359 245.069C472.69 245.069 463.229 248.181 463.229 252.019C463.229 255.858 472.69 258.969 484.359 258.969Z" stroke="#070707" stroke-width="4" stroke-linecap="round" stroke-linejoin="round"/>
<path d="M484.324 331.164C484.473 327.748 476.176 324.612 465.792 324.159C455.408 323.705 446.869 326.107 446.72 329.522C446.571 332.937 454.868 336.074 465.252 336.527C475.636 336.98 484.175 334.579 484.324 331.164Z" stroke="#070707" stroke-width="4" stroke-linecap="round" stroke-linejoin="round"/>
<path d="M492.509 299.118C492.677 295.283 483.361 291.762 471.703 291.253C460.044 290.744 450.457 293.44 450.289 297.274C450.122 301.109 459.438 304.63 471.096 305.139C482.755 305.648 492.342 302.952 492.509 299.118Z" stroke="#070707" stroke-width="4" stroke-linecap="round" stroke-linejoin="round"/>
<path d="M304.72 251.31C304.72 251.31 312.56 240.91 300.6 230.08L304.7 228.59C315.63 235.77 316.56 246.47 316.56 246.47L304.72 251.31Z" stroke="#070707" stroke-width="4" stroke-linecap="round" stroke-linejoin="round"/>
<path d="M320.299 341.16C315.45 342.927 310.119 342.84 305.331 340.914C300.543 338.989 296.635 335.362 294.359 330.73L270.619 287.86C265.129 276.7 272.819 262.41 284.499 258.16L284.829 258.03C290.041 256.132 295.793 256.382 300.82 258.724C305.847 261.067 309.739 265.309 311.639 270.52L332.779 314.34C334.68 319.551 334.433 325.304 332.093 330.334C329.753 335.363 325.51 339.257 320.299 341.16V341.16Z" fill="#EFAF00" stroke="black" stroke-width="4" stroke-linecap="round" stroke-linejoin="round"/>
<path d="M361.389 326.169C366.236 324.401 370.258 320.905 372.684 316.351C375.109 311.797 375.766 306.508 374.529 301.499L365.529 253.239C362.529 241.169 347.009 235.349 335.329 239.609L334.999 239.729C329.789 241.63 325.546 245.521 323.204 250.549C320.862 255.576 320.612 261.328 322.509 266.539L334.509 313.689C335.45 316.278 336.892 318.654 338.753 320.684C340.615 322.713 342.859 324.354 345.356 325.514C347.854 326.673 350.556 327.328 353.307 327.441C356.059 327.553 358.805 327.121 361.389 326.169V326.169Z" fill="#EFAF00" stroke="black" stroke-width="4" stroke-linecap="round" stroke-linejoin="round"/>
<path d="M342.249 336.37C340.068 337.166 337.751 337.524 335.432 337.425C333.112 337.326 330.834 336.77 328.729 335.79C326.624 334.811 324.733 333.426 323.163 331.715C321.593 330.005 320.375 328.001 319.579 325.82L299.249 270.06C297.642 265.653 297.85 260.789 299.828 256.535C301.807 252.282 305.393 248.989 309.799 247.38C311.982 246.584 314.3 246.226 316.621 246.326C318.942 246.426 321.22 246.982 323.326 247.963C325.433 248.943 327.325 250.329 328.895 252.041C330.466 253.753 331.684 255.757 332.479 257.94L352.809 313.7C353.606 315.882 353.965 318.199 353.866 320.52C353.767 322.841 353.21 325.119 352.23 327.224C351.249 329.33 349.863 331.222 348.15 332.791C346.438 334.36 344.432 335.576 342.249 336.37V336.37Z" fill="#EFAF00" stroke="black" stroke-width="4" stroke-linecap="round" stroke-linejoin="round"/>
<path d="M247.609 291.199C247.609 291.199 216.059 231.779 123.229 280.389" stroke="#070707" stroke-width="4" stroke-linecap="round" stroke-linejoin="round"/>
<path d="M164.71 264.189C164.71 264.189 145.57 269.189 145.57 274.189C145.57 279.189 155.14 276.459 155.14 276.459C155.14 276.459 141.26 283.309 141.74 287.879C142.22 292.449 152.03 287.879 152.03 287.879C152.03 287.879 145.37 301.769 150.61 303.369C155.85 304.969 156.09 294.129 156.09 294.129C156.09 294.129 162.79 299.409 164.71 297.529C166.63 295.649 160.16 282.589 160.16 282.589C160.16 282.589 166.38 290.769 170.21 287.879C174.04 284.989 163 272.179 164.71 264.189Z" stroke="#070707" stroke-width="4" stroke-linecap="round" stroke-linejoin="round"/>
<path d="M131.56 276.239C131.56 276.239 114.02 271.499 111.39 276.239C108.76 280.979 117.18 278.929 117.18 278.929C117.18 278.929 101.18 286.2 102.45 291.2C103.72 296.2 112.18 291.2 112.18 291.2C112.18 291.2 110.71 303.149 116.97 300.849C123.23 298.549 122 282.329 131.56 276.239Z" stroke="#070707" stroke-width="4" stroke-linecap="round" stroke-linejoin="round"/>
<path d="M228.07 229.27C228.07 229.27 242.16 222.61 241.61 218.27C241.06 213.93 236.41 219.79 236.41 219.79C236.41 219.79 243.65 206.7 240.32 204.39C236.99 202.08 233.79 209.67 233.79 209.67C233.79 209.67 228.95 201.67 225.87 206.45C222.79 211.23 231.51 220.41 228.07 229.27Z" stroke="#070707" stroke-width="4" stroke-linecap="round" stroke-linejoin="round"/>
<path d="M252.81 291.2C252.81 291.2 237.37 233.25 169.72 236.76" stroke="#070707" stroke-width="4" stroke-linecap="round" stroke-linejoin="round"/>
<path d="M173.4 236C173.4 236 165.78 255.77 158.17 251.87C150.56 247.97 161.39 244.45 161.39 244.45C161.39 244.45 139.14 250 140 242.1C140.86 234.2 156.67 237.29 156.67 237.29C156.67 237.29 148.26 232.57 156.67 230.52C165.08 228.47 173.4 236 173.4 236Z" stroke="#070707" stroke-width="4" stroke-linecap="round" stroke-linejoin="round"/>
<path d="M211.269 243.8C211.269 243.8 208.919 224.47 200.889 224.47C192.859 224.47 202.519 236.61 202.519 236.61C202.519 236.61 192.859 228.61 191.099 234.13C189.339 239.65 200.889 242.37 200.889 242.37C200.889 242.37 193.439 251.75 199.009 251.28C204.579 250.81 211.269 243.8 211.269 243.8Z" stroke="#070707" stroke-width="4" stroke-linecap="round" stroke-linejoin="round"/>
<path d="M210.109 264.11C210.109 264.11 191.539 258.23 188.209 265.54C184.879 272.85 199.939 269.09 199.939 269.09C199.939 269.09 188.619 274.55 192.939 278.45C197.259 282.35 204.499 273 204.499 273C204.499 273 209.939 283.66 211.829 278.41C213.719 273.16 210.109 264.11 210.109 264.11Z" stroke="#070707" stroke-width="4" stroke-linecap="round" stroke-linejoin="round"/>
<path d="M224 245.12C224 245.12 239.44 236.34 236.57 232.06C233.7 227.78 224.32 238.79 224.32 238.79C224.32 238.79 221.05 226.57 217.15 228.51C213.25 230.45 224 245.12 224 245.12Z" stroke="#070707" stroke-width="4" stroke-linecap="round" stroke-linejoin="round"/>
<path d="M236.929 290.48C236.929 290.48 211.879 241.88 231.739 223.75" stroke="#070707" stroke-width="4" stroke-linecap="round" stroke-linejoin="round"/>
<path d="M360.25 157C360.25 157 381.6 194.56 374 346.31L389.06 346.79C389.06 346.79 394.07 204 360.25 157Z" stroke="#070707" stroke-width="4" stroke-linecap="round" stroke-linejoin="round"/>
<path d="M374 346.31C374 346.31 402.89 151.19 382.5 103C382.5 103 414.23 151.26 389.09 346.75L374 346.31Z" stroke="#070707" stroke-width="4" stroke-linecap="round" stroke-linejoin="round"/>
<path d="M374 346.31C382.71 276.24 444.8 185 444.8 185C444.8 185 395.18 295.34 389.09 346.76L374 346.31Z" stroke="#070707" stroke-width="4" stroke-linecap="round" stroke-linejoin="round"/>
<path d="M367.54 401.88C367.54 401.88 372.15 375.14 374.03 346.31C374.03 346.31 382.03 339.73 389.09 346.79C387.622 366.733 387.856 386.766 389.79 406.67L367.54 401.88Z" stroke="#070707" stroke-width="4" stroke-linecap="round" stroke-linejoin="round"/>
<path d="M389.67 408.276C390.695 404.692 386.57 400.37 380.458 398.623C374.346 396.876 368.561 398.366 367.537 401.95C366.512 405.535 370.636 409.857 376.749 411.603C382.861 413.35 388.646 411.861 389.67 408.276Z" stroke="#070707" stroke-width="4" stroke-linecap="round" stroke-linejoin="round"/>
<path d="M387.42 407.52V407.58C387.01 409.04 385.7 410.12 383.74 410.58C381.672 411.045 379.517 410.963 377.49 410.34C372.78 409 369.74 405.68 370.49 402.78V402.72C370.9 401.26 372.21 400.18 374.17 399.72C376.243 399.256 378.4 399.338 380.43 399.96C385.15 401.3 388.2 404.62 387.42 407.52ZM371.75 403.15C371.18 405.29 373.95 408.02 377.82 409.15C379.628 409.714 381.552 409.793 383.4 409.38C384.005 409.298 384.578 409.058 385.061 408.684C385.543 408.31 385.919 407.816 386.15 407.25V407.25C386.73 405.11 383.96 402.38 380.08 401.25C378.273 400.687 376.348 400.607 374.5 401.02C373.895 401.103 373.323 401.343 372.84 401.717C372.358 402.091 371.982 402.585 371.75 403.15V403.15Z" stroke="#070707" stroke-width="4" stroke-linecap="round" stroke-linejoin="round"/>
<path d="M382.83 406.26C382.41 407.73 380.31 408.38 378.04 407.73C375.77 407.08 374.35 405.44 374.74 403.98C375.16 402.5 377.26 401.85 379.53 402.5C381.78 403.15 383.22 404.79 382.83 406.26ZM376 404.34C375.83 404.99 376.81 406.06 378.41 406.51C380.01 406.96 381.41 406.58 381.59 405.93C381.76 405.28 380.77 404.22 379.18 403.76C377.58 403.31 376.18 403.69 376 404.34Z" stroke="#070707" stroke-width="4" stroke-linecap="round" stroke-linejoin="round"/>
<path d="M538.53 290.48L501.289 574.34H484.799L442.229 290.48H538.53Z" stroke="#070707" stroke-width="4" stroke-linecap="round" stroke-linejoin="round"/>
<path d="M549.05 299.66L512.46 575.76H495.97L454.06 299.66H549.05Z" fill="#F7F3EF" stroke="#070707" stroke-width="4" stroke-linecap="round" stroke-linejoin="round"/>
<path d="M539.6 290.48L502.35 574.34H485.86L443.3 290.48H539.6Z" fill="#F7F3EF" stroke="#070707" stroke-width="4" stroke-linecap="round" stroke-linejoin="round"/>
<path d="M485.859 574.34H254.02L216.77 290.48H443.3L485.859 574.34Z" fill="#F7F3EF" stroke="#070707" stroke-width="4" stroke-linecap="round" stroke-linejoin="round"/>
<path d="M257.999 474.32C257.999 474.32 271.709 468.54 266.229 450.74L271.179 451.68C273.123 455.588 274.228 459.86 274.422 464.221C274.617 468.581 273.897 472.934 272.309 477L257.999 474.32Z" fill="#1C0E0C"/>
<path d="M220.279 572.59C214.424 571.486 209.184 568.255 205.568 563.52C201.951 558.785 200.214 552.879 200.689 546.94L202.409 490.39C203.549 476.08 219.599 466.44 233.699 469.1L234.109 469.18C237.225 469.767 240.194 470.962 242.848 472.698C245.501 474.433 247.786 476.674 249.573 479.293C251.36 481.912 252.613 484.857 253.261 487.961C253.909 491.064 253.939 494.265 253.349 497.38L248.479 553.38C247.284 559.665 243.643 565.219 238.355 568.821C233.067 572.423 226.566 573.779 220.279 572.59V572.59Z" fill="#1C0E0C"/>
<path d="M269.89 582C275.744 583.104 281.799 582.005 286.891 578.915C291.984 575.825 295.755 570.962 297.48 565.26L317.05 512C321.2 498.26 309.22 483.33 295.12 480.67L294.72 480.59C288.427 479.405 281.92 480.767 276.63 484.377C271.341 487.986 267.701 493.548 266.51 499.84L250.65 553.72C250.05 556.841 250.072 560.05 250.715 563.162C251.358 566.274 252.609 569.228 254.397 571.856C256.185 574.483 258.473 576.732 261.132 578.473C263.791 580.214 266.767 581.412 269.89 582V582Z" fill="#1C0E0C"/>
<path d="M244.89 580.79C239.568 579.786 234.864 576.709 231.811 572.237C228.757 567.764 227.606 562.262 228.61 556.94L241.32 489.61C241.817 486.975 242.828 484.465 244.296 482.221C245.764 479.977 247.659 478.045 249.874 476.534C252.089 475.023 254.58 473.963 257.204 473.415C259.829 472.867 262.535 472.842 265.17 473.34V473.34C270.491 474.344 275.196 477.421 278.249 481.894C281.302 486.366 282.453 491.869 281.45 497.19L268.74 564.52C268.243 567.155 267.231 569.666 265.763 571.909C264.296 574.153 262.4 576.085 260.185 577.596C257.971 579.107 255.48 580.167 252.855 580.715C250.231 581.263 247.524 581.288 244.89 580.79V580.79Z" fill="#1C0E0C"/>
<path d="M245.76 466.43C245.76 466.43 259.47 460.65 253.99 442.85L258.94 443.79C260.885 447.699 261.99 451.973 262.183 456.336C262.376 460.699 261.653 465.053 260.06 469.12L245.76 466.43Z" stroke="#070707" stroke-width="4" stroke-linecap="round" stroke-linejoin="round"/>
<path d="M208 564.699C202.145 563.595 196.905 560.365 193.288 555.629C189.672 550.894 187.934 544.989 188.41 539.049L190.13 482.499C191.27 468.189 207.32 458.549 221.42 461.209L221.82 461.289C224.937 461.875 227.907 463.07 230.561 464.805C233.216 466.539 235.502 468.78 237.29 471.399C239.078 474.018 240.332 476.964 240.981 480.068C241.629 483.172 241.66 486.373 241.07 489.489L236.2 545.489C235.002 551.773 231.36 557.325 226.073 560.927C220.786 564.528 214.286 565.885 208 564.699V564.699Z" fill="#EA631F" stroke="#070707" stroke-width="4" stroke-linecap="round" stroke-linejoin="round"/>
<path d="M257.64 574.06C263.494 575.166 269.55 574.068 274.644 570.977C279.737 567.887 283.508 563.023 285.23 557.32L304.8 504.14C308.95 490.4 296.97 475.47 282.87 472.81L282.47 472.73C279.353 472.14 276.149 472.171 273.043 472.821C269.938 473.471 266.991 474.726 264.37 476.516C261.75 478.306 259.509 480.595 257.774 483.252C256.039 485.908 254.845 488.881 254.26 492L238.4 545.86C237.811 548.975 237.841 552.175 238.489 555.279C239.137 558.382 240.39 561.328 242.177 563.947C243.964 566.565 246.249 568.807 248.902 570.542C251.556 572.277 254.525 573.472 257.64 574.06V574.06Z" fill="#EA631F" stroke="#070707" stroke-width="4" stroke-linecap="round" stroke-linejoin="round"/>
<path d="M232.641 572.9C227.319 571.896 222.615 568.819 219.561 564.346C216.508 559.873 215.357 554.371 216.361 549.05L229.071 481.72C230.075 476.398 233.152 471.694 237.624 468.641C242.097 465.588 247.599 464.436 252.921 465.44C258.242 466.449 262.945 469.528 265.997 474.002C269.049 478.475 270.202 483.977 269.201 489.3L256.491 556.63C255.993 559.264 254.982 561.775 253.514 564.019C252.047 566.262 250.151 568.195 247.936 569.706C245.722 571.217 243.231 572.277 240.606 572.825C237.982 573.373 235.275 573.398 232.641 572.9V572.9Z" fill="#EA631F" stroke="#070707" stroke-width="4" stroke-linecap="round" stroke-linejoin="round"/>
</g>
<defs>
<clipPath id="clip0_496_6018">
<rect width="700" height="700" fill="white"/>
</clipPath>
</defs>
</svg>
