<svg width="700" height="700" viewBox="0 0 700 700" fill="none" xmlns="http://www.w3.org/2000/svg">
<g clip-path="url(#clip0_496_5913)">
<path d="M282 219.67C298.154 219.67 313.647 226.087 325.07 237.51C336.493 248.933 342.91 264.426 342.91 280.58V575.66C342.91 582.232 340.299 588.535 335.652 593.182C331.005 597.829 324.702 600.44 318.13 600.44H245.83C242.572 600.447 239.344 599.81 236.332 598.568C233.32 597.326 230.582 595.502 228.276 593.2C225.969 590.898 224.139 588.164 222.891 585.154C221.643 582.145 221 578.918 221 575.66V280.58C221 272.574 222.578 264.646 225.645 257.25C228.712 249.854 233.206 243.135 238.872 237.478C244.537 231.821 251.263 227.336 258.663 224.281C266.063 221.225 273.994 219.658 282 219.67V219.67Z" stroke="#070707" stroke-width="4" stroke-linecap="round" stroke-linejoin="round"/>
<path d="M342.87 287.3V572.93C342.87 588.12 331.77 600.44 318.09 600.44H245.83C232.14 600.44 221.05 588.12 221.05 572.93V287.3C221.05 256.98 239.05 231.3 263.78 222.74V124.84C263.78 119.34 267.78 114.84 272.78 114.84H291.18C296.18 114.84 300.18 119.31 300.18 124.84V222.74C309.736 226.136 318.275 231.899 325 239.49C336.653 252.675 343.018 269.704 342.87 287.3Z" stroke="#070707" stroke-width="4" stroke-linecap="round" stroke-linejoin="round"/>
<path d="M230.15 566.07V287.68H333.77V566.07C333.77 578.63 324.98 588.82 314.14 588.82H249.77C238.94 588.82 230.15 578.63 230.15 566.07Z" stroke="#070707" stroke-width="4" stroke-linecap="round" stroke-linejoin="round"/>
<path d="M342.87 287.3V572.93C342.911 576.777 342.18 580.593 340.722 584.154C339.264 587.714 337.108 590.946 334.38 593.66C327.86 599.98 317.64 597.16 314.21 588.35L312.13 583C306.93 569.64 295.07 561 281.96 561C268.85 561 256.96 569.65 251.79 583L249.72 588.34C246.29 597.15 236.07 599.97 229.55 593.66C226.82 590.946 224.661 587.712 223.201 584.15C221.741 580.588 221.01 576.769 221.05 572.92V287.3C221.05 256.98 239.05 231.3 263.78 222.74V124.84C263.78 119.34 267.78 114.84 272.78 114.84H291.18C296.18 114.84 300.18 119.31 300.18 124.84V222.74C309.736 226.136 318.275 231.899 325 239.49C336.653 252.675 343.018 269.704 342.87 287.3Z" fill="#E57B07" stroke="#070707" stroke-width="4" stroke-linecap="round" stroke-linejoin="round"/>
<path d="M317.18 334.2H246.75V480.57H317.18V334.2Z" stroke="#070707" stroke-width="4" stroke-linecap="round" stroke-linejoin="round"/>
<path d="M272.31 112.72H291.62C294.389 112.72 297.044 113.82 299.002 115.778C300.96 117.735 302.06 120.391 302.06 123.16V156.56H261.86V123.16C261.86 121.788 262.13 120.429 262.656 119.162C263.181 117.895 263.951 116.744 264.921 115.774C265.892 114.804 267.044 114.036 268.312 113.512C269.579 112.987 270.938 112.718 272.31 112.72Z" stroke="#070707" stroke-width="4" stroke-linecap="round" stroke-linejoin="round"/>
<path d="M452.77 455.489C441.99 455.489 433.25 465.189 433.25 477.159V563.159C433.25 573.689 439.32 583.029 448.32 586.359L468.32 593.739C469.91 594.319 469.53 596.939 467.85 596.939H391.92C390.24 596.939 389.86 594.319 391.46 593.739L411.46 586.359C420.46 583.029 426.53 573.689 426.53 563.159V477.159C426.53 465.159 417.79 455.489 407.02 455.489H452.8H452.77Z" stroke="#070707" stroke-width="4" stroke-linecap="round" stroke-linejoin="round"/>
<path d="M454.19 455.49H405.56C390.42 455.49 378.56 441.03 379.96 424.29L389.75 307.93H470L479.79 424.29C481.19 441 469.33 455.49 454.19 455.49Z" stroke="#070707" stroke-width="4" stroke-linecap="round" stroke-linejoin="round"/>
<path d="M449.68 445.94H410.07C397.74 445.94 388.07 434.17 389.22 420.53L391.88 389H467.88L470.53 420.51C471.67 434.17 462 445.94 449.68 445.94Z" fill="#E57B07" stroke="#070707" stroke-width="4" stroke-linecap="round" stroke-linejoin="round"/>
<path d="M493.83 290.28C517.838 290.28 537.3 270.818 537.3 246.81C537.3 222.802 517.838 203.34 493.83 203.34C469.822 203.34 450.36 222.802 450.36 246.81C450.36 270.818 469.822 290.28 493.83 290.28Z" fill="#EFAF00"/>
<path d="M493.83 290.28C517.838 290.28 537.3 270.818 537.3 246.81C537.3 222.802 517.838 203.34 493.83 203.34C469.822 203.34 450.36 222.802 450.36 246.81C450.36 270.818 469.822 290.28 493.83 290.28Z" stroke="black" stroke-width="4" stroke-linecap="round" stroke-linejoin="round"/>
</g>
<defs>
<clipPath id="clip0_496_5913">
<rect width="700" height="700" fill="white"/>
</clipPath>
</defs>
</svg>
