<svg width="2000" height="1562" viewBox="0 0 2000 1562" fill="none" xmlns="http://www.w3.org/2000/svg">
<g clip-path="url(#clip0_512_6309)">
<path d="M1186.66 1123.09C1178.97 1236.99 1160.82 1322.8 1162.6 1341.64C1162.6 1341.64 1198.4 1482.8 1182.38 1638.87C1182.38 1638.87 1119.11 1645.42 1092.2 1638.87C1092.2 1638.87 1089.61 1621.37 1084.53 1595.13C1074.78 1544.73 1065.79 1462.07 1055.19 1409.02C1051.67 1391.44 1037.6 1323.08 1023.96 1249.35C1004.03 1299.82 985.36 1332.46 969.09 1376.75C969.09 1376.75 971.88 1547.93 907.35 1643.24L805.47 1636.85C805.47 1636.85 834.36 1501 847.8 1382.44L934 874.61H1087.91C1087.91 874.61 1195.7 964.87 1186.66 1123.09Z" fill="#F7F3EF" stroke="#070707" stroke-width="4" stroke-linecap="round" stroke-linejoin="round"/>
<path d="M1023.17 1254.87L1002.87 1104.07" stroke="#070707" stroke-width="4" stroke-linecap="round" stroke-linejoin="round"/>
<path d="M1067.65 590.87C1089.02 596.13 1142.9 609.94 1158.65 633.39C1179.17 663.89 1212.94 810.77 1212.94 810.77L1154.05 793.41C1154.05 793.41 1116.29 725 1113.74 725C1111.19 725 1087.89 874.62 1087.89 874.62H934L921.22 799C921.22 799 888.53 772.44 890.58 756.1C892.63 739.76 893.24 735 893.24 735C893.24 735 875.75 741.43 827.75 788.92L771.59 764.3C771.59 764.3 858.41 641.55 883.43 626.83C908.45 612.11 938.07 609.06 938.07 609.06L1067.65 590.87Z" fill="#F7F3EF" stroke="#070707" stroke-width="4" stroke-linecap="round" stroke-linejoin="round"/>
<path d="M993.55 489.341C993.55 489.341 1012.78 566.841 1076.55 593.811C1076.55 593.811 1029.97 626.071 931.98 614.101C931.98 614.101 966.74 574.551 960.17 530.641L993.55 489.341Z" fill="#FCBE9F" stroke="#070707" stroke-width="4" stroke-linecap="round" stroke-linejoin="round"/>
<path d="M951 599.88C948.337 599.971 945.69 599.437 943.271 598.32C952.771 582.78 964.271 557.53 960.271 530.64L992.48 490.73C993.79 492.53 994.48 493.63 994.48 493.63C998.94 507.61 1001.62 597.68 951 599.88Z" fill="#1C0E0C"/>
<path d="M993.55 489.34C998.08 503.34 991.84 570.01 954.85 574.55C927.04 577.96 896.26 522.11 892.27 509.55C888.28 496.99 893.16 467 922.91 458C962.79 445.9 993.55 489.34 993.55 489.34Z" fill="#FCBE9F" stroke="#070707" stroke-width="4" stroke-linecap="round" stroke-linejoin="round"/>
<path d="M907.53 474.58C907.53 474.58 935 497.88 993.53 489.34C993.53 489.34 1010.62 568.11 1076.53 593.81C1076.53 593.81 1119.09 545.58 1090.47 512.41C1072.3 491.41 1031.47 509.85 1031.47 509.85C1031.47 509.85 1067.79 418.39 977.63 417.96C887.47 417.53 868.11 513.26 895.19 516.81C895.3 516.81 882 489.34 907.53 474.58Z" fill="#1C0E0C"/>
<path d="M1094.82 504.25C1063.63 480.51 1029.82 510.25 1029.82 510.25" stroke="#070707" stroke-width="4" stroke-linecap="round" stroke-linejoin="round"/>
<path d="M906.67 473.73C906.67 473.73 922.02 508.2 980.57 499.66" stroke="#070707" stroke-width="4" stroke-linecap="round" stroke-linejoin="round"/>
<path d="M884.15 497.33C884.15 497.33 875.2 463.7 884.6 447.89C894 432.08 936.72 400.46 967.06 398.33C997.4 396.2 1063.63 432.94 1063.63 432.94C1063.63 432.94 1008.18 435.73 998.09 504.19C998.09 504.19 972.78 447.11 927.66 456.81C882.54 466.51 884.15 497.33 884.15 497.33Z" fill="#EFAF00" stroke="black" stroke-width="4" stroke-linecap="round" stroke-linejoin="round"/>
<path d="M1050.42 581C1050.42 581 1031 634.86 1029 674.3C1029 674.3 960.93 683.94 945.2 675.3C935.41 669.91 947.89 595.39 947.89 595.39L924.38 611.47C924.38 611.47 895.9 713.85 893.24 735C890.58 756.15 882.41 768.91 921.24 799L934 874.6L892.38 1087.4C892.38 1087.4 1051.97 1098.79 1108.65 1083.98C1165.33 1069.17 1087.91 874.6 1087.91 874.6L1099.41 802.68C1099.41 802.68 1034.61 742.34 1067.67 590.87L1050.42 581Z" fill="#EFAF00" stroke="black" stroke-width="4" stroke-linecap="round" stroke-linejoin="round"/>
<path d="M1154.43 827.66C1149.96 825.83 1136.53 784.66 1168.87 775.77C1211.29 764.17 1219.75 786.1 1218.62 804.24C1216.46 839.2 1194.25 844 1154.43 827.66Z" fill="#F7F3EF" stroke="#070707" stroke-width="4" stroke-linecap="round" stroke-linejoin="round"/>
<path d="M995.11 867.25L994.65 867.01C994.242 866.796 993.879 866.504 993.584 866.15C993.288 865.796 993.065 865.387 992.928 864.947C992.791 864.506 992.741 864.043 992.783 863.584C992.824 863.125 992.956 862.678 993.17 862.27L1019.9 804.36C1020.33 803.534 1021.08 802.914 1021.97 802.637C1022.86 802.359 1023.82 802.447 1024.65 802.88L1030.71 806.05C1031.12 806.264 1031.48 806.557 1031.78 806.911C1032.08 807.266 1032.3 807.675 1032.44 808.116C1032.58 808.557 1032.63 809.021 1032.59 809.482C1032.55 809.942 1032.41 810.39 1032.2 810.8L999.85 865.8C999.413 866.62 998.669 867.233 997.78 867.505C996.891 867.776 995.931 867.685 995.11 867.25Z" fill="#F7F3EF" stroke="#070707" stroke-width="4" stroke-linecap="round" stroke-linejoin="round"/>
<path d="M997.352 867.207L993.348 865.11L944.625 958.189L948.63 960.286L997.352 867.207Z" fill="#F7F3EF" stroke="#070707" stroke-width="4" stroke-linecap="round" stroke-linejoin="round"/>
<path d="M952.88 984.24C946.58 996.3 931.29 1007.84 923.39 1003.71C915.49 999.58 916.27 980.44 922.58 968.38C928.89 956.32 939.14 954.76 946.89 958.82C954.64 962.88 959.19 972.19 952.88 984.24Z" fill="#F7F3EF" stroke="#070707" stroke-width="4" stroke-linecap="round" stroke-linejoin="round"/>
<path d="M1189 836.78C1151.36 859.24 1074.24 892.31 1030.59 902C1025.26 913.91 1007.5 932.36 1003.08 933.28C997.99 934.34 996.08 931.84 991.08 929.99C982.51 926.84 986.62 920.66 980.96 919.55C975.3 918.44 974.03 909.91 974.03 909.91C974.03 909.91 968.7 910.61 965.5 919.38C961.5 930.38 955.67 927.81 955.67 927.81C955.67 927.81 958.67 910.04 961.19 906.69C965.335 901.263 970.026 896.277 975.19 891.81C978.37 889.13 1005.77 883.98 1019.37 884.12C1053.43 854.87 1111.46 812.01 1149.76 796.12C1177.26 784.79 1222.83 816.56 1189 836.78Z" fill="#FCBE9F" stroke="#070707" stroke-width="4" stroke-linecap="round" stroke-linejoin="round"/>
<path d="M757.54 818.88C753.07 817.06 739.8 772.59 771.98 763.15C804.16 753.71 827.38 775.79 828.66 793.92C829.26 802.42 797.36 835.17 757.54 818.88Z" fill="#F7F3EF" stroke="#070707" stroke-width="4" stroke-linecap="round" stroke-linejoin="round"/>
<path d="M789.84 852.06C784.73 850.06 733.04 818.19 764.58 793.35C805.81 760.89 820.51 819.27 820.51 819.27L789.84 852.06Z" fill="#FCBE9F" stroke="#070707" stroke-width="4" stroke-linecap="round" stroke-linejoin="round"/>
<path d="M840 829.341L839.52 829.54C839.096 829.722 838.64 829.817 838.179 829.822C837.718 829.826 837.261 829.739 836.833 829.566C836.406 829.394 836.017 829.138 835.689 828.814C835.36 828.491 835.099 828.105 834.92 827.68L807.12 770.271C806.939 769.846 806.843 769.391 806.839 768.93C806.835 768.469 806.921 768.011 807.094 767.584C807.267 767.156 807.522 766.767 807.846 766.439C808.17 766.111 808.555 765.849 808.98 765.67L815.28 762.99C816.138 762.627 817.105 762.619 817.97 762.968C818.834 763.316 819.524 763.993 819.89 764.85L841.89 824.73C842.07 825.157 842.165 825.615 842.167 826.078C842.17 826.541 842.081 827 841.905 827.429C841.729 827.858 841.47 828.247 841.143 828.575C840.817 828.903 840.428 829.163 840 829.341V829.341Z" fill="#F7F3EF" stroke="#070707" stroke-width="4" stroke-linecap="round" stroke-linejoin="round"/>
<path d="M841.352 827.584L837.191 829.35L878.225 926.065L882.386 924.3L841.352 827.584Z" fill="#F7F3EF" stroke="#070707" stroke-width="4" stroke-linecap="round" stroke-linejoin="round"/>
<path d="M903.61 936.2C908.92 948.73 908.15 967.87 899.95 971.35C891.75 974.83 877.44 962.09 872.13 949.56C866.82 937.03 872.13 928.12 880.13 924.7C888.36 921.22 898.29 923.68 903.61 936.2Z" fill="#F7F3EF" stroke="#070707" stroke-width="4" stroke-linecap="round" stroke-linejoin="round"/>
<path d="M816.83 819.48C819.56 817.71 826.38 814.6 835.92 823.2C845.46 831.8 871.44 860.78 867.78 864.44C860.78 871.44 846.89 847.92 844.12 850.57C843.33 851.33 843.67 853.16 843.4 855.09C843.13 857.02 842.25 859.03 839 860.16C834.66 861.69 839 867.25 832.94 870.59C826.88 873.93 829.82 875.59 825.45 880.78C820.45 886.65 792.52 869.28 788.1 859.94C783.68 850.6 805.2 827.05 816.83 819.48Z" fill="#FCBE9F" stroke="#070707" stroke-width="4" stroke-linecap="round" stroke-linejoin="round"/>
<path d="M907.26 524.611C907.26 524.611 916.57 529.711 920.34 519.511" stroke="#070707" stroke-width="4" stroke-linecap="round" stroke-linejoin="round"/>
<path d="M938.88 512.691C938.88 512.691 949.25 518.931 956.88 506.851" stroke="#070707" stroke-width="4" stroke-linecap="round" stroke-linejoin="round"/>
<path d="M927.85 518.04V534.33L935.26 539.43" stroke="#070707" stroke-width="4" stroke-linecap="round" stroke-linejoin="round"/>
<path d="M941.4 549.65C941.4 549.65 951.7 546.41 953.15 538.79" stroke="#070707" stroke-width="4" stroke-linecap="round" stroke-linejoin="round"/>
<path d="M941.77 693.07H1027.5" stroke="#070707" stroke-width="4" stroke-linecap="round" stroke-linejoin="round"/>
<path d="M945.48 836.641H988.04" stroke="#070707" stroke-width="4" stroke-linecap="round" stroke-linejoin="round"/>
<path d="M1034.38 518.155C1043.79 507.787 1048.24 496.496 1044.31 492.937C1040.39 489.378 1029.59 494.898 1020.18 505.267C1010.77 515.635 1006.32 526.925 1010.25 530.484C1014.17 534.043 1024.97 528.523 1034.38 518.155Z" fill="#E57B07" stroke="#070707" stroke-width="4" stroke-linecap="round" stroke-linejoin="round"/>
<path d="M1618.03 1123.09H379.31V1580.33H1618.03V1123.09Z" fill="#F7F3EF"/>
<path d="M1628.18 1357.56L1578.16 1127.84L1619.43 1122.84L1657.9 1357.56" fill="#F7F3EF"/>
<path d="M1628.18 1357.56L1578.16 1127.84L1619.43 1122.84L1657.9 1357.56" stroke="#070707" stroke-width="4" stroke-linecap="round" stroke-linejoin="round"/>
<path d="M1578.16 1127.84L1619.43 1122.84L1623.48 1147.59L1581.09 1141.27L1578.16 1127.84Z" fill="#1C0E0C"/>
<path d="M371.69 1357.56L421.71 1127.84L380.44 1122.84L341.96 1357.56" fill="#F7F3EF"/>
<path d="M371.69 1357.56L421.71 1127.84L380.44 1122.84L341.96 1357.56" stroke="#070707" stroke-width="4" stroke-linecap="round" stroke-linejoin="round"/>
<path d="M380.44 1122.84L421.71 1127.84L415.78 1155.08L378.73 1133.3L380.44 1122.84Z" fill="#070707"/>
<path d="M999.5 1123.1C1385.81 1123.1 1698.97 1100.03 1698.97 1071.58C1698.97 1043.13 1385.81 1020.06 999.5 1020.06C613.194 1020.06 300.03 1043.13 300.03 1071.58C300.03 1100.03 613.194 1123.1 999.5 1123.1Z" fill="#F7F3EF" stroke="#070707" stroke-width="4" stroke-linecap="round" stroke-linejoin="round"/>
<path d="M1699 1071.58V1098.89C1699 1127.35 1385.83 1150.41 999.53 1150.41C661.66 1150.41 379.75 1132.77 314.36 1109.31C305 1106 300 1102.47 300 1098.89V1071.58C300 1075.15 304.93 1078.63 314.31 1081.99C317.357 1083.08 320.873 1084.16 324.86 1085.24C406.14 1107.06 677.38 1123.09 999.48 1123.09C1321.58 1123.09 1592.81 1107.09 1674.09 1085.24C1690.31 1080.89 1699 1076.3 1699 1071.58Z" fill="#F7F3EF" stroke="#070707" stroke-width="4" stroke-linecap="round" stroke-linejoin="round"/>
<path d="M1280.25 1118.62C1260 1248.75 1038.08 1326 875.44 1310.72C675.87 1291.93 568.77 1195.64 524.33 1143C520.446 1138.42 517.959 1132.81 517.167 1126.86C516.374 1120.9 517.309 1114.84 519.86 1109.4C644.59 1117.9 811.44 1123.09 994.76 1123.09C1096.45 1123.09 1193.07 1121.49 1280.25 1118.62Z" fill="#F7F3EF" stroke="#070707" stroke-width="4" stroke-linecap="round" stroke-linejoin="round"/>
<path d="M1487.92 1033.92L1485.59 1034.87L1280.28 1118.45V1118.62C1193.1 1121.49 1096.48 1123.09 994.79 1123.09C811.47 1123.09 644.62 1117.9 519.89 1109.4C523.249 1102.1 529.29 1096.37 536.76 1093.4L708.31 1024.68C708.31 1024.68 712.68 1024.47 720.94 1024.12C791 1021.19 1140.73 1008.48 1487.92 1033.92Z" fill="#F7F3EF" stroke="#070707" stroke-width="4" stroke-linecap="round" stroke-linejoin="round"/>
<path d="M663 1088.57C670.34 1094.85 678.69 1098.38 687.41 1095.68L695.28 1093.24C700.8 1091.54 704.62 1088.24 707.89 1083.96C711.03 1079.89 711.71 1072.41 710.06 1066.96C706.71 1055.86 693.63 1049.96 682.56 1053.41L676.44 1055.3C668.37 1057.8 664.29 1061.51 661.79 1066.3C660.5 1068.74 659.73 1072.42 658.05 1074.66C656.53 1076.66 654.14 1078.04 654.96 1081.86C655.78 1085.68 658.34 1084.61 663 1088.57Z" fill="#F7F3EF" stroke="#070707" stroke-width="4" stroke-linecap="round" stroke-linejoin="round"/>
<path d="M788.51 1035.64C788.783 1035.64 789.053 1035.7 789.304 1035.8C789.555 1035.91 789.781 1036.07 789.968 1036.27C790.156 1036.47 790.3 1036.7 790.394 1036.96C790.487 1037.22 790.526 1037.49 790.51 1037.76C789.51 1054.53 776.22 1067.76 760.02 1067.76C743.82 1067.76 730.57 1054.5 729.53 1037.76C729.514 1037.49 729.553 1037.22 729.646 1036.96C729.739 1036.7 729.884 1036.47 730.072 1036.27C730.259 1036.07 730.485 1035.91 730.736 1035.8C730.987 1035.7 731.257 1035.64 731.53 1035.64H788.51Z" fill="#F7F3EF" stroke="#070707" stroke-width="4" stroke-linecap="round" stroke-linejoin="round"/>
<path d="M788.94 1035.64C788.94 1051.64 775.94 1060.34 760 1060.34C744.06 1060.34 731.06 1051.62 731.06 1035.64H788.94Z" fill="#F7F3EF" stroke="#070707" stroke-width="4" stroke-linecap="round" stroke-linejoin="round"/>
<path d="M765.49 1053.15C765.532 1053.28 765.545 1053.43 765.529 1053.57C765.513 1053.71 765.467 1053.84 765.396 1053.96C765.324 1054.08 765.228 1054.19 765.113 1054.27C764.998 1054.35 764.868 1054.4 764.73 1054.43C761.591 1054.86 758.409 1054.86 755.27 1054.43C755.133 1054.4 755.004 1054.35 754.89 1054.26C754.777 1054.18 754.682 1054.08 754.611 1053.96C754.54 1053.84 754.496 1053.7 754.48 1053.56C754.464 1053.42 754.478 1053.28 754.52 1053.15L759.12 1040.85C759.185 1040.67 759.305 1040.51 759.464 1040.4C759.622 1040.29 759.811 1040.23 760.005 1040.23C760.199 1040.23 760.388 1040.29 760.546 1040.4C760.705 1040.51 760.825 1040.67 760.89 1040.85L765.49 1053.15Z" fill="#F7F3EF" stroke="#070707" stroke-width="4" stroke-linecap="round" stroke-linejoin="round"/>
<path d="M783.54 1036.23C783.389 1038.61 782.803 1040.94 781.81 1043.11C781.743 1043.25 781.626 1043.35 781.483 1043.4C781.341 1043.45 781.185 1043.44 781.05 1043.37L767.93 1036.69C767.842 1036.62 767.776 1036.53 767.739 1036.43C767.702 1036.33 767.697 1036.21 767.724 1036.11C767.75 1036 767.808 1035.9 767.889 1035.83C767.97 1035.76 768.071 1035.71 768.18 1035.69H783C783.141 1035.7 783.276 1035.75 783.376 1035.85C783.476 1035.95 783.535 1036.09 783.54 1036.23V1036.23Z" fill="#F7F3EF" stroke="#070707" stroke-width="4" stroke-linecap="round" stroke-linejoin="round"/>
<path d="M751.52 1037L739.08 1043.34C738.993 1043.39 738.897 1043.42 738.797 1043.43C738.697 1043.44 738.597 1043.43 738.502 1043.4C738.407 1043.37 738.321 1043.31 738.248 1043.25C738.175 1043.18 738.117 1043.09 738.08 1043C737.142 1040.92 736.583 1038.69 736.43 1036.42C736.423 1036.32 736.436 1036.23 736.468 1036.14C736.5 1036.05 736.551 1035.97 736.617 1035.9C736.682 1035.83 736.762 1035.77 736.85 1035.73C736.939 1035.7 737.034 1035.68 737.13 1035.68H751.13C751.292 1035.66 751.455 1035.7 751.591 1035.8C751.727 1035.89 751.827 1036.02 751.873 1036.18C751.919 1036.34 751.909 1036.5 751.845 1036.65C751.78 1036.8 751.665 1036.93 751.52 1037V1037Z" fill="#F7F3EF" stroke="#070707" stroke-width="4" stroke-linecap="round" stroke-linejoin="round"/>
<path d="M778.999 1047.33C776.557 1050.03 773.456 1052.04 769.999 1053.18C769.775 1053.26 769.529 1053.25 769.313 1053.15C769.096 1053.05 768.927 1052.87 768.839 1052.65L763.839 1039.94C763.768 1039.77 763.752 1039.58 763.793 1039.39C763.834 1039.21 763.931 1039.04 764.07 1038.92C764.209 1038.79 764.383 1038.71 764.569 1038.69C764.755 1038.67 764.944 1038.7 765.109 1038.79L778.779 1045.92C778.897 1045.99 778.999 1046.08 779.076 1046.2C779.153 1046.31 779.204 1046.44 779.225 1046.57C779.246 1046.71 779.236 1046.85 779.197 1046.98C779.158 1047.11 779.091 1047.23 778.999 1047.33V1047.33Z" fill="#F7F3EF" stroke="#070707" stroke-width="4" stroke-linecap="round" stroke-linejoin="round"/>
<path d="M755.56 1040.1L750.72 1052.42C750.62 1052.66 750.432 1052.85 750.196 1052.95C749.959 1053.05 749.692 1053.06 749.45 1052.97C746.137 1051.8 743.175 1049.81 740.84 1047.19C740.747 1047.08 740.681 1046.94 740.646 1046.8C740.61 1046.66 740.607 1046.51 740.635 1046.37C740.664 1046.22 740.724 1046.09 740.811 1045.97C740.899 1045.85 741.011 1045.75 741.14 1045.68L754.19 1038.87C754.368 1038.79 754.566 1038.76 754.76 1038.79C754.955 1038.82 755.136 1038.9 755.282 1039.03C755.428 1039.16 755.533 1039.33 755.582 1039.52C755.631 1039.71 755.624 1039.92 755.56 1040.1V1040.1Z" fill="#F7F3EF" stroke="#070707" stroke-width="4" stroke-linecap="round" stroke-linejoin="round"/>
<path d="M1580.7 878.821C1572.7 909.041 1548.29 993.291 1525.38 991.501C1497.47 989.321 1532 863.001 1532 863.001C1532 863.001 1559.79 751.851 1587.76 752.811C1615.73 753.771 1580.7 878.821 1580.7 878.821Z" fill="#F7F3EF" stroke="#070707" stroke-width="4" stroke-linecap="round" stroke-linejoin="round"/>
<path d="M1547.77 935.033C1547.85 933.206 1543.41 931.529 1537.86 931.287C1532.31 931.045 1527.75 932.329 1527.67 934.155C1527.59 935.981 1532.02 937.658 1537.57 937.901C1543.12 938.143 1547.69 936.859 1547.77 935.033Z" fill="#F7F3EF" stroke="#070707" stroke-width="4" stroke-linecap="round" stroke-linejoin="round"/>
<path d="M1577.68 798.681C1583.24 798.681 1587.74 797.199 1587.74 795.371C1587.74 793.542 1583.24 792.061 1577.68 792.061C1572.12 792.061 1567.62 793.542 1567.62 795.371C1567.62 797.199 1572.12 798.681 1577.68 798.681Z" fill="#F7F3EF" stroke="#070707" stroke-width="4" stroke-linecap="round" stroke-linejoin="round"/>
<path d="M1570.56 827.981C1577.97 827.981 1583.98 826.002 1583.98 823.561C1583.98 821.12 1577.97 819.141 1570.56 819.141C1563.15 819.141 1557.14 821.12 1557.14 823.561C1557.14 826.002 1563.15 827.981 1570.56 827.981Z" fill="#F7F3EF" stroke="#070707" stroke-width="4" stroke-linecap="round" stroke-linejoin="round"/>
<path d="M1559.05 857.521C1567.37 857.521 1574.11 855.3 1574.11 852.561C1574.11 849.821 1567.37 847.601 1559.05 847.601C1550.73 847.601 1543.99 849.821 1543.99 852.561C1543.99 855.3 1550.73 857.521 1559.05 857.521Z" fill="#F7F3EF" stroke="#070707" stroke-width="4" stroke-linecap="round" stroke-linejoin="round"/>
<path d="M1558.95 908.941C1559.06 906.503 1553.14 904.264 1545.74 903.94C1538.33 903.617 1532.24 905.332 1532.14 907.771C1532.03 910.209 1537.95 912.449 1545.35 912.772C1552.76 913.095 1558.85 911.38 1558.95 908.941Z" fill="#F7F3EF" stroke="#070707" stroke-width="4" stroke-linecap="round" stroke-linejoin="round"/>
<path d="M1564.79 886.098C1564.9 883.361 1558.27 880.848 1549.96 880.486C1541.65 880.123 1534.81 882.047 1534.69 884.784C1534.57 887.521 1541.21 890.033 1549.52 890.396C1557.83 890.759 1564.67 888.835 1564.79 886.098Z" fill="#F7F3EF" stroke="#070707" stroke-width="4" stroke-linecap="round" stroke-linejoin="round"/>
<path d="M1431 852.06C1431 852.06 1436.59 844.64 1428.07 836.92L1430.99 835.86C1433.23 837.258 1435.14 839.118 1436.59 841.316C1438.05 843.513 1439.02 845.997 1439.44 848.6L1431 852.06Z" fill="#F7F3EF" stroke="#070707" stroke-width="4" stroke-linecap="round" stroke-linejoin="round"/>
<path d="M1442.09 916.111C1438.63 917.369 1434.84 917.307 1431.42 915.935C1428.01 914.564 1425.22 911.98 1423.6 908.681L1406.67 878.111C1402.76 870.111 1408.24 859.971 1416.57 856.941L1416.8 856.851C1418.64 856.179 1420.59 855.877 1422.55 855.961C1424.51 856.045 1426.43 856.513 1428.2 857.34C1429.98 858.166 1431.58 859.335 1432.9 860.778C1434.22 862.221 1435.25 863.911 1435.92 865.751L1451 897.001C1452.35 900.717 1452.17 904.816 1450.5 908.399C1448.83 911.982 1445.8 914.756 1442.09 916.111Z" fill="#EFAF00" stroke="black" stroke-width="4" stroke-linecap="round" stroke-linejoin="round"/>
<path d="M1471.38 905.43C1474.84 904.171 1477.71 901.678 1479.44 898.431C1481.17 895.184 1481.63 891.412 1480.75 887.84L1474.35 853.43C1472.22 844.83 1461.15 840.68 1452.83 843.72L1452.59 843.8C1450.75 844.471 1449.06 845.498 1447.62 846.822C1446.17 848.146 1445.01 849.741 1444.18 851.516C1443.35 853.292 1442.88 855.213 1442.8 857.17C1442.72 859.126 1443.02 861.08 1443.69 862.92L1452.27 896.53C1453.63 900.244 1456.4 903.268 1459.98 904.937C1463.57 906.606 1467.67 906.783 1471.38 905.43V905.43Z" fill="#EFAF00" stroke="black" stroke-width="4" stroke-linecap="round" stroke-linejoin="round"/>
<path d="M1457.74 912.701C1456.19 913.269 1454.53 913.526 1452.88 913.455C1451.22 913.385 1449.6 912.988 1448.1 912.289C1446.6 911.589 1445.25 910.6 1444.13 909.379C1443.01 908.157 1442.15 906.727 1441.58 905.171L1427.08 865.421C1425.94 862.279 1426.09 858.812 1427.5 855.782C1428.91 852.751 1431.47 850.406 1434.61 849.261V849.261C1436.17 848.693 1437.82 848.437 1439.47 848.508C1441.12 848.578 1442.75 848.974 1444.25 849.672C1445.75 850.371 1447.1 851.358 1448.22 852.578C1449.34 853.797 1450.2 855.225 1450.77 856.781L1465.27 896.531C1466.41 899.674 1466.26 903.142 1464.85 906.174C1463.44 909.206 1460.88 911.553 1457.74 912.701V912.701Z" fill="#EFAF00" stroke="black" stroke-width="4" stroke-linecap="round" stroke-linejoin="round"/>
<path d="M1390.27 880.5C1390.27 880.5 1367.77 838.14 1301.59 872.79Z" fill="#F7F3EF"/>
<path d="M1390.27 880.5C1390.27 880.5 1367.77 838.14 1301.59 872.79" stroke="#070707" stroke-width="4" stroke-linecap="round" stroke-linejoin="round"/>
<path d="M1331.17 861.24C1331.17 861.24 1317.52 864.83 1317.52 868.35C1317.52 871.87 1324.34 869.97 1324.34 869.97C1324.34 869.97 1314.45 874.86 1314.79 878.11C1315.13 881.36 1322.13 878.11 1322.13 878.11C1322.13 878.11 1317.38 888.02 1321.13 889.11C1324.88 890.2 1325.04 882.52 1325.04 882.52C1325.04 882.52 1329.81 886.28 1331.18 884.94C1332.55 883.6 1327.94 874.29 1327.94 874.29C1327.94 874.29 1332.37 880.12 1335.1 878.06C1337.83 876 1330 866.93 1331.17 861.24Z" fill="#F7F3EF" stroke="#070707" stroke-width="4" stroke-linecap="round" stroke-linejoin="round"/>
<path d="M1307.53 869.83C1307.53 869.83 1295.03 866.45 1293.16 869.83C1291.29 873.21 1297.28 871.75 1297.28 871.75C1297.28 871.75 1285.85 876.93 1286.78 880.5C1287.71 884.07 1293.72 880.5 1293.72 880.5C1293.72 880.5 1292.72 889.01 1297.13 887.37C1301.54 885.73 1300.73 874.17 1307.53 869.83Z" fill="#F7F3EF" stroke="#070707" stroke-width="4" stroke-linecap="round" stroke-linejoin="round"/>
<path d="M1376.34 836.35C1376.34 836.35 1386.34 831.6 1385.99 828.54C1385.64 825.48 1382.29 829.62 1382.29 829.62C1382.29 829.62 1387.44 820.29 1385.07 818.62C1382.7 816.95 1380.41 822.39 1380.41 822.39C1380.41 822.39 1376.97 816.68 1374.77 820.09C1372.57 823.5 1378.79 830 1376.34 836.35Z" fill="#F7F3EF" stroke="#070707" stroke-width="4" stroke-linecap="round" stroke-linejoin="round"/>
<path d="M1394 880.5C1394 880.5 1383 839.18 1334.76 841.69" stroke="#070707" stroke-width="4" stroke-linecap="round" stroke-linejoin="round"/>
<path d="M1337.36 841.131C1337.36 841.131 1331.93 855.231 1326.51 852.451C1321.09 849.671 1328.8 847.161 1328.8 847.161C1328.8 847.161 1312.94 851.161 1313.56 845.491C1314.18 839.821 1325.45 842.061 1325.45 842.061C1325.45 842.061 1319.45 838.701 1325.45 837.241C1331.45 835.781 1337.36 841.131 1337.36 841.131Z" fill="#F7F3EF" stroke="#070707" stroke-width="4" stroke-linecap="round" stroke-linejoin="round"/>
<path d="M1364.36 846.7C1364.36 846.7 1362.68 832.92 1356.96 832.92C1351.24 832.92 1358.12 841.58 1358.12 841.58C1358.12 841.58 1351.23 835.85 1349.98 839.81C1348.73 843.77 1356.98 845.69 1356.98 845.69C1356.98 845.69 1351.67 852.37 1355.64 852.04C1359.61 851.71 1364.36 846.7 1364.36 846.7Z" fill="#F7F3EF" stroke="#070707" stroke-width="4" stroke-linecap="round" stroke-linejoin="round"/>
<path d="M1363.53 861.18C1363.53 861.18 1350.3 856.99 1347.92 862.18C1345.54 867.37 1356.28 864.71 1356.28 864.71C1356.28 864.71 1348.21 868.6 1351.28 871.39C1354.35 874.18 1359.52 867.48 1359.52 867.48C1359.52 867.48 1363.4 875.08 1364.74 871.33C1366.08 867.58 1363.53 861.18 1363.53 861.18Z" fill="#F7F3EF" stroke="#070707" stroke-width="4" stroke-linecap="round" stroke-linejoin="round"/>
<path d="M1373.4 847.641C1373.4 847.641 1384.4 841.381 1382.4 838.331C1380.4 835.281 1373.67 843.131 1373.67 843.131C1373.67 843.131 1371.34 834.421 1368.56 835.801C1365.78 837.181 1373.4 847.641 1373.4 847.641Z" fill="#F7F3EF" stroke="#070707" stroke-width="4" stroke-linecap="round" stroke-linejoin="round"/>
<path d="M1382.65 880.001C1382.65 880.001 1364.8 845.361 1378.95 832.431" stroke="#070707" stroke-width="4" stroke-linecap="round" stroke-linejoin="round"/>
<path d="M1470.57 784.841C1470.57 784.841 1485.79 811.601 1480.39 919.781L1491.13 920.121C1491.13 920.121 1494.68 818.331 1470.57 784.841Z" fill="#F7F3EF" stroke="#070707" stroke-width="4" stroke-linecap="round" stroke-linejoin="round"/>
<path d="M1480.39 919.781C1480.39 919.781 1500.97 780.681 1486.39 746.351C1486.39 746.351 1509.02 780.761 1491.09 920.121L1480.39 919.781Z" fill="#F7F3EF" stroke="#070707" stroke-width="4" stroke-linecap="round" stroke-linejoin="round"/>
<path d="M1480.39 919.78C1486.58 869.83 1530.85 804.78 1530.85 804.78C1530.85 804.78 1495.47 883.43 1491.13 920.09L1480.39 919.78Z" fill="#F7F3EF" stroke="#070707" stroke-width="4" stroke-linecap="round" stroke-linejoin="round"/>
<path d="M1475.77 959.4C1475.77 959.4 1479.05 940.33 1480.39 919.78C1480.39 919.78 1486.1 915.09 1491.13 920.12C1490.09 934.342 1490.25 948.627 1491.63 962.82L1475.77 959.4Z" fill="#F7F3EF" stroke="#070707" stroke-width="4" stroke-linecap="round" stroke-linejoin="round"/>
<path d="M1491.59 964.003C1492.32 961.449 1489.38 958.369 1485.02 957.125C1480.67 955.88 1476.55 956.942 1475.82 959.496C1475.09 962.05 1478.03 965.13 1482.38 966.374C1486.73 967.619 1490.86 966.557 1491.59 964.003Z" fill="#F7F3EF" stroke="#070707" stroke-width="4" stroke-linecap="round" stroke-linejoin="round"/>
<path d="M1489.94 963.42V963.47C1489.73 964.031 1489.38 964.526 1488.92 964.905C1488.45 965.285 1487.9 965.535 1487.31 965.63C1485.83 965.965 1484.3 965.906 1482.85 965.46C1479.5 964.46 1477.33 962.14 1477.85 960.07V960C1478.06 959.44 1478.41 958.944 1478.87 958.565C1479.34 958.186 1479.89 957.935 1480.48 957.84C1481.96 957.505 1483.49 957.564 1484.94 958.01C1488.32 959 1490.49 961.35 1489.94 963.42ZM1478.77 960.3C1478.36 961.83 1480.33 963.78 1483.1 964.57C1484.4 964.973 1485.78 965.028 1487.1 964.73C1487.54 964.677 1487.95 964.508 1488.31 964.241C1488.66 963.974 1488.93 963.618 1489.1 963.21V963.21C1489.51 961.69 1487.54 959.74 1484.77 958.95C1483.47 958.547 1482.09 958.492 1480.77 958.79C1480.33 958.844 1479.92 959.012 1479.56 959.279C1479.21 959.547 1478.94 959.902 1478.77 960.31V960.3Z" fill="#F7F3EF" stroke="#070707" stroke-width="4" stroke-linecap="round" stroke-linejoin="round"/>
<path d="M1486.67 962.521C1486.37 963.571 1484.87 964.031 1483.25 963.571C1481.63 963.111 1480.62 961.941 1480.9 960.901C1481.2 959.901 1482.7 959.391 1484.32 959.901C1485.92 960.301 1487 961.471 1486.67 962.521ZM1481.79 961.151C1481.66 961.621 1482.36 962.381 1483.5 962.701C1484.64 963.021 1485.64 962.701 1485.77 962.291C1485.9 961.831 1485.2 961.071 1484.06 960.741C1482.92 960.421 1481.92 960.691 1481.79 961.161V961.151Z" fill="#F7F3EF" stroke="#070707" stroke-width="4" stroke-linecap="round" stroke-linejoin="round"/>
<path d="M1597.67 879.98L1571.12 1082.35H1559.36L1529.02 879.98H1597.67Z" fill="#F7F3EF" stroke="#070707" stroke-width="4" stroke-linecap="round" stroke-linejoin="round"/>
<path d="M1605.16 886.53L1579.08 1083.36H1567.33L1537.45 886.53H1605.16Z" fill="#F7F3EF" stroke="#070707" stroke-width="4" stroke-linecap="round" stroke-linejoin="round"/>
<path d="M1598.43 879.98L1571.88 1082.35H1560.12L1529.77 879.98H1598.43Z" fill="#F7F3EF" stroke="#070707" stroke-width="4" stroke-linecap="round" stroke-linejoin="round"/>
<path d="M1560.12 1082.35H1394.84L1368.28 879.98H1529.77L1560.12 1082.35Z" fill="#F7F3EF" stroke="#070707" stroke-width="4" stroke-linecap="round" stroke-linejoin="round"/>
<path d="M1304.16 979.46C1304.16 979.46 1311.27 974.86 1306.43 965.46H1309.29C1310.77 967.46 1311.82 969.748 1312.36 972.176C1312.9 974.605 1312.93 977.12 1312.44 979.56L1304.16 979.46Z" fill="#F7F3EF" stroke="#070707" stroke-width="4" stroke-linecap="round" stroke-linejoin="round"/>
<path d="M1292.78 1038.3C1289.39 1038.26 1286.13 1036.97 1283.63 1034.68C1281.13 1032.38 1279.57 1029.25 1279.25 1025.87L1274.59 994C1273.81 985.87 1281.84 978.87 1290.01 979H1290.25C1293.89 979.042 1297.37 980.53 1299.92 983.136C1302.47 985.743 1303.88 989.255 1303.84 992.9L1306.67 1024.75C1306.62 1028.39 1305.13 1031.86 1302.53 1034.4C1299.92 1036.94 1296.42 1038.34 1292.78 1038.3V1038.3Z" fill="#EA631F" stroke="#070707" stroke-width="4" stroke-linecap="round" stroke-linejoin="round"/>
<path d="M1321.52 1038.62C1324.91 1038.66 1328.2 1037.44 1330.75 1035.2C1333.3 1032.96 1334.92 1029.86 1335.32 1026.49L1341 994.729C1342 986.619 1333.76 979.439 1325.59 979.349H1325.36C1321.71 979.309 1318.2 980.719 1315.6 983.267C1312.99 985.815 1311.5 989.294 1311.46 992.939L1307.93 1024.72C1307.89 1028.36 1309.3 1031.88 1311.85 1034.48C1314.4 1037.09 1317.87 1038.58 1321.52 1038.62Z" fill="#EA631F" stroke="#070707" stroke-width="4" stroke-linecap="round" stroke-linejoin="round"/>
<path d="M1307.39 1040.45C1304.31 1040.42 1301.36 1039.16 1299.21 1036.96C1297.05 1034.75 1295.86 1031.78 1295.89 1028.7L1296.32 989.7C1296.35 986.617 1297.61 983.674 1299.81 981.518C1302.02 979.361 1304.99 978.168 1308.07 978.2V978.2C1311.15 978.234 1314.1 979.491 1316.25 981.694C1318.41 983.898 1319.6 986.867 1319.57 989.95L1319.14 1028.95C1319.12 1030.48 1318.81 1031.99 1318.21 1033.39C1317.61 1034.79 1316.74 1036.07 1315.65 1037.13C1314.56 1038.2 1313.27 1039.05 1311.85 1039.61C1310.43 1040.18 1308.92 1040.47 1307.39 1040.45V1040.45Z" fill="#EA631F" stroke="#070707" stroke-width="4" stroke-linecap="round" stroke-linejoin="round"/>
<g style="mix-blend-mode:multiply">
<path d="M1038.53 936.8C1038.53 968.22 1026.05 998.353 1003.83 1020.57C981.613 1042.79 951.48 1055.27 920.06 1055.27V1055.27C888.64 1055.27 858.509 1042.78 836.292 1020.57C814.075 998.351 801.592 968.219 801.59 936.8H1038.53Z" fill="#F7F3EF"/>
<path d="M1038.53 936.8C1038.53 968.22 1026.05 998.353 1003.83 1020.57C981.613 1042.79 951.48 1055.27 920.06 1055.27V1055.27C888.64 1055.27 858.509 1042.78 836.292 1020.57C814.075 998.351 801.592 968.219 801.59 936.8H1038.53Z" stroke="#070707" stroke-width="4" stroke-linecap="round" stroke-linejoin="round"/>
</g>
<path d="M1038.15 936.42C1038.15 967.839 1025.66 997.971 1003.45 1020.19C981.231 1042.4 951.099 1054.89 919.68 1054.89V1054.89C888.261 1054.89 858.129 1042.4 835.912 1020.19C813.695 997.971 801.213 967.839 801.21 936.42H1038.15Z" fill="#F7F3EF" stroke="#070707" stroke-width="4" stroke-linecap="round" stroke-linejoin="round"/>
<path d="M940.437 1039.36C951.005 1035.73 957.382 1026.41 954.68 1018.54C951.979 1010.66 941.222 1007.22 930.654 1010.85C920.086 1014.47 913.709 1023.8 916.411 1031.67C919.112 1039.54 929.869 1042.98 940.437 1039.36Z" fill="#F7F3EF" stroke="#070707" stroke-width="4" stroke-linecap="round" stroke-linejoin="round"/>
<path d="M938.682 1038.58C947.899 1034.95 953.129 1026.32 950.365 1019.31C947.6 1012.3 937.887 1009.57 928.671 1013.21C919.454 1016.84 914.224 1025.47 916.988 1032.48C919.753 1039.49 929.465 1042.22 938.682 1038.58Z" fill="#F7F3EF" stroke="#070707" stroke-width="4" stroke-linecap="round" stroke-linejoin="round"/>
<path d="M937.08 1021.13C936.86 1022.13 933.93 1024.82 933.93 1024.82C933.93 1024.82 932.23 1022.12 932.45 1021.13C932.658 1020.58 933.032 1020.11 933.52 1019.79C934.008 1019.47 934.585 1019.31 935.17 1019.33C936.45 1019.33 937.31 1020.14 937.08 1021.13Z" fill="#F7F3EF" stroke="#070707" stroke-width="4" stroke-linecap="round" stroke-linejoin="round"/>
<path d="M930.311 1030.57C930.531 1029.57 933.461 1026.88 933.461 1026.88C933.461 1026.88 935.161 1029.57 934.941 1030.57C934.733 1031.12 934.358 1031.58 933.87 1031.9C933.382 1032.23 932.805 1032.39 932.221 1032.36C930.941 1032.36 930.081 1031.56 930.311 1030.57Z" fill="#F7F3EF" stroke="#070707" stroke-width="4" stroke-linecap="round" stroke-linejoin="round"/>
<path d="M928.001 1024.05C929.281 1024.05 932.341 1025.85 932.341 1025.85C932.341 1025.85 928.461 1027.65 927.181 1027.65C925.901 1027.65 925.051 1026.84 925.281 1025.85C925.485 1025.3 925.859 1024.83 926.348 1024.51C926.836 1024.18 927.415 1024.02 928.001 1024.05V1024.05Z" fill="#F7F3EF" stroke="#070707" stroke-width="4" stroke-linecap="round" stroke-linejoin="round"/>
<path d="M939.36 1027.65C938.08 1027.65 935.021 1025.85 935.021 1025.85C935.021 1025.85 938.9 1024.05 940.18 1024.05C941.46 1024.05 942.311 1024.86 942.081 1025.85C941.876 1026.4 941.502 1026.87 941.013 1027.19C940.525 1027.52 939.946 1027.68 939.36 1027.65V1027.65Z" fill="#F7F3EF" stroke="#070707" stroke-width="4" stroke-linecap="round" stroke-linejoin="round"/>
<path d="M904.451 1026.33C908.582 1026.33 911.931 1022.98 911.931 1018.85C911.931 1014.72 908.582 1011.37 904.451 1011.37C900.32 1011.37 896.971 1014.72 896.971 1018.85C896.971 1022.98 900.32 1026.33 904.451 1026.33Z" fill="#F7F3EF" stroke="#070707" stroke-width="4" stroke-linecap="round" stroke-linejoin="round"/>
<path d="M973.302 1007.9C974.527 1003.1 971.634 998.225 966.84 996.999C962.046 995.774 957.165 998.666 955.94 1003.46C954.714 1008.26 957.607 1013.14 962.402 1014.36C967.196 1015.59 972.076 1012.69 973.302 1007.9Z" fill="#F7F3EF" stroke="#070707" stroke-width="4" stroke-linecap="round" stroke-linejoin="round"/>
<path d="M849.201 1001.99C850.26 997.16 847.2 992.383 842.367 991.323C837.533 990.264 832.755 993.324 831.696 998.158C830.637 1002.99 833.697 1007.77 838.531 1008.83C843.364 1009.89 848.142 1006.83 849.201 1001.99Z" fill="#F7F3EF" stroke="#070707" stroke-width="4" stroke-linecap="round" stroke-linejoin="round"/>
<path d="M869.208 1033.02C873.261 1031.7 873.866 1022.42 870.559 1012.31C867.253 1002.19 861.287 995.064 857.234 996.389C853.182 997.713 852.577 1006.99 855.883 1017.1C859.19 1027.22 865.155 1034.35 869.208 1033.02Z" fill="#F7F3EF" stroke="#070707" stroke-width="4" stroke-linecap="round" stroke-linejoin="round"/>
<path d="M862 1000.16C865.16 999.89 869.65 1006.88 871.52 1015.99C872.98 1023.07 872.9 1029.49 868.92 1029.83C866.75 1030.02 863.41 1025.1 860.92 1016.11C858.43 1007.12 858.05 1000.5 862 1000.16Z" fill="#F7F3EF" stroke="#070707" stroke-width="4" stroke-linecap="round" stroke-linejoin="round"/>
<path d="M919.236 969.835C924.314 960.482 926.397 951.796 923.887 950.433C921.378 949.071 915.227 955.548 910.149 964.901C905.071 974.254 902.988 982.94 905.498 984.303C908.007 985.665 914.158 979.188 919.236 969.835Z" fill="#F7F3EF" stroke="#070707" stroke-width="4" stroke-linecap="round" stroke-linejoin="round"/>
<path d="M905.94 978.78C904.48 977.13 907.1 969.38 912.13 961.61C916.03 955.56 920.13 950.9 921.99 952.98C922.99 954.11 921.22 959.66 916.51 967.7C911.8 975.74 907.77 980.85 905.94 978.78Z" fill="#F7F3EF" stroke="#070707" stroke-width="4" stroke-linecap="round" stroke-linejoin="round"/>
<path d="M953.58 991.79C962.35 988.01 974.95 986.28 990.18 994.54Z" fill="#F7F3EF"/>
<path d="M953.58 991.79C962.35 988.01 974.95 986.28 990.18 994.54" stroke="#070707" stroke-width="4" stroke-linecap="round" stroke-linejoin="round"/>
<path d="M988.66 993.379C988.66 993.379 987.82 1004.17 992.19 1004.05C996.56 1003.93 992.341 999.919 992.341 999.919C992.341 999.919 1001.34 1007.38 1002.71 1003.54C1004.08 999.699 996.081 997.649 996.081 997.649C996.081 997.649 1001 997.329 997.571 994.529C994.141 991.729 988.66 993.379 988.66 993.379Z" fill="#F7F3EF" stroke="#070707" stroke-width="4" stroke-linecap="round" stroke-linejoin="round"/>
<path d="M969.471 988.65C969.471 988.65 974.801 980.25 978.471 982.01C982.141 983.77 975.041 987.26 975.041 987.26C975.041 987.26 981.271 985.67 980.861 988.63C980.451 991.59 974.531 990.28 974.531 990.28C974.531 990.28 975.901 996.28 973.441 994.8C970.981 993.32 969.471 988.65 969.471 988.65Z" fill="#F7F3EF" stroke="#070707" stroke-width="4" stroke-linecap="round" stroke-linejoin="round"/>
<path d="M880.801 1023.11C882.481 1030.9 889.141 1042.58 913.131 1047.68Z" fill="#F7F3EF"/>
<path d="M880.801 1023.11C882.481 1030.9 889.141 1042.58 913.131 1047.68" stroke="#070707" stroke-width="4" stroke-linecap="round" stroke-linejoin="round"/>
<path d="M897.61 1042.55C897.61 1042.55 904.2 1045.61 905.36 1044.21C906.52 1042.81 903.19 1041.33 903.19 1041.33C903.19 1041.33 908.71 1042.64 909.65 1041.24C910.59 1039.84 906.74 1038.83 906.74 1038.83C906.74 1038.83 911.87 1036.46 910.74 1034.83C909.61 1033.2 907.03 1036.16 907.03 1036.16C907.03 1036.16 906.37 1033.1 905.39 1033.16C904.41 1033.22 903.18 1038.45 903.18 1038.45C903.18 1038.45 903.34 1034.68 901.58 1034.6C899.82 1034.52 900 1040.68 897.61 1042.55Z" fill="#F7F3EF" stroke="#070707" stroke-width="4" stroke-linecap="round" stroke-linejoin="round"/>
<path d="M909.801 1046.9C909.801 1046.9 913.651 1052.35 915.501 1051.62C917.351 1050.89 914.501 1049.51 914.501 1049.51C914.501 1049.51 920.731 1051.21 921.501 1049.51C922.271 1047.81 918.751 1047.23 918.751 1047.23C918.751 1047.23 921.971 1044.23 919.661 1043.38C917.351 1042.53 913.931 1047.42 909.801 1046.9Z" fill="#F7F3EF" stroke="#070707" stroke-width="4" stroke-linecap="round" stroke-linejoin="round"/>
<path d="M884.761 1031.94C884.761 1031.94 888.631 1037.94 891.281 1036.67C893.931 1035.4 888.801 1032.92 888.801 1032.92C888.801 1032.92 893.281 1034.03 892.971 1031.92C892.661 1029.81 888.421 1030.76 888.421 1030.76C888.421 1030.76 889.421 1026.48 887.611 1027.52C885.801 1028.56 884.761 1031.94 884.761 1031.94Z" fill="#F7F3EF" stroke="#070707" stroke-width="4" stroke-linecap="round" stroke-linejoin="round"/>
<path d="M950.78 1040.47C958.48 1042.54 971.91 1041.95 987.4 1022.93Z" fill="#F7F3EF"/>
<path d="M950.78 1040.47C958.48 1042.54 971.91 1041.95 987.4 1022.93" stroke="#070707" stroke-width="4" stroke-linecap="round" stroke-linejoin="round"/>
<path d="M975.75 1034.4C975.75 1034.4 981.48 1029.93 980.75 1028.26C980.02 1026.59 977.19 1028.88 977.19 1028.88C977.19 1028.88 980.88 1024.56 980.06 1023.09C979.24 1021.62 976.59 1024.58 976.59 1024.58C976.59 1024.58 976.83 1018.93 974.83 1019.15C972.83 1019.37 974.31 1023.06 974.31 1023.06C974.31 1023.06 971.31 1022.24 970.91 1023.16C970.51 1024.08 974.61 1027.54 974.61 1027.54C974.61 1027.54 971.33 1025.68 970.45 1027.21C969.57 1028.74 975.16 1031.46 975.75 1034.4Z" fill="#F7F3EF" stroke="#070707" stroke-width="4" stroke-linecap="round" stroke-linejoin="round"/>
<path d="M985.19 1025.54C985.19 1025.54 991.79 1024.6 991.99 1022.62C992.19 1020.64 989.65 1022.55 989.65 1022.55C989.65 1022.55 994.01 1017.78 992.85 1016.28C991.69 1014.78 989.56 1017.69 989.56 1017.69C989.56 1017.69 988.33 1013.45 986.56 1015.13C984.79 1016.81 987.53 1022.1 985.19 1025.54Z" fill="#F7F3EF" stroke="#070707" stroke-width="4" stroke-linecap="round" stroke-linejoin="round"/>
<path d="M960.45 1041C960.45 1041 967.56 1040.3 967.63 1037.36C967.7 1034.42 963.16 1037.85 963.16 1037.85C963.16 1037.85 966.16 1034.38 964.16 1033.69C962.16 1033 961.06 1037.21 961.06 1037.21C961.06 1037.21 957.68 1034.4 957.8 1036.44C957.92 1038.48 960.45 1041 960.45 1041Z" fill="#F7F3EF" stroke="#070707" stroke-width="4" stroke-linecap="round" stroke-linejoin="round"/>
<path d="M884.51 992.33C884.51 992.33 891.71 983.86 890.09 981.23C888.47 978.6 887.16 983.75 887.16 983.75C887.16 983.75 888.01 973.11 885.16 972.6C882.31 972.09 882.4 979.71 882.4 979.71C882.4 979.71 877.13 974.53 876.54 978.54C875.95 982.55 881.3 987.84 884.51 992.33Z" fill="#F7F3EF" stroke="#070707" stroke-width="4" stroke-linecap="round" stroke-linejoin="round"/>
<path d="M886.51 1003.83C886.51 1003.83 893.95 993.579 890.82 991.649C887.69 989.719 884.82 999.649 884.82 999.649C884.82 999.649 879.1 992.649 877.14 995.089C875.18 997.529 886.51 1003.83 886.51 1003.83Z" fill="#F7F3EF" stroke="#070707" stroke-width="4" stroke-linecap="round" stroke-linejoin="round"/>
<path d="M890.33 1010.32C885.42 1003.06 882.2 994.819 885.27 987.659Z" fill="#F7F3EF"/>
<path d="M890.33 1010.32C885.42 1003.06 882.2 994.819 885.27 987.659" stroke="#070707" stroke-width="4" stroke-linecap="round" stroke-linejoin="round"/>
<path d="M1303.54 1050.58C1303.55 1051.14 1303.38 1051.68 1303.07 1052.14C1302.76 1052.6 1302.31 1052.95 1301.79 1053.15L1295.26 1055.81L1234.6 1080.5C1231.39 1081.82 1227.96 1082.5 1224.49 1082.5H986.32C985.946 1082.51 985.574 1082.44 985.227 1082.29C984.881 1082.15 984.566 1081.94 984.303 1081.68C984.04 1081.41 983.833 1081.09 983.695 1080.75C983.557 1080.4 983.49 1080.03 983.5 1079.65C983.493 1079.09 983.659 1078.55 983.974 1078.09C984.289 1077.63 984.738 1077.28 985.26 1077.08L1052.45 1049.72C1055.66 1048.41 1059.09 1047.73 1062.55 1047.72H1300.72C1301.1 1047.72 1301.47 1047.79 1301.81 1047.93C1302.16 1048.07 1302.48 1048.28 1302.74 1048.55C1303 1048.82 1303.21 1049.13 1303.35 1049.48C1303.49 1049.83 1303.55 1050.21 1303.54 1050.58Z" fill="#F7F3EF" stroke="#070707" stroke-width="4" stroke-linecap="round" stroke-linejoin="round"/>
<path d="M1303.54 1050.58V1058.66C1303.55 1059.22 1303.38 1059.76 1303.07 1060.22C1302.76 1060.68 1302.31 1061.03 1301.79 1061.23L1234.6 1088.58C1231.39 1089.9 1227.96 1090.58 1224.49 1090.58H986.32C985.946 1090.59 985.574 1090.52 985.227 1090.37C984.881 1090.23 984.566 1090.02 984.303 1089.76C984.04 1089.49 983.833 1089.17 983.695 1088.83C983.557 1088.48 983.49 1088.11 983.5 1087.73V1079.65C983.49 1080.03 983.557 1080.4 983.695 1080.75C983.833 1081.09 984.04 1081.41 984.303 1081.68C984.566 1081.94 984.881 1082.15 985.227 1082.29C985.574 1082.44 985.946 1082.51 986.32 1082.5H1224.49C1227.96 1082.5 1231.39 1081.82 1234.6 1080.5L1295.26 1055.81L1301.79 1053.15C1302.31 1052.95 1302.76 1052.6 1303.07 1052.14C1303.38 1051.68 1303.55 1051.14 1303.54 1050.58V1050.58Z" fill="#F7F3EF" stroke="#070707" stroke-width="4" stroke-linecap="round" stroke-linejoin="round"/>
<path d="M1115.94 1054.11L1166.17 1039.98C1166.48 1039.9 1166.76 1039.75 1167.02 1039.55C1167.27 1039.35 1167.47 1039.11 1167.63 1038.83C1167.78 1038.55 1167.88 1038.24 1167.91 1037.92C1167.94 1037.61 1167.91 1037.29 1167.82 1036.98L1165.75 1029.98C1165.67 1029.68 1165.52 1029.4 1165.33 1029.15C1165.14 1028.9 1164.9 1028.7 1164.62 1028.55C1164.35 1028.39 1164.05 1028.29 1163.74 1028.26C1163.43 1028.22 1163.11 1028.25 1162.81 1028.33L1112.57 1042.46C1112.26 1042.55 1111.98 1042.7 1111.73 1042.89C1111.48 1043.09 1111.27 1043.34 1111.12 1043.62C1110.97 1043.9 1110.87 1044.2 1110.84 1044.52C1110.8 1044.84 1110.83 1045.16 1110.92 1045.46L1112.99 1052.46C1113.08 1052.76 1113.22 1053.05 1113.41 1053.29C1113.61 1053.54 1113.85 1053.74 1114.12 1053.9C1114.4 1054.05 1114.7 1054.15 1115.01 1054.18C1115.32 1054.22 1115.64 1054.2 1115.94 1054.11V1054.11Z" fill="#F7F3EF" stroke="#070707" stroke-width="4" stroke-linecap="round" stroke-linejoin="round"/>
<path d="M1035.29 1065.59L1110.71 1044.37L1115.78 1062.37C1115.78 1062.37 1066.57 1084.3 1035.29 1065.59Z" fill="#F7F3EF" stroke="#070707" stroke-width="4" stroke-linecap="round" stroke-linejoin="round"/>
<path d="M1230.45 1065.51C1243.82 1065.51 1254.66 1055.62 1254.66 1043.41C1254.66 1031.21 1243.82 1021.31 1230.45 1021.31C1217.08 1021.31 1206.24 1031.21 1206.24 1043.41C1206.24 1055.62 1217.08 1065.51 1230.45 1065.51Z" fill="#F7F3EF" stroke="#070707" stroke-width="4" stroke-linecap="round" stroke-linejoin="round"/>
<path d="M1225.95 1064.5C1236.44 1064.5 1244.94 1055.79 1244.94 1045.05C1244.94 1034.31 1236.44 1025.6 1225.95 1025.6C1215.46 1025.6 1206.96 1034.31 1206.96 1045.05C1206.96 1055.79 1215.46 1064.5 1225.95 1064.5Z" fill="#F7F3EF" stroke="#070707" stroke-width="4" stroke-linecap="round" stroke-linejoin="round"/>
<path d="M1228.52 1038.63C1228.52 1039.98 1225.95 1043.63 1225.95 1043.63C1225.95 1043.63 1223.39 1039.96 1223.39 1038.63C1223.43 1037.98 1223.72 1037.37 1224.19 1036.92C1224.67 1036.47 1225.3 1036.22 1225.95 1036.22C1226.61 1036.22 1227.24 1036.47 1227.71 1036.92C1228.19 1037.37 1228.48 1037.98 1228.52 1038.63Z" fill="#F7F3EF" stroke="#070707" stroke-width="4" stroke-linecap="round" stroke-linejoin="round"/>
<path d="M1223.39 1051.47C1223.39 1050.12 1225.95 1046.47 1225.95 1046.47C1225.95 1046.47 1228.52 1050.13 1228.52 1051.47C1228.48 1052.12 1228.19 1052.74 1227.71 1053.18C1227.24 1053.63 1226.61 1053.88 1225.95 1053.88C1225.3 1053.88 1224.67 1053.63 1224.19 1053.18C1223.72 1052.74 1223.43 1052.12 1223.39 1051.47V1051.47Z" fill="#F7F3EF" stroke="#070707" stroke-width="4" stroke-linecap="round" stroke-linejoin="round"/>
<path d="M1219.22 1042.6C1220.63 1042.6 1224.48 1045.05 1224.48 1045.05C1224.48 1045.05 1220.63 1047.5 1219.22 1047.5C1218.57 1047.5 1217.95 1047.24 1217.49 1046.78C1217.03 1046.32 1216.77 1045.7 1216.77 1045.05C1216.77 1044.4 1217.03 1043.78 1217.49 1043.32C1217.95 1042.86 1218.57 1042.6 1219.22 1042.6Z" fill="#F7F3EF" stroke="#070707" stroke-width="4" stroke-linecap="round" stroke-linejoin="round"/>
<path d="M1232.69 1047.5C1231.27 1047.5 1227.43 1045.05 1227.43 1045.05C1227.43 1045.05 1231.27 1042.6 1232.69 1042.6C1233.34 1042.6 1233.96 1042.86 1234.42 1043.32C1234.88 1043.78 1235.14 1044.4 1235.14 1045.05C1235.14 1045.7 1234.88 1046.32 1234.42 1046.78C1233.96 1047.24 1233.34 1047.5 1232.69 1047.5Z" fill="#F7F3EF" stroke="#070707" stroke-width="4" stroke-linecap="round" stroke-linejoin="round"/>
<path d="M1213.57 1061.64C1224.04 1055.29 1228.34 1043.24 1223.17 1034.71C1218 1026.19 1205.33 1024.42 1194.86 1030.76C1184.4 1037.11 1180.1 1049.16 1185.27 1057.69C1190.43 1066.21 1203.11 1067.98 1213.57 1061.64Z" fill="#F7F3EF" stroke="#070707" stroke-width="4" stroke-linecap="round" stroke-linejoin="round"/>
<path d="M1211.76 1060.16C1220.62 1053.76 1223.57 1042.69 1218.33 1035.43C1213.09 1028.16 1201.66 1027.45 1192.79 1033.84C1183.92 1040.23 1180.98 1051.3 1186.22 1058.57C1191.46 1065.83 1202.89 1066.55 1211.76 1060.16Z" fill="#F7F3EF" stroke="#070707" stroke-width="4" stroke-linecap="round" stroke-linejoin="round"/>
<path d="M1205.9 1041.3C1205.66 1042.52 1202.52 1045.82 1202.52 1045.82C1202.52 1045.82 1200.7 1042.52 1200.94 1041.3C1201.11 1040.66 1201.5 1040.1 1202.02 1039.7C1202.55 1039.3 1203.2 1039.08 1203.86 1039.09C1204.15 1039.06 1204.44 1039.1 1204.72 1039.2C1204.99 1039.3 1205.24 1039.47 1205.44 1039.68C1205.64 1039.9 1205.78 1040.15 1205.86 1040.44C1205.94 1040.72 1205.95 1041.01 1205.9 1041.3V1041.3Z" fill="#F7F3EF" stroke="#070707" stroke-width="4" stroke-linecap="round" stroke-linejoin="round"/>
<path d="M1198.65 1052.87C1198.89 1051.65 1202.02 1048.35 1202.02 1048.35C1202.02 1048.35 1203.85 1051.65 1203.61 1052.87C1203.43 1053.51 1203.05 1054.07 1202.52 1054.47C1202 1054.86 1201.35 1055.08 1200.69 1055.07C1200.4 1055.1 1200.11 1055.07 1199.83 1054.96C1199.56 1054.86 1199.32 1054.7 1199.12 1054.48C1198.92 1054.27 1198.77 1054.01 1198.69 1053.73C1198.61 1053.45 1198.6 1053.16 1198.65 1052.87Z" fill="#F7F3EF" stroke="#070707" stroke-width="4" stroke-linecap="round" stroke-linejoin="round"/>
<path d="M1196.21 1044.88C1197.58 1044.88 1200.85 1047.08 1200.85 1047.08C1200.85 1047.08 1196.71 1049.29 1195.34 1049.29C1195.05 1049.32 1194.76 1049.27 1194.49 1049.17C1194.23 1049.06 1193.98 1048.9 1193.79 1048.68C1193.6 1048.47 1193.46 1048.21 1193.38 1047.93C1193.3 1047.66 1193.29 1047.36 1193.34 1047.08C1193.51 1046.45 1193.89 1045.9 1194.41 1045.5C1194.92 1045.1 1195.56 1044.89 1196.21 1044.88V1044.88Z" fill="#F7F3EF" stroke="#070707" stroke-width="4" stroke-linecap="round" stroke-linejoin="round"/>
<path d="M1208.34 1049.29C1206.97 1049.29 1203.7 1047.08 1203.7 1047.08C1203.7 1047.08 1207.84 1044.88 1209.21 1044.88C1209.5 1044.86 1209.78 1044.9 1210.05 1045C1210.32 1045.11 1210.56 1045.27 1210.75 1045.49C1210.95 1045.7 1211.09 1045.95 1211.17 1046.23C1211.25 1046.51 1211.26 1046.8 1211.21 1047.08C1211.04 1047.71 1210.66 1048.27 1210.15 1048.67C1209.63 1049.07 1208.99 1049.29 1208.34 1049.29Z" fill="#F7F3EF" stroke="#070707" stroke-width="4" stroke-linecap="round" stroke-linejoin="round"/>
<path d="M1194.55 1063.97C1205.12 1060.35 1211.5 1051.02 1208.8 1043.15C1206.09 1035.28 1195.34 1031.84 1184.77 1035.46C1174.2 1039.09 1167.82 1048.41 1170.53 1056.28C1173.23 1064.16 1183.98 1067.6 1194.55 1063.97Z" fill="#F7F3EF" stroke="#070707" stroke-width="4" stroke-linecap="round" stroke-linejoin="round"/>
<path d="M1192.79 1063.23C1202.01 1059.59 1207.24 1050.96 1204.47 1043.96C1201.71 1036.95 1192 1034.22 1182.78 1037.85C1173.56 1041.49 1168.33 1050.12 1171.1 1057.12C1173.86 1064.13 1183.57 1066.87 1192.79 1063.23Z" fill="#F7F3EF" stroke="#070707" stroke-width="4" stroke-linecap="round" stroke-linejoin="round"/>
<path d="M1191.2 1045.76C1190.97 1046.76 1188.04 1049.45 1188.04 1049.45C1188.04 1049.45 1186.34 1046.76 1186.57 1045.76C1186.77 1045.21 1187.15 1044.74 1187.64 1044.42C1188.13 1044.09 1188.7 1043.93 1189.29 1043.96C1190.57 1044 1191.42 1044.77 1191.2 1045.76Z" fill="#F7F3EF" stroke="#070707" stroke-width="4" stroke-linecap="round" stroke-linejoin="round"/>
<path d="M1184.42 1055.2C1184.65 1054.2 1187.58 1051.51 1187.58 1051.51C1187.58 1051.51 1189.28 1054.2 1189.05 1055.2C1188.84 1055.75 1188.47 1056.22 1187.98 1056.54C1187.49 1056.86 1186.91 1057.02 1186.33 1056.99C1185.05 1057 1184.2 1056.19 1184.42 1055.2Z" fill="#F7F3EF" stroke="#070707" stroke-width="4" stroke-linecap="round" stroke-linejoin="round"/>
<path d="M1182.15 1048.68C1183.42 1048.68 1186.48 1050.48 1186.48 1050.48C1186.48 1050.48 1182.61 1052.28 1181.33 1052.28C1180.05 1052.28 1179.2 1051.47 1179.42 1050.48C1179.63 1049.93 1180 1049.46 1180.49 1049.14C1180.98 1048.82 1181.56 1048.65 1182.15 1048.68V1048.68Z" fill="#F7F3EF" stroke="#070707" stroke-width="4" stroke-linecap="round" stroke-linejoin="round"/>
<path d="M1193.47 1052.28C1192.2 1052.28 1189.14 1050.48 1189.14 1050.48C1189.14 1050.48 1193.01 1048.68 1194.29 1048.68C1195.57 1048.68 1196.42 1049.49 1196.2 1050.48C1195.99 1051.03 1195.62 1051.5 1195.13 1051.82C1194.64 1052.15 1194.06 1052.31 1193.47 1052.28Z" fill="#F7F3EF" stroke="#070707" stroke-width="4" stroke-linecap="round" stroke-linejoin="round"/>
<path d="M673.419 822.601H687.81C689.043 822.601 690.225 823.091 691.098 823.963C691.97 824.835 692.46 826.017 692.46 827.251V858.091H668.77V827.251C668.77 826.017 669.259 824.835 670.131 823.963C671.004 823.091 672.186 822.601 673.419 822.601V822.601Z" fill="#F7F3EF" stroke="#070707" stroke-width="4" stroke-linecap="round" stroke-linejoin="round"/>
<path d="M685.74 858.091H691.34C698.477 858.091 705.321 860.926 710.368 865.973C715.415 871.019 718.25 877.864 718.25 885.001V1035.57C718.25 1037.69 717.407 1039.73 715.907 1041.23C714.406 1042.73 712.372 1043.57 710.25 1043.57H666.88C664.758 1043.57 662.723 1042.73 661.223 1041.23C659.723 1039.73 658.88 1037.69 658.88 1035.57V885.001C658.88 877.872 661.708 871.035 666.744 865.99C671.78 860.945 678.612 858.104 685.74 858.091V858.091Z" fill="#1C0E0C"/>
<path d="M670.82 858.091H676.42C683.557 858.091 690.402 860.926 695.448 865.973C700.495 871.019 703.33 877.864 703.33 885.001V1035.57C703.33 1037.69 702.487 1039.73 700.987 1041.23C699.487 1042.73 697.452 1043.57 695.33 1043.57H652C649.878 1043.57 647.843 1042.73 646.343 1041.23C644.843 1039.73 644 1037.69 644 1035.57V885.001C644 877.879 646.823 871.048 651.85 866.004C656.877 860.96 663.699 858.115 670.82 858.091Z" fill="#F7F3EF" stroke="#070707" stroke-width="4" stroke-linecap="round" stroke-linejoin="round"/>
<path d="M714.65 887.501V1031.21C714.65 1037.21 711.34 1040.54 705.84 1040.54H656.84C651.34 1040.54 648.04 1036.83 648.04 1030.82V887.501H714.65Z" fill="#1C0E0C"/>
<path d="M690.81 931.801H656.2C653.185 931.801 650.74 934.245 650.74 937.261V959.991C650.74 963.006 653.185 965.451 656.2 965.451H690.81C693.826 965.451 696.27 963.006 696.27 959.991V937.261C696.27 934.245 693.826 931.801 690.81 931.801Z" fill="#F7F3EF" stroke="#070707" stroke-width="4" stroke-linecap="round" stroke-linejoin="round"/>
<path d="M670.82 858.091H676.42C683.557 858.091 690.402 860.926 695.448 865.973C700.495 871.019 703.33 877.864 703.33 885.001V1035.57C703.33 1037.69 702.487 1039.73 700.987 1041.23C699.487 1042.73 697.452 1043.57 695.33 1043.57H652C649.878 1043.57 647.843 1042.73 646.343 1041.23C644.843 1039.73 644 1037.69 644 1035.57V885.001C644 877.879 646.823 871.048 651.85 866.004C656.877 860.96 663.699 858.115 670.82 858.091Z" fill="#F7F3EF" stroke="#070707" stroke-width="4" stroke-linecap="round" stroke-linejoin="round"/>
<path d="M468.518 1000.17C470.387 991.115 464.561 982.26 455.507 980.392C446.452 978.523 437.597 984.349 435.729 993.403C433.86 1002.46 439.686 1011.31 448.74 1013.18C457.795 1015.05 466.65 1009.22 468.518 1000.17Z" fill="#F7F3EF" stroke="#070707" stroke-width="4" stroke-linecap="round" stroke-linejoin="round"/>
<path d="M466.32 997.392C468.238 988.066 462.232 978.951 452.906 977.033C443.58 975.115 434.464 981.121 432.547 990.447C430.629 999.774 436.635 1008.89 445.961 1010.81C455.287 1012.72 464.402 1006.72 466.32 997.392Z" fill="#F7F3EF" stroke="#070707" stroke-width="4" stroke-linecap="round" stroke-linejoin="round"/>
<path d="M447.499 1007.94H463.999C467.712 1007.94 471.273 1009.41 473.899 1012.04C476.524 1014.67 477.999 1018.23 477.999 1021.94V1054.7C477.999 1055.83 477.55 1056.91 476.751 1057.71C475.953 1058.51 474.869 1058.96 473.739 1058.96H437.719C436.589 1058.96 435.506 1058.51 434.707 1057.71C433.908 1056.91 433.459 1055.83 433.459 1054.7V1022C433.451 1020.15 433.809 1018.32 434.511 1016.61C435.214 1014.91 436.247 1013.35 437.552 1012.05C438.858 1010.74 440.408 1009.7 442.115 1009C443.822 1008.29 445.652 1007.93 447.499 1007.94V1007.94Z" fill="#F7F3EF" stroke="#070707" stroke-width="4" stroke-linecap="round" stroke-linejoin="round"/>
<path d="M447.119 1007.94H463.659C467.372 1007.94 470.933 1009.41 473.559 1012.04C476.184 1014.67 477.659 1018.23 477.659 1021.94V1054.7C477.659 1055.83 477.21 1056.91 476.412 1057.71C475.613 1058.51 474.529 1058.96 473.399 1058.96H437.339C436.209 1058.96 435.126 1058.51 434.327 1057.71C433.528 1056.91 433.079 1055.83 433.079 1054.7V1022C433.071 1020.15 433.429 1018.32 434.131 1016.61C434.834 1014.91 435.868 1013.35 437.173 1012.05C438.478 1010.74 440.028 1009.7 441.735 1009C443.443 1008.29 445.272 1007.93 447.119 1007.94Z" fill="#1C0E0C"/>
<path d="M435.19 1007.94H451.73C455.443 1007.94 459.004 1009.41 461.629 1012.04C464.255 1014.67 465.73 1018.23 465.73 1021.94V1054.7C465.73 1055.83 465.281 1056.91 464.482 1057.71C463.683 1058.51 462.599 1058.96 461.47 1058.96H425.41C424.28 1058.96 423.196 1058.51 422.397 1057.71C421.598 1056.91 421.15 1055.83 421.15 1054.7V1022C421.142 1020.15 421.499 1018.32 422.202 1016.61C422.904 1014.91 423.938 1013.35 425.243 1012.05C426.548 1010.74 428.099 1009.7 429.806 1009C431.513 1008.29 433.343 1007.93 435.19 1007.94V1007.94Z" fill="#F7F3EF" stroke="#070707" stroke-width="4" stroke-linecap="round" stroke-linejoin="round"/>
<path d="M456.78 1026.53H435.02C433.131 1026.53 431.6 1028.06 431.6 1029.95V1040.96C431.6 1042.85 433.131 1044.38 435.02 1044.38H456.78C458.668 1044.38 460.2 1042.85 460.2 1040.96V1029.95C460.2 1028.06 458.668 1026.53 456.78 1026.53Z" fill="#F7F3EF" stroke="#070707" stroke-width="4" stroke-linecap="round" stroke-linejoin="round"/>
<path d="M454.089 1024.22H432.329C430.44 1024.22 428.909 1025.75 428.909 1027.64V1038.65C428.909 1040.54 430.44 1042.07 432.329 1042.07H454.089C455.978 1042.07 457.509 1040.54 457.509 1038.65V1027.64C457.509 1025.75 455.978 1024.22 454.089 1024.22Z" fill="#F7F3EF" stroke="#070707" stroke-width="4" stroke-linecap="round" stroke-linejoin="round"/>
<path d="M538.943 995.269C546.411 989.819 548.047 979.347 542.597 971.878C537.147 964.41 526.675 962.774 519.207 968.224C511.739 973.674 510.103 984.146 515.552 991.614C521.002 999.082 531.474 1000.72 538.943 995.269Z" fill="#F7F3EF" stroke="#070707" stroke-width="4" stroke-linecap="round" stroke-linejoin="round"/>
<path d="M543.733 980.992C545.118 971.572 538.603 962.813 529.183 961.429C519.763 960.045 511.004 966.559 509.62 975.979C508.236 985.4 514.75 994.158 524.17 995.543C533.59 996.927 542.349 990.413 543.733 980.992Z" fill="#F7F3EF" stroke="#070707" stroke-width="4" stroke-linecap="round" stroke-linejoin="round"/>
<path d="M524.359 992.55H540.899C544.612 992.55 548.173 994.025 550.799 996.65C553.424 999.276 554.899 1002.84 554.899 1006.55V1039.31C554.899 1040.44 554.45 1041.52 553.651 1042.32C552.852 1043.12 551.769 1043.57 550.639 1043.57H514.589C513.459 1043.57 512.376 1043.12 511.577 1042.32C510.778 1041.52 510.329 1040.44 510.329 1039.31V1006.55C510.329 1004.71 510.692 1002.89 511.398 1001.19C512.103 999.485 513.137 997.94 514.44 996.64C515.743 995.339 517.29 994.309 518.992 993.607C520.694 992.905 522.518 992.546 524.359 992.55Z" fill="#F7F3EF" stroke="#070707" stroke-width="4" stroke-linecap="round" stroke-linejoin="round"/>
<path d="M524.359 992.55H540.899C544.612 992.55 548.173 994.025 550.799 996.65C553.424 999.276 554.899 1002.84 554.899 1006.55V1039.31C554.899 1040.44 554.45 1041.52 553.651 1042.32C552.852 1043.12 551.769 1043.57 550.639 1043.57H514.589C513.459 1043.57 512.376 1043.12 511.577 1042.32C510.778 1041.52 510.329 1040.44 510.329 1039.31V1006.55C510.329 1004.71 510.692 1002.89 511.398 1001.19C512.103 999.485 513.137 997.94 514.44 996.64C515.743 995.339 517.29 994.309 518.992 993.607C520.694 992.905 522.518 992.546 524.359 992.55Z" fill="#1C0E0C"/>
<path d="M512.439 992.55H528.999C532.712 992.55 536.273 994.025 538.899 996.65C541.524 999.276 542.999 1002.84 542.999 1006.55V1039.31C542.999 1040.44 542.551 1041.52 541.752 1042.32C540.953 1043.12 539.869 1043.57 538.739 1043.57H502.659C501.53 1043.57 500.446 1043.12 499.647 1042.32C498.848 1041.52 498.399 1040.44 498.399 1039.31V1006.55C498.399 1004.71 498.763 1002.88 499.469 1001.18C500.175 999.482 501.21 997.937 502.514 996.636C503.818 995.336 505.366 994.305 507.07 993.604C508.773 992.903 510.598 992.545 512.439 992.55V992.55Z" fill="#F7F3EF" stroke="#070707" stroke-width="4" stroke-linecap="round" stroke-linejoin="round"/>
<path d="M534.089 1011.35H512.329C510.44 1011.35 508.909 1012.88 508.909 1014.77V1025.78C508.909 1027.67 510.44 1029.2 512.329 1029.2H534.089C535.978 1029.2 537.509 1027.67 537.509 1025.78V1014.77C537.509 1012.88 535.978 1011.35 534.089 1011.35Z" fill="#F7F3EF" stroke="#070707" stroke-width="4" stroke-linecap="round" stroke-linejoin="round"/>
<path d="M531.389 1009.04H509.629C507.74 1009.04 506.209 1010.57 506.209 1012.46V1023.47C506.209 1025.36 507.74 1026.89 509.629 1026.89H531.389C533.278 1026.89 534.809 1025.36 534.809 1023.47V1012.46C534.809 1010.57 533.278 1009.04 531.389 1009.04Z" fill="#F7F3EF" stroke="#070707" stroke-width="4" stroke-linecap="round" stroke-linejoin="round"/>
<path d="M1300.83 636.44V762.17H1402.43V645.42C1402.43 640.42 1397.32 636.42 1391 636.42L1300.83 636.44Z" fill="#1C0E0C"/>
<path d="M1239.17 597.04H1264.96V611.13L1239.17 606.78V597.04Z" fill="#F7F3EF" stroke="#070707" stroke-width="4" stroke-linecap="round" stroke-linejoin="round"/>
<path d="M1264.58 640.87H1675.25" stroke="#070707" stroke-width="4" stroke-linecap="round" stroke-linejoin="round"/>
<path d="M1721.55 571.25H1219.05V597.05H1721.55V571.25Z" fill="#F7F3EF" stroke="#070707" stroke-width="4" stroke-linecap="round" stroke-linejoin="round"/>
<path d="M1264.97 597.04H1239.17V640.87H1264.97V597.04Z" fill="#F7F3EF" stroke="#070707" stroke-width="4" stroke-linecap="round" stroke-linejoin="round"/>
<path d="M1676.03 597.04H1701.82V611.13L1676.03 606.78V597.04Z" fill="#F7F3EF" stroke="#070707" stroke-width="4" stroke-linecap="round" stroke-linejoin="round"/>
<path d="M1701.82 597.04H1676.02V640.87H1701.82V597.04Z" fill="#F7F3EF" stroke="#070707" stroke-width="4" stroke-linecap="round" stroke-linejoin="round"/>
<path d="M1391.08 636.44C1384.44 636.44 1379.08 640.44 1379.08 645.44V734.6H1284.67V645.42C1284.67 640.42 1290.04 636.42 1296.67 636.42L1391.08 636.44Z" fill="#F7F3EF" stroke="#070707" stroke-width="4" stroke-linecap="round" stroke-linejoin="round"/>
<path d="M1362.67 547.463C1392.16 517.974 1392.16 470.164 1362.67 440.676C1333.19 411.187 1285.38 411.187 1255.89 440.676C1226.4 470.164 1226.4 517.974 1255.89 547.463C1285.38 576.951 1333.19 576.951 1362.67 547.463Z" fill="#F7F3EF" stroke="#070707" stroke-width="4" stroke-linecap="round" stroke-linejoin="round"/>
<path d="M1348.84 508.449C1356.78 486.605 1345.5 462.466 1323.66 454.532C1301.81 446.599 1277.67 457.876 1269.74 479.72C1261.81 501.564 1273.08 525.704 1294.93 533.637C1316.77 541.57 1340.91 530.293 1348.84 508.449Z" fill="#F7F3EF" stroke="#070707" stroke-width="4" stroke-linecap="round" stroke-linejoin="round"/>
<path d="M1429.93 520.84H1530.46C1530.46 522.916 1529.63 524.906 1528.16 526.374C1526.7 527.841 1524.71 528.667 1522.63 528.67H1437.75C1435.67 528.667 1433.69 527.841 1432.22 526.373C1430.75 524.905 1429.93 522.915 1429.93 520.84V520.84Z" fill="#F7F3EF" stroke="#070707" stroke-width="4" stroke-linecap="round" stroke-linejoin="round"/>
<path d="M1420.67 538.23H1539.67C1539.67 540.689 1538.69 543.047 1536.95 544.785C1535.22 546.524 1532.86 547.5 1530.4 547.5H1429.94C1427.48 547.5 1425.12 546.524 1423.39 544.785C1421.65 543.047 1420.67 540.689 1420.67 538.23Z" fill="#F7F3EF" stroke="#070707" stroke-width="4" stroke-linecap="round" stroke-linejoin="round"/>
<path d="M1408 558.34H1552.4C1552.4 561.321 1551.21 564.18 1549.11 566.288C1547 568.396 1544.14 569.58 1541.16 569.58H1419.23C1416.25 569.575 1413.4 568.388 1411.29 566.281C1409.19 564.174 1408 561.318 1408 558.34V558.34Z" fill="#F7F3EF" stroke="#070707" stroke-width="4" stroke-linecap="round" stroke-linejoin="round"/>
<path d="M1416.05 512.74H1544.34C1544.65 512.746 1544.96 512.862 1545.2 513.067C1545.44 513.272 1545.6 513.555 1545.65 513.866C1545.71 514.177 1545.65 514.497 1545.5 514.771C1545.34 515.046 1545.09 515.257 1544.8 515.37L1531.2 520.37H1429.2L1415.59 515.37C1415.29 515.257 1415.05 515.046 1414.89 514.771C1414.74 514.497 1414.68 514.177 1414.74 513.866C1414.79 513.555 1414.95 513.272 1415.19 513.067C1415.43 512.862 1415.73 512.746 1416.05 512.74Z" fill="#F7F3EF" stroke="#070707" stroke-width="4" stroke-linecap="round" stroke-linejoin="round"/>
<path d="M1429.19 520.33H1531.19C1531.18 522.433 1530.34 524.446 1528.85 525.934C1527.36 527.421 1525.35 528.264 1523.25 528.28H1437.12C1436.08 528.28 1435.04 528.074 1434.08 527.675C1433.11 527.275 1432.24 526.689 1431.5 525.951C1430.76 525.213 1430.18 524.336 1429.78 523.372C1429.38 522.407 1429.18 521.374 1429.18 520.33H1429.19Z" fill="#F7F3EF" stroke="#070707" stroke-width="4" stroke-linecap="round" stroke-linejoin="round"/>
<path d="M1404.23 528.36H1556.15C1556.53 528.362 1556.89 528.497 1557.18 528.74C1557.47 528.983 1557.66 529.32 1557.73 529.691C1557.79 530.062 1557.72 530.445 1557.54 530.772C1557.35 531.099 1557.05 531.35 1556.7 531.48L1540.59 537.36H1419.79L1403.68 531.48C1403.33 531.35 1403.03 531.099 1402.84 530.772C1402.65 530.445 1402.59 530.062 1402.65 529.691C1402.72 529.32 1402.91 528.983 1403.2 528.74C1403.49 528.497 1403.85 528.362 1404.23 528.36V528.36Z" fill="#F7F3EF" stroke="#070707" stroke-width="4" stroke-linecap="round" stroke-linejoin="round"/>
<path d="M1419.79 537.36H1540.59C1540.59 539.853 1539.6 542.244 1537.84 544.007C1536.07 545.77 1533.68 546.76 1531.19 546.76H1429.19C1427.95 546.762 1426.73 546.52 1425.59 546.048C1424.45 545.576 1423.41 544.884 1422.54 544.011C1421.66 543.138 1420.97 542.101 1420.5 540.96C1420.02 539.819 1419.78 538.596 1419.78 537.36H1419.79Z" fill="#F7F3EF" stroke="#070707" stroke-width="4" stroke-linecap="round" stroke-linejoin="round"/>
<path d="M1388.06 546.85H1572.33C1572.79 546.843 1573.24 547.001 1573.59 547.294C1573.95 547.587 1574.19 547.997 1574.27 548.45C1574.35 548.903 1574.26 549.37 1574.03 549.768C1573.8 550.165 1573.43 550.467 1573 550.62L1553.46 557.76H1406.93L1387.39 550.62C1386.96 550.467 1386.59 550.165 1386.36 549.768C1386.13 549.37 1386.04 548.903 1386.12 548.45C1386.2 547.997 1386.44 547.587 1386.8 547.294C1387.15 547.001 1387.6 546.843 1388.06 546.85Z" fill="#F7F3EF" stroke="#070707" stroke-width="4" stroke-linecap="round" stroke-linejoin="round"/>
<path d="M1406.93 557.76H1553.46C1553.46 559.258 1553.16 560.741 1552.59 562.125C1552.02 563.508 1551.18 564.766 1550.12 565.824C1549.06 566.883 1547.8 567.723 1546.42 568.295C1545.03 568.867 1543.55 569.161 1542.05 569.16H1418.34C1416.84 569.161 1415.36 568.867 1413.97 568.295C1412.59 567.723 1411.33 566.883 1410.27 565.824C1409.21 564.766 1408.37 563.508 1407.8 562.125C1407.22 560.741 1406.93 559.258 1406.93 557.76V557.76Z" fill="#F7F3EF" stroke="#070707" stroke-width="4" stroke-linecap="round" stroke-linejoin="round"/>
<path d="M1458.3 647.19L1490.84 679.83C1495.58 684.58 1495.33 692.52 1490.27 697.55L1477.9 709.89C1472.85 714.89 1464.9 715.16 1460.18 710.41L1427.63 677.77L1458.3 647.19Z" fill="#F7F3EF" stroke="#070707" stroke-width="4" stroke-linecap="round" stroke-linejoin="round"/>
<path d="M1464.86 653.77C1470.61 648.03 1479.64 647.77 1485.04 653.18L1491.61 659.77C1497 665.18 1496.71 674.21 1490.96 679.95" stroke="#070707" stroke-width="4" stroke-linecap="round" stroke-linejoin="round"/>
<path d="M1478.62 640.87H1474.77V654.03H1478.62V640.87Z" fill="#F7F3EF" stroke="#070707" stroke-width="4" stroke-linecap="round" stroke-linejoin="round"/>
<path d="M1546.26 647.19L1578.81 679.83C1583.54 684.58 1583.29 692.52 1578.24 697.55L1565.86 709.89C1560.86 714.89 1552.86 715.16 1548.14 710.41L1515.59 677.77L1546.26 647.19Z" fill="#F7F3EF" stroke="#070707" stroke-width="4" stroke-linecap="round" stroke-linejoin="round"/>
<path d="M1546.26 647.19L1578.81 679.83C1583.54 684.58 1583.29 692.52 1578.24 697.55L1565.86 709.89C1560.86 714.89 1552.86 715.16 1548.14 710.41L1515.59 677.77L1546.26 647.19Z" fill="#F7F3EF" stroke="#070707" stroke-width="4" stroke-linecap="round" stroke-linejoin="round"/>
<path d="M1552.82 653.77C1558.57 648.03 1567.61 647.77 1573 653.18L1579.57 659.77C1584.96 665.18 1584.68 674.21 1578.92 679.95" stroke="#070707" stroke-width="4" stroke-linecap="round" stroke-linejoin="round"/>
<path d="M1531.14 675.6C1531.59 676.047 1531.89 676.618 1532.01 677.238C1532.14 677.859 1532.07 678.502 1531.83 679.086C1531.59 679.671 1531.18 680.17 1530.65 680.521C1530.12 680.873 1529.51 681.06 1528.87 681.06C1528.24 681.06 1527.62 680.873 1527.1 680.521C1526.57 680.17 1526.16 679.671 1525.92 679.086C1525.68 678.502 1525.61 677.859 1525.73 677.238C1525.86 676.618 1526.16 676.047 1526.61 675.6C1526.91 675.302 1527.26 675.066 1527.65 674.904C1528.04 674.743 1528.45 674.66 1528.87 674.66C1529.29 674.66 1529.71 674.743 1530.1 674.904C1530.49 675.066 1530.84 675.302 1531.14 675.6V675.6Z" fill="#F7F3EF" stroke="#070707" stroke-width="4" stroke-linecap="round" stroke-linejoin="round"/>
<path d="M1548.48 658.26C1548.93 658.709 1549.23 659.281 1549.36 659.904C1549.48 660.526 1549.42 661.172 1549.17 661.758C1548.93 662.345 1548.52 662.846 1547.99 663.199C1547.46 663.551 1546.84 663.74 1546.21 663.74C1545.57 663.74 1544.95 663.551 1544.43 663.199C1543.9 662.846 1543.49 662.345 1543.24 661.758C1543 661.172 1542.94 660.526 1543.06 659.904C1543.18 659.281 1543.49 658.709 1543.94 658.26C1544.24 657.961 1544.59 657.723 1544.98 657.561C1545.37 657.399 1545.79 657.315 1546.21 657.315C1546.63 657.315 1547.05 657.399 1547.44 657.561C1547.83 657.723 1548.18 657.961 1548.48 658.26V658.26Z" fill="#F7F3EF" stroke="#070707" stroke-width="4" stroke-linecap="round" stroke-linejoin="round"/>
<path d="M1539.81 666.93C1540.26 667.378 1540.56 667.948 1540.68 668.568C1540.81 669.189 1540.74 669.832 1540.5 670.416C1540.26 671.001 1539.85 671.5 1539.32 671.851C1538.79 672.203 1538.18 672.39 1537.54 672.39C1536.91 672.39 1536.29 672.203 1535.77 671.851C1535.24 671.5 1534.83 671.001 1534.59 670.416C1534.35 669.832 1534.28 669.189 1534.4 668.568C1534.53 667.948 1534.83 667.378 1535.28 666.93C1535.58 666.632 1535.93 666.396 1536.32 666.234C1536.71 666.073 1537.12 665.99 1537.54 665.99C1537.96 665.99 1538.38 666.073 1538.77 666.234C1539.16 666.396 1539.51 666.632 1539.81 666.93V666.93Z" fill="#F7F3EF" stroke="#070707" stroke-width="4" stroke-linecap="round" stroke-linejoin="round"/>
<path d="M1533.11 687.54C1533.56 687.988 1533.86 688.558 1533.98 689.179C1534.11 689.799 1534.04 690.442 1533.8 691.027C1533.56 691.611 1533.15 692.11 1532.62 692.462C1532.09 692.813 1531.48 693.001 1530.84 693.001C1530.21 693.001 1529.59 692.813 1529.07 692.462C1528.54 692.11 1528.13 691.611 1527.89 691.027C1527.65 690.442 1527.58 689.799 1527.7 689.179C1527.83 688.558 1528.13 687.988 1528.58 687.54C1528.88 687.242 1529.23 687.006 1529.62 686.845C1530.01 686.684 1530.42 686.601 1530.84 686.601C1531.26 686.601 1531.68 686.684 1532.07 686.845C1532.46 687.006 1532.81 687.242 1533.11 687.54V687.54Z" fill="#F7F3EF" stroke="#070707" stroke-width="4" stroke-linecap="round" stroke-linejoin="round"/>
<path d="M1551.32 669.34C1551.77 669.788 1552.07 670.358 1552.19 670.978C1552.32 671.599 1552.25 672.242 1552.01 672.826C1551.77 673.411 1551.36 673.91 1550.83 674.262C1550.3 674.613 1549.69 674.8 1549.05 674.8C1548.42 674.8 1547.8 674.613 1547.28 674.262C1546.75 673.91 1546.34 673.411 1546.1 672.826C1545.86 672.242 1545.79 671.599 1545.91 670.978C1546.04 670.358 1546.34 669.788 1546.79 669.34C1547.09 669.042 1547.44 668.806 1547.83 668.645C1548.22 668.483 1548.63 668.4 1549.05 668.4C1549.47 668.4 1549.89 668.483 1550.28 668.645C1550.67 668.806 1551.02 669.042 1551.32 669.34V669.34Z" fill="#F7F3EF" stroke="#070707" stroke-width="4" stroke-linecap="round" stroke-linejoin="round"/>
<path d="M1560.42 660.23C1560.87 660.678 1561.17 661.248 1561.29 661.868C1561.42 662.489 1561.35 663.132 1561.11 663.716C1560.87 664.301 1560.46 664.8 1559.93 665.151C1559.41 665.503 1558.79 665.69 1558.15 665.69C1557.52 665.69 1556.9 665.503 1556.38 665.151C1555.85 664.8 1555.44 664.301 1555.2 663.716C1554.96 663.132 1554.89 662.489 1555.02 661.868C1555.14 661.248 1555.44 660.678 1555.89 660.23C1556.19 659.931 1556.54 659.693 1556.93 659.531C1557.32 659.37 1557.73 659.286 1558.15 659.286C1558.58 659.286 1558.99 659.37 1559.38 659.531C1559.77 659.693 1560.12 659.931 1560.42 660.23V660.23Z" fill="#F7F3EF" stroke="#070707" stroke-width="4" stroke-linecap="round" stroke-linejoin="round"/>
<path d="M1542.22 678.44C1542.67 678.888 1542.97 679.458 1543.09 680.079C1543.22 680.7 1543.15 681.343 1542.91 681.927C1542.67 682.511 1542.26 683.011 1541.73 683.362C1541.2 683.713 1540.59 683.901 1539.95 683.901C1539.32 683.901 1538.7 683.713 1538.18 683.362C1537.65 683.011 1537.24 682.511 1537 681.927C1536.76 681.343 1536.69 680.7 1536.81 680.079C1536.94 679.458 1537.24 678.888 1537.69 678.44C1537.99 678.143 1538.34 677.906 1538.73 677.745C1539.12 677.584 1539.53 677.501 1539.95 677.501C1540.37 677.501 1540.79 677.584 1541.18 677.745C1541.57 677.906 1541.92 678.143 1542.22 678.44V678.44Z" fill="#F7F3EF" stroke="#070707" stroke-width="4" stroke-linecap="round" stroke-linejoin="round"/>
<path d="M1545.06 689.51C1545.51 689.958 1545.81 690.528 1545.93 691.148C1546.06 691.769 1545.99 692.412 1545.75 692.996C1545.51 693.581 1545.1 694.08 1544.57 694.431C1544.04 694.783 1543.43 694.97 1542.79 694.97C1542.16 694.97 1541.54 694.783 1541.02 694.431C1540.49 694.08 1540.08 693.581 1539.84 692.996C1539.6 692.412 1539.53 691.769 1539.65 691.148C1539.78 690.528 1540.08 689.958 1540.53 689.51C1540.83 689.212 1541.18 688.976 1541.57 688.815C1541.96 688.653 1542.37 688.57 1542.79 688.57C1543.21 688.57 1543.63 688.653 1544.02 688.815C1544.41 688.976 1544.76 689.212 1545.06 689.51V689.51Z" fill="#F7F3EF" stroke="#070707" stroke-width="4" stroke-linecap="round" stroke-linejoin="round"/>
<path d="M1562.39 672.18C1562.84 672.628 1563.14 673.198 1563.26 673.818C1563.39 674.439 1563.32 675.082 1563.08 675.666C1562.84 676.251 1562.43 676.75 1561.9 677.101C1561.37 677.453 1560.76 677.64 1560.12 677.64C1559.49 677.64 1558.87 677.453 1558.35 677.101C1557.82 676.75 1557.41 676.251 1557.17 675.666C1556.93 675.082 1556.86 674.439 1556.98 673.818C1557.11 673.198 1557.41 672.628 1557.86 672.18C1558.16 671.882 1558.51 671.646 1558.9 671.484C1559.29 671.323 1559.7 671.24 1560.12 671.24C1560.54 671.24 1560.96 671.323 1561.35 671.484C1561.74 671.646 1562.09 671.882 1562.39 672.18V672.18Z" fill="#F7F3EF" stroke="#070707" stroke-width="4" stroke-linecap="round" stroke-linejoin="round"/>
<path d="M1553.73 680.85C1554.18 681.297 1554.48 681.868 1554.6 682.488C1554.73 683.109 1554.66 683.752 1554.42 684.336C1554.18 684.921 1553.77 685.42 1553.24 685.771C1552.71 686.123 1552.1 686.31 1551.46 686.31C1550.83 686.31 1550.21 686.123 1549.69 685.771C1549.16 685.42 1548.75 684.921 1548.51 684.336C1548.27 683.752 1548.2 683.109 1548.32 682.488C1548.45 681.868 1548.75 681.297 1549.2 680.85C1549.5 680.552 1549.85 680.316 1550.24 680.154C1550.63 679.993 1551.04 679.91 1551.46 679.91C1551.88 679.91 1552.3 679.993 1552.69 680.154C1553.08 680.316 1553.43 680.552 1553.73 680.85V680.85Z" fill="#F7F3EF" stroke="#070707" stroke-width="4" stroke-linecap="round" stroke-linejoin="round"/>
<path d="M1547 701.46C1547.45 701.908 1547.75 702.478 1547.87 703.099C1548 703.719 1547.93 704.362 1547.69 704.947C1547.45 705.531 1547.04 706.03 1546.51 706.382C1545.99 706.733 1545.37 706.92 1544.73 706.92C1544.1 706.92 1543.48 706.733 1542.96 706.382C1542.43 706.03 1542.02 705.531 1541.78 704.947C1541.54 704.362 1541.47 703.719 1541.6 703.099C1541.72 702.478 1542.02 701.908 1542.47 701.46C1542.77 701.162 1543.12 700.926 1543.51 700.765C1543.9 700.603 1544.31 700.521 1544.73 700.521C1545.15 700.521 1545.57 700.603 1545.96 700.765C1546.35 700.926 1546.7 701.162 1547 701.46V701.46Z" fill="#F7F3EF" stroke="#070707" stroke-width="4" stroke-linecap="round" stroke-linejoin="round"/>
<path d="M1562.97 688.72C1564.74 688.72 1566.17 687.288 1566.17 685.52C1566.17 683.753 1564.74 682.32 1562.97 682.32C1561.2 682.32 1559.77 683.753 1559.77 685.52C1559.77 687.288 1561.2 688.72 1562.97 688.72Z" fill="#F7F3EF" stroke="#070707" stroke-width="4" stroke-linecap="round" stroke-linejoin="round"/>
<path d="M1572.08 679.62C1573.85 679.62 1575.28 678.187 1575.28 676.42C1575.28 674.652 1573.85 673.22 1572.08 673.22C1570.31 673.22 1568.88 674.652 1568.88 676.42C1568.88 678.187 1570.31 679.62 1572.08 679.62Z" fill="#F7F3EF" stroke="#070707" stroke-width="4" stroke-linecap="round" stroke-linejoin="round"/>
<path d="M1556.13 692.36C1556.58 692.807 1556.88 693.378 1557 693.998C1557.13 694.619 1557.06 695.262 1556.82 695.846C1556.58 696.431 1556.17 696.93 1555.64 697.281C1555.12 697.633 1554.5 697.82 1553.86 697.82C1553.23 697.82 1552.61 697.633 1552.09 697.281C1551.56 696.93 1551.15 696.431 1550.91 695.846C1550.67 695.262 1550.6 694.619 1550.73 693.998C1550.85 693.378 1551.15 692.807 1551.6 692.36C1551.9 692.061 1552.25 691.823 1552.64 691.661C1553.03 691.499 1553.44 691.416 1553.86 691.416C1554.29 691.416 1554.7 691.499 1555.09 691.661C1555.48 691.823 1555.83 692.061 1556.13 692.36V692.36Z" fill="#F7F3EF" stroke="#070707" stroke-width="4" stroke-linecap="round" stroke-linejoin="round"/>
<path d="M1559 703.43C1559.45 703.878 1559.75 704.448 1559.87 705.068C1560 705.689 1559.93 706.332 1559.69 706.916C1559.45 707.501 1559.04 708 1558.51 708.351C1557.99 708.703 1557.37 708.89 1556.73 708.89C1556.1 708.89 1555.48 708.703 1554.96 708.351C1554.43 708 1554.02 707.501 1553.78 706.916C1553.54 706.332 1553.47 705.689 1553.6 705.068C1553.72 704.448 1554.02 703.878 1554.47 703.43C1554.77 703.132 1555.12 702.896 1555.51 702.734C1555.9 702.573 1556.31 702.49 1556.73 702.49C1557.15 702.49 1557.57 702.573 1557.96 702.734C1558.35 702.896 1558.7 703.132 1559 703.43V703.43Z" fill="#F7F3EF" stroke="#070707" stroke-width="4" stroke-linecap="round" stroke-linejoin="round"/>
<path d="M1576.31 686.1C1576.76 686.547 1577.06 687.118 1577.18 687.738C1577.31 688.359 1577.24 689.002 1577 689.586C1576.76 690.171 1576.35 690.67 1575.82 691.021C1575.29 691.373 1574.68 691.56 1574.04 691.56C1573.41 691.56 1572.79 691.373 1572.27 691.021C1571.74 690.67 1571.33 690.171 1571.09 689.586C1570.85 689.002 1570.78 688.359 1570.9 687.738C1571.03 687.118 1571.33 686.547 1571.78 686.1C1572.08 685.802 1572.43 685.566 1572.82 685.404C1573.21 685.243 1573.62 685.16 1574.04 685.16C1574.46 685.16 1574.88 685.243 1575.27 685.404C1575.66 685.566 1576.01 685.802 1576.31 686.1V686.1Z" fill="#F7F3EF" stroke="#070707" stroke-width="4" stroke-linecap="round" stroke-linejoin="round"/>
<path d="M1567.65 694.77C1568.1 695.219 1568.4 695.791 1568.53 696.413C1568.65 697.036 1568.59 697.681 1568.34 698.268C1568.1 698.854 1567.69 699.356 1567.16 699.708C1566.63 700.061 1566.01 700.249 1565.38 700.249C1564.74 700.249 1564.12 700.061 1563.6 699.708C1563.07 699.356 1562.66 698.854 1562.41 698.268C1562.17 697.681 1562.11 697.036 1562.23 696.413C1562.35 695.791 1562.66 695.219 1563.11 694.77C1563.41 694.47 1563.76 694.233 1564.15 694.071C1564.54 693.909 1564.96 693.825 1565.38 693.825C1565.8 693.825 1566.22 693.909 1566.61 694.071C1567 694.233 1567.35 694.47 1567.65 694.77V694.77Z" fill="#F7F3EF" stroke="#070707" stroke-width="4" stroke-linecap="round" stroke-linejoin="round"/>
<path d="M1565.5 640.87H1561.65V654.03H1565.5V640.87Z" fill="#F7F3EF" stroke="#070707" stroke-width="4" stroke-linecap="round" stroke-linejoin="round"/>
<path d="M1634.22 647.19L1666.77 679.83C1671.5 684.58 1671.25 692.52 1666.2 697.55L1653.82 709.89C1648.82 714.89 1640.82 715.16 1636.1 710.41L1603.55 677.77L1634.22 647.19Z" fill="#F7F3EF" stroke="#070707" stroke-width="4" stroke-linecap="round" stroke-linejoin="round"/>
<path d="M1640.78 653.77C1646.53 648.03 1655.57 647.77 1660.96 653.18L1667.53 659.77C1672.93 665.18 1672.64 674.21 1666.89 679.95" stroke="#070707" stroke-width="4" stroke-linecap="round" stroke-linejoin="round"/>
<path d="M1653.15 640.87H1649.3V654.03H1653.15V640.87Z" fill="#F7F3EF" stroke="#070707" stroke-width="4" stroke-linecap="round" stroke-linejoin="round"/>
<path d="M1678.55 434.36H1669.39C1667.75 434.374 1666.13 434.066 1664.62 433.452C1663.1 432.838 1661.72 431.931 1660.55 430.783C1659.39 429.634 1658.46 428.267 1657.83 426.76C1657.19 425.253 1656.86 423.635 1656.85 422V419.34C1656.85 417.737 1657.16 416.149 1657.78 414.67C1658.06 413.968 1658.42 413.297 1658.84 412.67C1659.45 411.188 1659.77 409.602 1659.77 408V406.25C1659.72 402.966 1658.37 399.835 1656.02 397.54C1653.67 395.246 1650.51 393.973 1647.23 394H1645.45C1643.82 393.985 1642.2 394.292 1640.68 394.903C1639.17 395.515 1637.79 396.418 1636.63 397.562C1635.46 398.706 1634.54 400.068 1633.9 401.571C1633.26 403.074 1632.92 404.687 1632.91 406.32V408.07C1632.91 409.672 1633.22 411.26 1633.84 412.74C1634.26 413.369 1634.61 414.039 1634.9 414.74C1635.52 416.219 1635.83 417.807 1635.83 419.41V422C1635.83 428.8 1630.22 436.32 1623.29 436.32H1614.12C1605.46 436.32 1598.44 441.21 1598.44 449.73V554.89C1598.48 559.01 1600.15 562.947 1603.09 565.834C1606.03 568.722 1610 570.324 1614.12 570.289H1678.55C1682.67 570.324 1686.64 568.722 1689.58 565.834C1692.52 562.947 1694.19 559.01 1694.23 554.89V449.77C1694.21 447.728 1693.79 445.71 1693 443.83C1692.2 441.951 1691.04 440.247 1689.58 438.815C1688.13 437.384 1686.4 436.254 1684.51 435.49C1682.62 434.725 1680.59 434.341 1678.55 434.36ZM1646.33 404.31C1647.01 404.321 1647.68 404.535 1648.24 404.923C1648.8 405.312 1649.24 405.858 1649.49 406.493C1649.75 407.128 1649.81 407.823 1649.67 408.492C1649.52 409.162 1649.19 409.774 1648.7 410.254C1648.21 410.733 1647.6 411.057 1646.92 411.187C1646.25 411.316 1645.56 411.244 1644.93 410.979C1644.3 410.715 1643.76 410.27 1643.38 409.701C1643 409.132 1642.8 408.463 1642.8 407.78C1642.8 407.32 1642.9 406.866 1643.08 406.442C1643.26 406.019 1643.52 405.636 1643.85 405.313C1644.17 404.991 1644.56 404.737 1644.99 404.564C1645.41 404.392 1645.87 404.306 1646.33 404.31V404.31Z" fill="#F7F3EF" stroke="#070707" stroke-width="4" stroke-linecap="round" stroke-linejoin="round"/>
<path d="M1673.89 432.75H1664.73C1661.4 432.75 1658.21 431.429 1655.86 429.077C1653.51 426.725 1652.19 423.536 1652.19 420.21V417.5C1652.19 415.871 1652.51 414.259 1653.12 412.75C1653.41 412.051 1653.76 411.381 1654.18 410.75C1654.8 409.238 1655.11 407.622 1655.11 405.99V404.22C1655.11 402.573 1654.79 400.941 1654.16 399.419C1653.53 397.897 1652.6 396.514 1651.44 395.35C1650.27 394.185 1648.89 393.261 1647.37 392.632C1645.85 392.002 1644.22 391.678 1642.57 391.68H1640.8C1639.15 391.678 1637.52 392.002 1636 392.632C1634.48 393.261 1633.09 394.185 1631.93 395.35C1630.76 396.514 1629.84 397.897 1629.21 399.419C1628.58 400.941 1628.26 402.573 1628.26 404.22V406C1628.26 407.632 1628.57 409.248 1629.19 410.76C1629.59 411.392 1629.92 412.062 1630.19 412.76C1630.81 414.267 1631.13 415.88 1631.13 417.51V420.22C1631.13 423.545 1629.8 426.733 1627.45 429.084C1625.1 431.435 1621.91 432.757 1618.59 432.76H1609.42C1607.36 432.758 1605.32 433.163 1603.42 433.951C1601.51 434.738 1599.79 435.893 1598.33 437.349C1596.87 438.806 1595.72 440.535 1594.93 442.438C1594.14 444.341 1593.74 446.38 1593.74 448.44V555.44C1593.74 557.499 1594.14 559.538 1594.93 561.44C1595.72 563.343 1596.88 565.071 1598.33 566.527C1599.79 567.983 1601.52 569.138 1603.42 569.926C1605.32 570.714 1607.36 571.12 1609.42 571.12H1673.84C1675.9 571.121 1677.94 570.716 1679.84 569.929C1681.75 569.142 1683.48 567.987 1684.93 566.531C1686.39 565.074 1687.55 563.346 1688.33 561.443C1689.12 559.539 1689.53 557.5 1689.53 555.44V448.44C1689.53 444.286 1687.89 440.302 1684.95 437.36C1682.02 434.418 1678.04 432.76 1673.89 432.75V432.75ZM1641.68 409.23C1640.98 409.23 1640.29 409.022 1639.71 408.632C1639.13 408.243 1638.68 407.69 1638.41 407.042C1638.14 406.395 1638.07 405.682 1638.21 404.995C1638.35 404.308 1638.68 403.678 1639.18 403.183C1639.68 402.688 1640.31 402.352 1640.99 402.216C1641.68 402.081 1642.39 402.153 1643.04 402.422C1643.69 402.691 1644.24 403.147 1644.63 403.73C1645.02 404.314 1645.22 404.999 1645.22 405.7C1645.22 406.164 1645.13 406.624 1644.95 407.053C1644.77 407.482 1644.51 407.871 1644.18 408.199C1643.85 408.527 1643.46 408.787 1643.03 408.964C1642.6 409.141 1642.14 409.231 1641.68 409.23V409.23Z" fill="#F7F3EF" stroke="#070707" stroke-width="4" stroke-linecap="round" stroke-linejoin="round"/>
<path d="M483.84 456.17H513.93V496.94C513.93 500.918 512.349 504.733 509.536 507.547C506.723 510.36 502.908 511.94 498.93 511.94V511.94C494.952 511.94 491.136 510.36 488.323 507.547C485.51 504.733 483.93 500.918 483.93 496.94V456.17H483.84Z" fill="#F7F3EF" stroke="#070707" stroke-width="4" stroke-linecap="round" stroke-linejoin="round"/>
<path d="M498.89 511.91V559.95" stroke="#070707" stroke-width="4" stroke-linecap="round" stroke-linejoin="round"/>
<path d="M514.789 571.25L498.889 560.2L482.979 571.25H514.789Z" fill="#F7F3EF" stroke="#070707" stroke-width="4" stroke-linecap="round" stroke-linejoin="round"/>
<path d="M535.069 456.17H565.159V496.94C565.159 500.918 563.579 504.733 560.766 507.547C557.953 510.36 554.138 511.94 550.159 511.94V511.94C546.181 511.94 542.366 510.36 539.553 507.547C536.74 504.733 535.159 500.918 535.159 496.94V456.17H535.069Z" fill="#F7F3EF" stroke="#070707" stroke-width="4" stroke-linecap="round" stroke-linejoin="round"/>
<path d="M550.119 511.91V559.95" stroke="#070707" stroke-width="4" stroke-linecap="round" stroke-linejoin="round"/>
<path d="M566.02 571.25L550.12 560.2L534.22 571.25H566.02Z" fill="#F7F3EF" stroke="#070707" stroke-width="4" stroke-linecap="round" stroke-linejoin="round"/>
<path d="M586.31 456.17H616.4V496.94C616.4 500.918 614.819 504.733 612.006 507.547C609.193 510.36 605.378 511.94 601.4 511.94V511.94C597.421 511.94 593.606 510.36 590.793 507.547C587.98 504.733 586.4 500.918 586.4 496.94V456.17H586.31Z" fill="#F7F3EF" stroke="#070707" stroke-width="4" stroke-linecap="round" stroke-linejoin="round"/>
<path d="M601.35 511.91V559.95" stroke="#070707" stroke-width="4" stroke-linecap="round" stroke-linejoin="round"/>
<path d="M617.259 571.25L601.359 560.2L585.449 571.25H617.259Z" fill="#F7F3EF" stroke="#070707" stroke-width="4" stroke-linecap="round" stroke-linejoin="round"/>
<path d="M370.979 640.87H648.02" stroke="#070707" stroke-width="4" stroke-linecap="round" stroke-linejoin="round"/>
<path d="M647.76 597.04H673.56V611.13L647.76 606.78V597.04Z" fill="#F7F3EF" stroke="#070707" stroke-width="4" stroke-linecap="round" stroke-linejoin="round"/>
<path d="M345.22 597.04H371.02V611.13L345.22 606.78V597.04Z" fill="#F7F3EF" stroke="#070707" stroke-width="4" stroke-linecap="round" stroke-linejoin="round"/>
<path d="M709.44 571.25H309.35V597.05H709.44V571.25Z" fill="#F7F3EF" stroke="#070707" stroke-width="4" stroke-linecap="round" stroke-linejoin="round"/>
<path d="M371.02 597.04H345.22V640.87H371.02V597.04Z" fill="#F7F3EF" stroke="#070707" stroke-width="4" stroke-linecap="round" stroke-linejoin="round"/>
<path d="M673.56 597.04H647.76V640.87H673.56V597.04Z" fill="#F7F3EF" stroke="#070707" stroke-width="4" stroke-linecap="round" stroke-linejoin="round"/>
<path d="M348.47 514.14H439.47V524.62C439.47 536.682 434.678 548.25 426.149 556.779C417.62 565.308 406.052 570.1 393.99 570.1C381.928 570.1 370.36 565.308 361.831 556.779C353.301 548.25 348.51 536.682 348.51 524.62V514.14H348.47Z" fill="#E57B07" stroke="#070707" stroke-width="4" stroke-linecap="round" stroke-linejoin="round"/>
<path d="M389.34 514.14C389.34 514.14 393 449.21 415 418.56Z" fill="#F7F3EF"/>
<path d="M389.34 514.14C389.34 514.14 393 449.21 415 418.56" stroke="#070707" stroke-width="4" stroke-linecap="round" stroke-linejoin="round"/>
<path d="M397.2 462.3C397.2 462.3 400.87 434.05 428.2 432.4C428.22 432.4 432.08 462.87 397.2 462.3Z" fill="#EFAF00" stroke="black" stroke-width="4" stroke-linecap="round" stroke-linejoin="round"/>
<path d="M401.86 445C401.86 445 417.35 414.59 393.95 402.73C394 402.74 380.11 431.25 401.86 445Z" fill="#EFAF00" stroke="black" stroke-width="4" stroke-linecap="round" stroke-linejoin="round"/>
<path d="M342.2 468.64C342.2 468.64 340.8 434.55 314.59 435.64C314.59 435.67 316.5 467.31 342.2 468.64Z" fill="#EFAF00" stroke="black" stroke-width="4" stroke-linecap="round" stroke-linejoin="round"/>
<path d="M391.77 491.12C391.77 491.12 402.52 456.62 378.46 445.01C378.46 445 366.19 479.32 391.77 491.12Z" fill="#EFAF00" stroke="black" stroke-width="4" stroke-linecap="round" stroke-linejoin="round"/>
<path d="M390.67 504.62C390.67 504.62 387.12 472.75 415.09 468.06C415.09 468.06 421.3 500 390.67 504.62Z" fill="#EFAF00" stroke="black" stroke-width="4" stroke-linecap="round" stroke-linejoin="round"/>
<path d="M414.24 419.55C414.24 419.55 410.69 387.69 438.66 383C438.66 383 444.87 414.89 414.24 419.55Z" fill="#EFAF00" stroke="black" stroke-width="4" stroke-linecap="round" stroke-linejoin="round"/>
<path d="M341.55 468.06L375.52 514.14" stroke="#070707" stroke-width="4" stroke-linecap="round" stroke-linejoin="round"/>
<path d="M357.75 490C357.75 490 341.88 469.53 350.75 447.32C350.78 447.35 370.32 462.32 357.75 490Z" fill="#EFAF00" stroke="black" stroke-width="4" stroke-linecap="round" stroke-linejoin="round"/>
<path d="M360.33 493.54C360.33 493.54 341.55 506.22 323.76 482.82C323.76 482.82 345.15 473 360.33 493.54Z" fill="#EFAF00" stroke="black" stroke-width="4" stroke-linecap="round" stroke-linejoin="round"/>
<path d="M375.52 514C375.52 514 360.6 528.08 341.27 509.79C341.27 509.8 358.93 497.84 375.52 514Z" fill="#EFAF00" stroke="black" stroke-width="4" stroke-linecap="round" stroke-linejoin="round"/>
<path d="M375.52 514.14C375.52 514.14 361.65 498.31 371.52 482.14C371.54 482.16 387.41 498 375.52 514.14Z" fill="#EFAF00" stroke="black" stroke-width="4" stroke-linecap="round" stroke-linejoin="round"/>
<path d="M415 514.1C415 514.1 419 490.73 440.09 487.87C440.13 487.87 443.71 514.1 415 514.1Z" fill="#EFAF00" stroke="black" stroke-width="4" stroke-linecap="round" stroke-linejoin="round"/>
<path d="M502.66 683.841H499.34V777.111H502.66V683.841Z" fill="#F7F3EF" stroke="#070707" stroke-width="4" stroke-linecap="round" stroke-linejoin="round"/>
<path d="M513.059 821.9H488.939C488.06 821.882 487.195 821.674 486.403 821.293C485.611 820.911 484.91 820.364 484.348 819.688C483.786 819.012 483.375 818.223 483.144 817.374C482.913 816.526 482.867 815.638 483.009 814.77L484.749 781.35C484.939 779.905 485.643 778.578 486.732 777.61C487.821 776.642 489.222 776.099 490.679 776.08H511.309C512.767 776.099 514.17 776.641 515.261 777.609C516.351 778.577 517.057 779.905 517.249 781.35L518.999 814.77C519.141 815.639 519.095 816.528 518.863 817.377C518.632 818.226 518.221 819.015 517.657 819.691C517.094 820.367 516.392 820.915 515.598 821.296C514.805 821.677 513.939 821.883 513.059 821.9V821.9Z" fill="#F7F3EF" stroke="#070707" stroke-width="4" stroke-linecap="round" stroke-linejoin="round"/>
<path d="M501 785.5V813.9" stroke="#070707" stroke-width="4" stroke-linecap="round" stroke-linejoin="round"/>
<path d="M508.38 787.87V811.54" stroke="#070707" stroke-width="4" stroke-linecap="round" stroke-linejoin="round"/>
<path d="M493.619 787.87V811.54" stroke="#070707" stroke-width="4" stroke-linecap="round" stroke-linejoin="round"/>
<path d="M505.359 643.67L503.889 682.27C503.853 683.01 503.532 683.708 502.993 684.216C502.455 684.725 501.74 685.006 500.999 685V685C500.259 685.001 499.548 684.714 499.015 684.202C498.482 683.689 498.168 682.989 498.139 682.25L496.679 647.58C496.679 646.439 496.455 645.309 496.018 644.254C495.581 643.2 494.941 642.242 494.134 641.435C493.327 640.628 492.369 639.988 491.315 639.552C490.26 639.115 489.13 638.89 487.989 638.89V638.89C488.018 637.847 488.453 636.856 489.203 636.129C489.952 635.402 490.955 634.997 491.999 635H496.729C499.02 635.016 501.212 635.936 502.828 637.559C504.444 639.183 505.354 641.379 505.359 643.67V643.67Z" fill="#F7F3EF" stroke="#070707" stroke-width="4" stroke-linecap="round" stroke-linejoin="round"/>
<path d="M397.219 683.841H393.899V781.221H397.219V683.841Z" fill="#F7F3EF" stroke="#070707" stroke-width="4" stroke-linecap="round" stroke-linejoin="round"/>
<path d="M357.27 810C365.43 821.69 380.57 824.34 391.9 815.9C403.23 807.47 404.13 791.15 395.96 779.45L357.27 810Z" fill="#F7F3EF" stroke="#070707" stroke-width="4" stroke-linecap="round" stroke-linejoin="round"/>
<path d="M399.799 643.67L398.329 682.271C398.301 683.012 397.986 683.714 397.451 684.229C396.916 684.744 396.202 685.031 395.459 685.031V685.031C394.718 685.031 394.006 684.745 393.471 684.233C392.936 683.72 392.62 683.021 392.589 682.281L391.129 647.61C391.129 645.307 390.215 643.099 388.587 641.469C386.96 639.84 384.752 638.923 382.449 638.92V638.92C382.449 637.876 382.864 636.873 383.603 636.134C384.342 635.396 385.344 634.98 386.389 634.98H391.109C393.414 634.98 395.624 635.896 397.254 637.526C398.884 639.155 399.799 641.366 399.799 643.67V643.67Z" fill="#F7F3EF" stroke="#070707" stroke-width="4" stroke-linecap="round" stroke-linejoin="round"/>
<path d="M559.38 683.841H556.06V777.111H559.38V683.841Z" fill="#F7F3EF" stroke="#070707" stroke-width="4" stroke-linecap="round" stroke-linejoin="round"/>
<path d="M569.9 788.871L567.9 822.391H567.51L564.51 791.201C564.354 789.489 563.575 787.895 562.32 786.721C561.093 785.567 559.474 784.923 557.79 784.921C556.099 784.944 554.476 785.592 553.235 786.741C551.994 787.889 551.223 789.457 551.07 791.141L547.88 822.391H547.75L545.75 788.871C545.699 785.623 546.939 782.487 549.199 780.153C551.458 777.818 554.551 776.476 557.8 776.421C559.393 776.422 560.97 776.746 562.436 777.371C563.901 777.996 565.226 778.911 566.33 780.061C568.616 782.424 569.896 785.583 569.9 788.871V788.871Z" fill="#F7F3EF" stroke="#070707" stroke-width="4" stroke-linecap="round" stroke-linejoin="round"/>
<path d="M562.079 643.67L560.609 682.271C560.581 683.012 560.266 683.714 559.731 684.229C559.196 684.744 558.482 685.031 557.739 685.031V685.031C556.999 685.031 556.288 684.745 555.755 684.232C555.222 683.719 554.908 683.02 554.879 682.281L553.419 647.61C553.419 645.307 552.505 643.099 550.878 641.469C549.25 639.84 547.042 638.923 544.739 638.92V638.92C544.739 637.877 545.153 636.877 545.89 636.138C546.626 635.399 547.626 634.983 548.669 634.98H553.399C555.702 634.983 557.91 635.9 559.538 637.529C561.165 639.159 562.079 641.367 562.079 643.67V643.67Z" fill="#F7F3EF" stroke="#070707" stroke-width="4" stroke-linecap="round" stroke-linejoin="round"/>
<path d="M448.599 683.841H445.279V757.411H448.599V683.841Z" fill="#F7F3EF" stroke="#070707" stroke-width="4" stroke-linecap="round" stroke-linejoin="round"/>
<path d="M462.63 797.261C463.63 812.761 456.57 822.381 446.95 822.381C438.41 822.381 430.04 811.321 431.26 797.261C432.46 783.441 440.46 756.381 446.95 756.381C453.44 756.381 461.74 783.411 462.63 797.261Z" fill="#F7F3EF" stroke="#070707" stroke-width="4" stroke-linecap="round" stroke-linejoin="round"/>
<path d="M456.74 798.49C457.36 813.23 451.5 822.38 446.94 822.38C443.27 822.38 436.39 811.86 437.15 798.49C437.9 785.34 442.89 757.271 446.94 757.271C450.99 757.271 456.18 785.32 456.74 798.49Z" fill="#F7F3EF" stroke="#070707" stroke-width="4" stroke-linecap="round" stroke-linejoin="round"/>
<path d="M450.61 643.67L449.14 682.27C449.111 683.012 448.796 683.714 448.261 684.229C447.726 684.743 447.012 685.031 446.27 685.03V685.03C445.529 685.031 444.817 684.745 444.282 684.232C443.747 683.72 443.431 683.02 443.4 682.28L441.94 647.61C441.941 646.469 441.718 645.339 441.282 644.285C440.846 643.231 440.207 642.273 439.401 641.466C438.595 640.659 437.638 640.019 436.584 639.582C435.53 639.145 434.4 638.92 433.26 638.92V638.92C433.28 637.883 433.703 636.895 434.438 636.164C435.173 635.433 436.163 635.015 437.2 635H441.93C444.229 635.003 446.434 635.917 448.061 637.542C449.688 639.167 450.604 641.37 450.61 643.67V643.67Z" fill="#F7F3EF" stroke="#070707" stroke-width="4" stroke-linecap="round" stroke-linejoin="round"/>
<path d="M446.939 757.271V822.38" stroke="#070707" stroke-width="4" stroke-linecap="round" stroke-linejoin="round"/>
<path d="M677.199 673.72C675.965 672.324 674.325 671.348 672.509 670.93L642.809 664.59L636.389 657.59L595.689 694.89L632.149 734.67C644.509 748.16 663.599 751.5 674.999 741.72C680.999 736.56 683.759 728.89 683.319 720.72C682.693 712.121 679.127 704 673.219 697.72L667.359 691.33C665.829 689.65 666.169 687.22 668.029 686.68L676.519 684.19C677.094 683.983 677.621 683.664 678.069 683.25C680.369 681.21 680.149 676.93 677.199 673.72Z" fill="#F7F3EF" stroke="#070707" stroke-width="4" stroke-linecap="round" stroke-linejoin="round"/>
<path d="M673.52 675.651C672.286 674.254 670.646 673.279 668.83 672.86L639.13 666.521L632.71 659.521L592 696.82L628.46 736.6C640.82 750.09 659.91 753.43 671.32 743.6C677.32 738.44 680.07 730.77 679.63 722.6C679.005 714.001 675.439 705.879 669.53 699.6L663.68 693.211C662.14 691.531 662.48 689.1 664.34 688.56L672.83 686.06C673.405 685.861 673.933 685.544 674.38 685.13C676.69 683.14 676.47 678.861 673.52 675.651Z" fill="#E57B07" stroke="#070707" stroke-width="4" stroke-linecap="round" stroke-linejoin="round"/>
<path d="M624.7 643.36C624.81 645.7 629.38 652.86 629.38 652.86C629.38 652.86 633.29 645.33 633.19 642.98C633.119 641.869 632.615 640.83 631.786 640.087C630.958 639.343 629.87 638.954 628.758 639.004C627.646 639.054 626.598 639.538 625.839 640.353C625.08 641.167 624.671 642.247 624.7 643.36V643.36Z" fill="#F7F3EF" stroke="#070707" stroke-width="4" stroke-linecap="round" stroke-linejoin="round"/>
<path d="M628.47 654L586.13 692.8C585.954 692.961 585.812 693.155 585.711 693.37C585.611 693.586 585.554 693.819 585.544 694.057C585.533 694.295 585.57 694.532 585.652 694.756C585.734 694.98 585.859 695.185 586.02 695.36L589.02 698.63C589.18 698.806 589.374 698.948 589.59 699.048C589.806 699.149 590.039 699.206 590.277 699.216C590.515 699.226 590.752 699.189 590.976 699.108C591.199 699.026 591.404 698.901 591.58 698.74L634 659.94C634.355 659.614 634.566 659.16 634.586 658.678C634.607 658.196 634.436 657.726 634.11 657.37L631.11 654.11C630.946 653.925 630.747 653.775 630.525 653.668C630.302 653.562 630.06 653.502 629.813 653.492C629.566 653.482 629.32 653.521 629.089 653.609C628.859 653.696 628.648 653.829 628.47 654V654Z" fill="#E57B07" stroke="#070707" stroke-width="4" stroke-linecap="round" stroke-linejoin="round"/>
<path d="M836.291 334.091H689.931V480.451H836.291V334.091Z" fill="#1C0E0C"/>
<path d="M829.8 327.61H683.44V473.97H829.8V327.61Z" fill="#F7F3EF" stroke="#070707" stroke-width="4" stroke-linecap="round" stroke-linejoin="round"/>
<path d="M806.49 350.92H706.75V450.66H806.49V350.92Z" fill="#F7F3EF" stroke="#070707" stroke-width="4" stroke-linecap="round" stroke-linejoin="round"/>
<path d="M757.16 378.49C757.16 378.49 759.901 369.41 753.521 366.65Z" fill="#F7F3EF"/>
<path d="M757.16 378.49C757.16 378.49 759.901 369.41 753.521 366.65" stroke="#070707" stroke-width="4" stroke-linecap="round" stroke-linejoin="round"/>
<path d="M770.671 392.751C771.252 396.164 772.536 399.419 774.441 402.311C776.584 405.525 777.818 409.259 778.012 413.118C778.206 416.976 777.353 420.816 775.543 424.229C773.733 427.642 771.034 430.502 767.731 432.507C764.428 434.511 760.644 435.584 756.781 435.613C752.917 435.642 749.118 434.626 745.785 432.672C742.452 430.718 739.71 427.899 737.849 424.513C735.988 421.128 735.077 417.302 735.212 413.44C735.348 409.579 736.526 405.827 738.621 402.581C740.604 399.607 741.964 396.264 742.621 392.751L742.751 392.001C742.911 391.111 743.001 390.211 743.081 389.301C743.362 386.24 744.777 383.396 747.046 381.324C749.316 379.252 752.278 378.103 755.351 378.101H757.981C761.054 378.1 764.017 379.249 766.287 381.321C768.558 383.394 769.971 386.24 770.251 389.301C770.331 390.211 770.421 391.111 770.581 392.001L770.671 392.751Z" fill="#EFAF00" stroke="black" stroke-width="4" stroke-linecap="round" stroke-linejoin="round"/>
<path d="M758.33 378C758.33 378 757.66 369.68 769.62 365.92C769.62 365.93 771.28 380.89 758.33 378Z" fill="#F7F3EF" stroke="#070707" stroke-width="4" stroke-linecap="round" stroke-linejoin="round"/>
</g>
<defs>
<clipPath id="clip0_512_6309">
<rect width="2000" height="1561.26" fill="white"/>
</clipPath>
</defs>
</svg>
